G04 EAGLE Gerber RS-274X export*
G75*
%MOMM*%
%FSLAX34Y34*%
%LPD*%
%IN*%
%IPPOS*%
%AMOC8*
5,1,8,0,0,1.08239X$1,22.5*%
G01*
%ADD10C,0.254000*%


D10*
X0Y0D02*
X889000Y0D01*
X889000Y889000D01*
X0Y889000D01*
X0Y0D01*
X799500Y70191D02*
X799577Y71170D01*
X799731Y72141D01*
X799960Y73096D01*
X800264Y74030D01*
X800639Y74937D01*
X801085Y75812D01*
X801599Y76650D01*
X802176Y77445D01*
X802814Y78192D01*
X803508Y78886D01*
X804255Y79524D01*
X805050Y80101D01*
X805888Y80615D01*
X806763Y81061D01*
X807670Y81436D01*
X808604Y81740D01*
X809560Y81969D01*
X810530Y82123D01*
X811509Y82200D01*
X812491Y82200D01*
X813470Y82123D01*
X814441Y81969D01*
X815396Y81740D01*
X816330Y81436D01*
X817237Y81061D01*
X818112Y80615D01*
X818950Y80101D01*
X819745Y79524D01*
X820492Y78886D01*
X821186Y78192D01*
X821824Y77445D01*
X822401Y76650D01*
X822915Y75812D01*
X823361Y74937D01*
X823736Y74030D01*
X824040Y73096D01*
X824269Y72141D01*
X824423Y71170D01*
X824500Y70191D01*
X824500Y69209D01*
X824423Y68230D01*
X824269Y67260D01*
X824040Y66304D01*
X823736Y65370D01*
X823361Y64463D01*
X822915Y63588D01*
X822401Y62750D01*
X821824Y61955D01*
X821186Y61208D01*
X820492Y60514D01*
X819745Y59876D01*
X818950Y59299D01*
X818112Y58785D01*
X817237Y58339D01*
X816330Y57964D01*
X815396Y57660D01*
X814441Y57431D01*
X813470Y57277D01*
X812491Y57200D01*
X811509Y57200D01*
X810530Y57277D01*
X809560Y57431D01*
X808604Y57660D01*
X807670Y57964D01*
X806763Y58339D01*
X805888Y58785D01*
X805050Y59299D01*
X804255Y59876D01*
X803508Y60514D01*
X802814Y61208D01*
X802176Y61955D01*
X801599Y62750D01*
X801085Y63588D01*
X800639Y64463D01*
X800264Y65370D01*
X799960Y66304D01*
X799731Y67260D01*
X799577Y68230D01*
X799500Y69209D01*
X799500Y70191D01*
X699500Y70191D02*
X699577Y71170D01*
X699731Y72141D01*
X699960Y73096D01*
X700264Y74030D01*
X700639Y74937D01*
X701085Y75812D01*
X701599Y76650D01*
X702176Y77445D01*
X702814Y78192D01*
X703508Y78886D01*
X704255Y79524D01*
X705050Y80101D01*
X705888Y80615D01*
X706763Y81061D01*
X707670Y81436D01*
X708604Y81740D01*
X709560Y81969D01*
X710530Y82123D01*
X711509Y82200D01*
X712491Y82200D01*
X713470Y82123D01*
X714441Y81969D01*
X715396Y81740D01*
X716330Y81436D01*
X717237Y81061D01*
X718112Y80615D01*
X718950Y80101D01*
X719745Y79524D01*
X720492Y78886D01*
X721186Y78192D01*
X721824Y77445D01*
X722401Y76650D01*
X722915Y75812D01*
X723361Y74937D01*
X723736Y74030D01*
X724040Y73096D01*
X724269Y72141D01*
X724423Y71170D01*
X724500Y70191D01*
X724500Y69209D01*
X724423Y68230D01*
X724269Y67260D01*
X724040Y66304D01*
X723736Y65370D01*
X723361Y64463D01*
X722915Y63588D01*
X722401Y62750D01*
X721824Y61955D01*
X721186Y61208D01*
X720492Y60514D01*
X719745Y59876D01*
X718950Y59299D01*
X718112Y58785D01*
X717237Y58339D01*
X716330Y57964D01*
X715396Y57660D01*
X714441Y57431D01*
X713470Y57277D01*
X712491Y57200D01*
X711509Y57200D01*
X710530Y57277D01*
X709560Y57431D01*
X708604Y57660D01*
X707670Y57964D01*
X706763Y58339D01*
X705888Y58785D01*
X705050Y59299D01*
X704255Y59876D01*
X703508Y60514D01*
X702814Y61208D01*
X702176Y61955D01*
X701599Y62750D01*
X701085Y63588D01*
X700639Y64463D01*
X700264Y65370D01*
X699960Y66304D01*
X699731Y67260D01*
X699577Y68230D01*
X699500Y69209D01*
X699500Y70191D01*
X202600Y82891D02*
X202677Y83870D01*
X202831Y84841D01*
X203060Y85796D01*
X203364Y86730D01*
X203739Y87637D01*
X204185Y88512D01*
X204699Y89350D01*
X205276Y90145D01*
X205914Y90892D01*
X206608Y91586D01*
X207355Y92224D01*
X208150Y92801D01*
X208988Y93315D01*
X209863Y93761D01*
X210770Y94136D01*
X211704Y94440D01*
X212660Y94669D01*
X213630Y94823D01*
X214609Y94900D01*
X215591Y94900D01*
X216570Y94823D01*
X217541Y94669D01*
X218496Y94440D01*
X219430Y94136D01*
X220337Y93761D01*
X221212Y93315D01*
X222050Y92801D01*
X222845Y92224D01*
X223592Y91586D01*
X224286Y90892D01*
X224924Y90145D01*
X225501Y89350D01*
X226015Y88512D01*
X226461Y87637D01*
X226836Y86730D01*
X227140Y85796D01*
X227369Y84841D01*
X227523Y83870D01*
X227600Y82891D01*
X227600Y81909D01*
X227523Y80930D01*
X227369Y79960D01*
X227140Y79004D01*
X226836Y78070D01*
X226461Y77163D01*
X226015Y76288D01*
X225501Y75450D01*
X224924Y74655D01*
X224286Y73908D01*
X223592Y73214D01*
X222845Y72576D01*
X222050Y71999D01*
X221212Y71485D01*
X220337Y71039D01*
X219430Y70664D01*
X218496Y70360D01*
X217541Y70131D01*
X216570Y69977D01*
X215591Y69900D01*
X214609Y69900D01*
X213630Y69977D01*
X212660Y70131D01*
X211704Y70360D01*
X210770Y70664D01*
X209863Y71039D01*
X208988Y71485D01*
X208150Y71999D01*
X207355Y72576D01*
X206608Y73214D01*
X205914Y73908D01*
X205276Y74655D01*
X204699Y75450D01*
X204185Y76288D01*
X203739Y77163D01*
X203364Y78070D01*
X203060Y79004D01*
X202831Y79960D01*
X202677Y80930D01*
X202600Y81909D01*
X202600Y82891D01*
X102600Y82891D02*
X102677Y83870D01*
X102831Y84841D01*
X103060Y85796D01*
X103364Y86730D01*
X103739Y87637D01*
X104185Y88512D01*
X104699Y89350D01*
X105276Y90145D01*
X105914Y90892D01*
X106608Y91586D01*
X107355Y92224D01*
X108150Y92801D01*
X108988Y93315D01*
X109863Y93761D01*
X110770Y94136D01*
X111704Y94440D01*
X112660Y94669D01*
X113630Y94823D01*
X114609Y94900D01*
X115591Y94900D01*
X116570Y94823D01*
X117541Y94669D01*
X118496Y94440D01*
X119430Y94136D01*
X120337Y93761D01*
X121212Y93315D01*
X122050Y92801D01*
X122845Y92224D01*
X123592Y91586D01*
X124286Y90892D01*
X124924Y90145D01*
X125501Y89350D01*
X126015Y88512D01*
X126461Y87637D01*
X126836Y86730D01*
X127140Y85796D01*
X127369Y84841D01*
X127523Y83870D01*
X127600Y82891D01*
X127600Y81909D01*
X127523Y80930D01*
X127369Y79960D01*
X127140Y79004D01*
X126836Y78070D01*
X126461Y77163D01*
X126015Y76288D01*
X125501Y75450D01*
X124924Y74655D01*
X124286Y73908D01*
X123592Y73214D01*
X122845Y72576D01*
X122050Y71999D01*
X121212Y71485D01*
X120337Y71039D01*
X119430Y70664D01*
X118496Y70360D01*
X117541Y70131D01*
X116570Y69977D01*
X115591Y69900D01*
X114609Y69900D01*
X113630Y69977D01*
X112660Y70131D01*
X111704Y70360D01*
X110770Y70664D01*
X109863Y71039D01*
X108988Y71485D01*
X108150Y71999D01*
X107355Y72576D01*
X106608Y73214D01*
X105914Y73908D01*
X105276Y74655D01*
X104699Y75450D01*
X104185Y76288D01*
X103739Y77163D01*
X103364Y78070D01*
X103060Y79004D01*
X102831Y79960D01*
X102677Y80930D01*
X102600Y81909D01*
X102600Y82891D01*
M02*
