G04 EAGLE Gerber RS-274X export*
G75*
%MOMM*%
%FSLAX34Y34*%
%LPD*%
%INSilkscreen Top*%
%IPPOS*%
%AMOC8*
5,1,8,0,0,1.08239X$1,22.5*%
G01*
%ADD10C,0.152400*%
%ADD11C,0.127000*%
%ADD12C,0.304800*%
%ADD13C,0.254000*%

G36*
X531405Y137076D02*
X531405Y137076D01*
X531505Y137075D01*
X531519Y137079D01*
X531531Y137079D01*
X531574Y137097D01*
X531684Y137133D01*
X535684Y139133D01*
X535719Y139159D01*
X535760Y139178D01*
X535809Y139226D01*
X535863Y139267D01*
X535888Y139304D01*
X535919Y139336D01*
X535948Y139398D01*
X535985Y139455D01*
X535995Y139499D01*
X536014Y139539D01*
X536019Y139608D01*
X536034Y139674D01*
X536028Y139719D01*
X536031Y139763D01*
X536012Y139829D01*
X536003Y139897D01*
X535982Y139936D01*
X535970Y139979D01*
X535929Y140034D01*
X535897Y140094D01*
X535863Y140124D01*
X535837Y140160D01*
X535766Y140209D01*
X535728Y140243D01*
X535707Y140251D01*
X535684Y140267D01*
X531684Y142267D01*
X531588Y142295D01*
X531494Y142327D01*
X531481Y142327D01*
X531468Y142331D01*
X531369Y142324D01*
X531269Y142321D01*
X531258Y142316D01*
X531245Y142315D01*
X531154Y142274D01*
X531062Y142236D01*
X531052Y142228D01*
X531040Y142222D01*
X530969Y142152D01*
X530896Y142085D01*
X530890Y142074D01*
X530881Y142064D01*
X530839Y141974D01*
X530793Y141885D01*
X530791Y141871D01*
X530786Y141861D01*
X530783Y141814D01*
X530766Y141700D01*
X530766Y137700D01*
X530783Y137602D01*
X530797Y137503D01*
X530803Y137492D01*
X530805Y137479D01*
X530856Y137393D01*
X530903Y137306D01*
X530913Y137297D01*
X530920Y137286D01*
X530997Y137223D01*
X531072Y137157D01*
X531084Y137153D01*
X531094Y137145D01*
X531188Y137113D01*
X531281Y137077D01*
X531294Y137077D01*
X531306Y137073D01*
X531405Y137076D01*
G37*
G36*
X467905Y137076D02*
X467905Y137076D01*
X468005Y137075D01*
X468019Y137079D01*
X468031Y137079D01*
X468074Y137097D01*
X468184Y137133D01*
X472184Y139133D01*
X472219Y139159D01*
X472260Y139178D01*
X472309Y139226D01*
X472363Y139267D01*
X472388Y139304D01*
X472419Y139336D01*
X472448Y139398D01*
X472485Y139455D01*
X472495Y139499D01*
X472514Y139539D01*
X472519Y139608D01*
X472534Y139674D01*
X472528Y139719D01*
X472531Y139763D01*
X472512Y139829D01*
X472503Y139897D01*
X472482Y139936D01*
X472470Y139979D01*
X472429Y140034D01*
X472397Y140094D01*
X472363Y140124D01*
X472337Y140160D01*
X472266Y140209D01*
X472228Y140243D01*
X472207Y140251D01*
X472184Y140267D01*
X468184Y142267D01*
X468088Y142295D01*
X467994Y142327D01*
X467981Y142327D01*
X467968Y142331D01*
X467869Y142324D01*
X467769Y142321D01*
X467758Y142316D01*
X467745Y142315D01*
X467654Y142274D01*
X467562Y142236D01*
X467552Y142228D01*
X467540Y142222D01*
X467469Y142152D01*
X467396Y142085D01*
X467390Y142074D01*
X467381Y142064D01*
X467339Y141974D01*
X467293Y141885D01*
X467291Y141871D01*
X467286Y141861D01*
X467283Y141814D01*
X467266Y141700D01*
X467266Y137700D01*
X467283Y137602D01*
X467297Y137503D01*
X467303Y137492D01*
X467305Y137479D01*
X467356Y137393D01*
X467403Y137306D01*
X467413Y137297D01*
X467420Y137286D01*
X467497Y137223D01*
X467572Y137157D01*
X467584Y137153D01*
X467594Y137145D01*
X467688Y137113D01*
X467781Y137077D01*
X467794Y137077D01*
X467806Y137073D01*
X467905Y137076D01*
G37*
G36*
X417105Y137076D02*
X417105Y137076D01*
X417205Y137075D01*
X417219Y137079D01*
X417231Y137079D01*
X417274Y137097D01*
X417384Y137133D01*
X421384Y139133D01*
X421419Y139159D01*
X421460Y139178D01*
X421509Y139226D01*
X421563Y139267D01*
X421588Y139304D01*
X421619Y139336D01*
X421648Y139398D01*
X421685Y139455D01*
X421695Y139499D01*
X421714Y139539D01*
X421719Y139608D01*
X421734Y139674D01*
X421728Y139719D01*
X421731Y139763D01*
X421712Y139829D01*
X421703Y139897D01*
X421682Y139936D01*
X421670Y139979D01*
X421629Y140034D01*
X421597Y140094D01*
X421563Y140124D01*
X421537Y140160D01*
X421466Y140209D01*
X421428Y140243D01*
X421407Y140251D01*
X421384Y140267D01*
X417384Y142267D01*
X417288Y142295D01*
X417194Y142327D01*
X417181Y142327D01*
X417168Y142331D01*
X417069Y142324D01*
X416969Y142321D01*
X416958Y142316D01*
X416945Y142315D01*
X416854Y142274D01*
X416762Y142236D01*
X416752Y142228D01*
X416740Y142222D01*
X416669Y142152D01*
X416596Y142085D01*
X416590Y142074D01*
X416581Y142064D01*
X416539Y141974D01*
X416493Y141885D01*
X416491Y141871D01*
X416486Y141861D01*
X416483Y141814D01*
X416466Y141700D01*
X416466Y137700D01*
X416483Y137602D01*
X416497Y137503D01*
X416503Y137492D01*
X416505Y137479D01*
X416556Y137393D01*
X416603Y137306D01*
X416613Y137297D01*
X416620Y137286D01*
X416697Y137223D01*
X416772Y137157D01*
X416784Y137153D01*
X416794Y137145D01*
X416888Y137113D01*
X416981Y137077D01*
X416994Y137077D01*
X417006Y137073D01*
X417105Y137076D01*
G37*
D10*
X292862Y304038D02*
X292862Y292862D01*
X297829Y292862D01*
X302881Y292862D02*
X302881Y304038D01*
X306606Y297829D01*
X310332Y304038D01*
X310332Y292862D01*
X259729Y254762D02*
X254762Y254762D01*
X254762Y265938D01*
X259729Y265938D01*
X258487Y260971D02*
X254762Y260971D01*
X263099Y262213D02*
X266824Y262213D01*
X264341Y265938D02*
X264341Y256625D01*
X264343Y256541D01*
X264348Y256458D01*
X264358Y256375D01*
X264371Y256292D01*
X264388Y256210D01*
X264408Y256129D01*
X264432Y256049D01*
X264460Y255970D01*
X264491Y255893D01*
X264525Y255817D01*
X264563Y255742D01*
X264605Y255669D01*
X264649Y255599D01*
X264697Y255530D01*
X264747Y255463D01*
X264801Y255399D01*
X264857Y255338D01*
X264917Y255278D01*
X264978Y255222D01*
X265042Y255168D01*
X265109Y255118D01*
X265178Y255070D01*
X265248Y255026D01*
X265321Y254984D01*
X265396Y254946D01*
X265472Y254912D01*
X265549Y254881D01*
X265628Y254853D01*
X265708Y254829D01*
X265789Y254809D01*
X265871Y254792D01*
X265954Y254779D01*
X266037Y254769D01*
X266120Y254764D01*
X266204Y254762D01*
X266824Y254762D01*
X273236Y254762D02*
X275719Y254762D01*
X273236Y254762D02*
X273152Y254764D01*
X273069Y254769D01*
X272986Y254779D01*
X272903Y254792D01*
X272821Y254809D01*
X272740Y254829D01*
X272660Y254853D01*
X272581Y254881D01*
X272504Y254912D01*
X272428Y254946D01*
X272353Y254984D01*
X272280Y255026D01*
X272210Y255070D01*
X272141Y255118D01*
X272074Y255168D01*
X272010Y255222D01*
X271949Y255278D01*
X271889Y255338D01*
X271833Y255399D01*
X271779Y255463D01*
X271729Y255530D01*
X271681Y255599D01*
X271637Y255669D01*
X271595Y255742D01*
X271557Y255817D01*
X271523Y255893D01*
X271492Y255970D01*
X271464Y256049D01*
X271440Y256129D01*
X271420Y256210D01*
X271403Y256292D01*
X271390Y256375D01*
X271380Y256458D01*
X271375Y256541D01*
X271373Y256625D01*
X271373Y260350D01*
X271375Y260434D01*
X271381Y260517D01*
X271390Y260600D01*
X271403Y260683D01*
X271420Y260765D01*
X271440Y260846D01*
X271464Y260926D01*
X271492Y261005D01*
X271523Y261082D01*
X271557Y261158D01*
X271595Y261233D01*
X271637Y261306D01*
X271681Y261376D01*
X271729Y261445D01*
X271779Y261512D01*
X271833Y261576D01*
X271889Y261637D01*
X271949Y261697D01*
X272010Y261753D01*
X272074Y261807D01*
X272141Y261857D01*
X272210Y261905D01*
X272280Y261949D01*
X272353Y261991D01*
X272428Y262029D01*
X272504Y262063D01*
X272581Y262094D01*
X272660Y262122D01*
X272740Y262146D01*
X272821Y262166D01*
X272903Y262183D01*
X272986Y262196D01*
X273069Y262206D01*
X273152Y262211D01*
X273236Y262213D01*
X275719Y262213D01*
X280501Y265938D02*
X280501Y254762D01*
X280501Y262213D02*
X283605Y262213D01*
X283689Y262211D01*
X283772Y262206D01*
X283855Y262196D01*
X283938Y262183D01*
X284020Y262166D01*
X284101Y262146D01*
X284181Y262122D01*
X284260Y262094D01*
X284337Y262063D01*
X284413Y262029D01*
X284488Y261991D01*
X284561Y261949D01*
X284631Y261905D01*
X284700Y261857D01*
X284767Y261807D01*
X284831Y261753D01*
X284892Y261697D01*
X284952Y261637D01*
X285008Y261576D01*
X285062Y261512D01*
X285112Y261445D01*
X285160Y261376D01*
X285204Y261306D01*
X285246Y261233D01*
X285284Y261158D01*
X285318Y261082D01*
X285349Y261005D01*
X285377Y260926D01*
X285401Y260846D01*
X285421Y260765D01*
X285438Y260683D01*
X285451Y260600D01*
X285461Y260517D01*
X285466Y260434D01*
X285468Y260350D01*
X285468Y254762D01*
X297265Y254762D02*
X297265Y262213D01*
X300369Y262213D01*
X300453Y262211D01*
X300536Y262206D01*
X300619Y262196D01*
X300702Y262183D01*
X300784Y262166D01*
X300865Y262146D01*
X300945Y262122D01*
X301024Y262094D01*
X301101Y262063D01*
X301177Y262029D01*
X301252Y261991D01*
X301325Y261949D01*
X301395Y261905D01*
X301464Y261857D01*
X301531Y261807D01*
X301595Y261753D01*
X301656Y261697D01*
X301716Y261637D01*
X301772Y261576D01*
X301826Y261512D01*
X301876Y261445D01*
X301924Y261376D01*
X301968Y261306D01*
X302010Y261233D01*
X302048Y261158D01*
X302082Y261082D01*
X302113Y261005D01*
X302141Y260926D01*
X302165Y260846D01*
X302185Y260765D01*
X302202Y260683D01*
X302215Y260600D01*
X302225Y260517D01*
X302230Y260434D01*
X302232Y260350D01*
X302232Y254762D01*
X317133Y254762D02*
X317230Y254764D01*
X317328Y254770D01*
X317425Y254779D01*
X317522Y254793D01*
X317618Y254810D01*
X317713Y254831D01*
X317807Y254855D01*
X317901Y254884D01*
X317993Y254916D01*
X318084Y254951D01*
X318173Y254990D01*
X318261Y255033D01*
X318347Y255079D01*
X318431Y255128D01*
X318513Y255181D01*
X318593Y255236D01*
X318671Y255295D01*
X318746Y255357D01*
X318819Y255422D01*
X318889Y255490D01*
X318957Y255560D01*
X319022Y255633D01*
X319084Y255708D01*
X319143Y255786D01*
X319198Y255866D01*
X319251Y255948D01*
X319300Y256032D01*
X319346Y256118D01*
X319389Y256206D01*
X319428Y256295D01*
X319463Y256386D01*
X319495Y256478D01*
X319524Y256572D01*
X319548Y256666D01*
X319569Y256761D01*
X319586Y256857D01*
X319600Y256954D01*
X319609Y257051D01*
X319615Y257148D01*
X319617Y257246D01*
X317133Y254762D02*
X316990Y254764D01*
X316847Y254770D01*
X316705Y254779D01*
X316563Y254793D01*
X316421Y254811D01*
X316280Y254832D01*
X316139Y254857D01*
X315999Y254886D01*
X315860Y254919D01*
X315722Y254955D01*
X315585Y254996D01*
X315449Y255040D01*
X315314Y255087D01*
X315181Y255139D01*
X315049Y255194D01*
X314919Y255252D01*
X314790Y255314D01*
X314663Y255380D01*
X314538Y255449D01*
X314415Y255521D01*
X314294Y255597D01*
X314175Y255675D01*
X314058Y255758D01*
X313943Y255843D01*
X313831Y255931D01*
X313721Y256023D01*
X313614Y256117D01*
X313509Y256214D01*
X313407Y256314D01*
X313718Y263454D02*
X313720Y263552D01*
X313726Y263649D01*
X313735Y263746D01*
X313749Y263843D01*
X313766Y263939D01*
X313787Y264034D01*
X313811Y264128D01*
X313840Y264222D01*
X313872Y264314D01*
X313907Y264405D01*
X313946Y264494D01*
X313989Y264582D01*
X314035Y264668D01*
X314084Y264752D01*
X314137Y264834D01*
X314192Y264914D01*
X314251Y264992D01*
X314313Y265067D01*
X314378Y265140D01*
X314446Y265210D01*
X314516Y265278D01*
X314589Y265343D01*
X314664Y265405D01*
X314742Y265464D01*
X314822Y265519D01*
X314904Y265572D01*
X314988Y265621D01*
X315074Y265667D01*
X315162Y265710D01*
X315251Y265749D01*
X315342Y265784D01*
X315434Y265816D01*
X315528Y265845D01*
X315622Y265869D01*
X315717Y265890D01*
X315813Y265907D01*
X315910Y265921D01*
X316007Y265930D01*
X316104Y265936D01*
X316202Y265938D01*
X316332Y265936D01*
X316462Y265931D01*
X316592Y265922D01*
X316722Y265909D01*
X316851Y265893D01*
X316980Y265873D01*
X317108Y265849D01*
X317236Y265822D01*
X317362Y265791D01*
X317488Y265757D01*
X317613Y265719D01*
X317736Y265678D01*
X317859Y265633D01*
X317980Y265585D01*
X318100Y265534D01*
X318218Y265479D01*
X318334Y265421D01*
X318449Y265360D01*
X318563Y265295D01*
X318674Y265228D01*
X318783Y265157D01*
X318891Y265083D01*
X318996Y265007D01*
X314960Y261281D02*
X314877Y261332D01*
X314796Y261386D01*
X314718Y261443D01*
X314642Y261503D01*
X314568Y261566D01*
X314497Y261632D01*
X314428Y261700D01*
X314362Y261771D01*
X314298Y261844D01*
X314238Y261920D01*
X314181Y261998D01*
X314126Y262079D01*
X314075Y262161D01*
X314027Y262245D01*
X313982Y262331D01*
X313940Y262419D01*
X313902Y262508D01*
X313868Y262598D01*
X313836Y262690D01*
X313809Y262783D01*
X313785Y262877D01*
X313764Y262972D01*
X313748Y263068D01*
X313735Y263164D01*
X313725Y263260D01*
X313720Y263357D01*
X313718Y263454D01*
X318374Y259419D02*
X318457Y259368D01*
X318538Y259314D01*
X318616Y259257D01*
X318692Y259197D01*
X318766Y259134D01*
X318837Y259068D01*
X318906Y259000D01*
X318972Y258929D01*
X319036Y258856D01*
X319096Y258780D01*
X319153Y258702D01*
X319208Y258621D01*
X319259Y258539D01*
X319307Y258455D01*
X319352Y258369D01*
X319394Y258281D01*
X319432Y258192D01*
X319466Y258102D01*
X319498Y258010D01*
X319525Y257917D01*
X319549Y257823D01*
X319570Y257728D01*
X319586Y257632D01*
X319599Y257536D01*
X319609Y257440D01*
X319614Y257343D01*
X319616Y257246D01*
X318375Y259419D02*
X314960Y261281D01*
X324866Y265938D02*
X324866Y254762D01*
X324866Y258487D02*
X329833Y262213D01*
X327039Y260040D02*
X329833Y254762D01*
X336084Y254762D02*
X339189Y254762D01*
X336084Y254762D02*
X336000Y254764D01*
X335917Y254769D01*
X335834Y254779D01*
X335751Y254792D01*
X335669Y254809D01*
X335588Y254829D01*
X335508Y254853D01*
X335429Y254881D01*
X335352Y254912D01*
X335276Y254946D01*
X335201Y254984D01*
X335128Y255026D01*
X335058Y255070D01*
X334989Y255118D01*
X334922Y255168D01*
X334858Y255222D01*
X334797Y255278D01*
X334737Y255338D01*
X334681Y255399D01*
X334627Y255463D01*
X334577Y255530D01*
X334529Y255599D01*
X334485Y255669D01*
X334443Y255742D01*
X334405Y255817D01*
X334371Y255893D01*
X334340Y255970D01*
X334312Y256049D01*
X334288Y256129D01*
X334268Y256210D01*
X334251Y256292D01*
X334238Y256375D01*
X334228Y256458D01*
X334223Y256541D01*
X334221Y256625D01*
X334221Y259729D01*
X334223Y259828D01*
X334229Y259926D01*
X334239Y260025D01*
X334252Y260122D01*
X334270Y260220D01*
X334291Y260316D01*
X334317Y260412D01*
X334346Y260506D01*
X334378Y260599D01*
X334415Y260691D01*
X334455Y260781D01*
X334499Y260870D01*
X334546Y260957D01*
X334596Y261042D01*
X334650Y261124D01*
X334707Y261205D01*
X334767Y261283D01*
X334831Y261359D01*
X334897Y261432D01*
X334966Y261503D01*
X335038Y261571D01*
X335113Y261635D01*
X335190Y261697D01*
X335269Y261756D01*
X335351Y261811D01*
X335435Y261864D01*
X335520Y261912D01*
X335608Y261958D01*
X335698Y262000D01*
X335789Y262038D01*
X335881Y262072D01*
X335975Y262103D01*
X336070Y262130D01*
X336166Y262154D01*
X336263Y262173D01*
X336360Y262189D01*
X336458Y262201D01*
X336557Y262209D01*
X336656Y262213D01*
X336754Y262213D01*
X336853Y262209D01*
X336952Y262201D01*
X337050Y262189D01*
X337147Y262173D01*
X337244Y262154D01*
X337340Y262130D01*
X337435Y262103D01*
X337529Y262072D01*
X337621Y262038D01*
X337712Y262000D01*
X337802Y261958D01*
X337890Y261912D01*
X337975Y261864D01*
X338059Y261811D01*
X338141Y261756D01*
X338220Y261697D01*
X338297Y261635D01*
X338372Y261571D01*
X338444Y261503D01*
X338513Y261432D01*
X338579Y261359D01*
X338643Y261283D01*
X338703Y261205D01*
X338760Y261124D01*
X338814Y261042D01*
X338864Y260957D01*
X338911Y260870D01*
X338955Y260781D01*
X338995Y260691D01*
X339032Y260599D01*
X339064Y260506D01*
X339093Y260412D01*
X339119Y260316D01*
X339140Y260220D01*
X339158Y260122D01*
X339171Y260025D01*
X339181Y259926D01*
X339187Y259828D01*
X339189Y259729D01*
X339189Y258487D01*
X334221Y258487D01*
X343109Y262213D02*
X346834Y262213D01*
X344351Y265938D02*
X344351Y256625D01*
X344350Y256625D02*
X344352Y256541D01*
X344357Y256458D01*
X344367Y256375D01*
X344380Y256292D01*
X344397Y256210D01*
X344417Y256129D01*
X344441Y256049D01*
X344469Y255970D01*
X344500Y255893D01*
X344534Y255817D01*
X344572Y255742D01*
X344614Y255669D01*
X344658Y255599D01*
X344706Y255530D01*
X344756Y255463D01*
X344810Y255399D01*
X344866Y255338D01*
X344926Y255278D01*
X344987Y255222D01*
X345051Y255168D01*
X345118Y255118D01*
X345187Y255070D01*
X345257Y255026D01*
X345330Y254984D01*
X345405Y254946D01*
X345481Y254912D01*
X345558Y254881D01*
X345637Y254853D01*
X345717Y254829D01*
X345798Y254809D01*
X345880Y254792D01*
X345963Y254779D01*
X346046Y254769D01*
X346129Y254764D01*
X346213Y254762D01*
X346834Y254762D01*
X353246Y254762D02*
X355729Y254762D01*
X353246Y254762D02*
X353162Y254764D01*
X353079Y254769D01*
X352996Y254779D01*
X352913Y254792D01*
X352831Y254809D01*
X352750Y254829D01*
X352670Y254853D01*
X352591Y254881D01*
X352514Y254912D01*
X352438Y254946D01*
X352363Y254984D01*
X352290Y255026D01*
X352220Y255070D01*
X352151Y255118D01*
X352084Y255168D01*
X352020Y255222D01*
X351959Y255278D01*
X351899Y255338D01*
X351843Y255399D01*
X351789Y255463D01*
X351739Y255530D01*
X351691Y255599D01*
X351647Y255669D01*
X351605Y255742D01*
X351567Y255817D01*
X351533Y255893D01*
X351502Y255970D01*
X351474Y256049D01*
X351450Y256129D01*
X351430Y256210D01*
X351413Y256292D01*
X351400Y256375D01*
X351390Y256458D01*
X351385Y256541D01*
X351383Y256625D01*
X351383Y260350D01*
X351385Y260434D01*
X351391Y260517D01*
X351400Y260600D01*
X351413Y260683D01*
X351430Y260765D01*
X351450Y260846D01*
X351474Y260926D01*
X351502Y261005D01*
X351533Y261082D01*
X351567Y261158D01*
X351605Y261233D01*
X351647Y261306D01*
X351691Y261376D01*
X351739Y261445D01*
X351789Y261512D01*
X351843Y261576D01*
X351899Y261637D01*
X351959Y261697D01*
X352020Y261753D01*
X352084Y261807D01*
X352151Y261857D01*
X352220Y261905D01*
X352290Y261949D01*
X352363Y261991D01*
X352438Y262029D01*
X352514Y262063D01*
X352591Y262094D01*
X352670Y262122D01*
X352750Y262146D01*
X352831Y262166D01*
X352913Y262183D01*
X352996Y262196D01*
X353079Y262206D01*
X353162Y262211D01*
X353246Y262213D01*
X355729Y262213D01*
X360510Y265938D02*
X360510Y254762D01*
X360510Y262213D02*
X363615Y262213D01*
X363699Y262211D01*
X363782Y262206D01*
X363865Y262196D01*
X363948Y262183D01*
X364030Y262166D01*
X364111Y262146D01*
X364191Y262122D01*
X364270Y262094D01*
X364347Y262063D01*
X364423Y262029D01*
X364498Y261991D01*
X364571Y261949D01*
X364641Y261905D01*
X364710Y261857D01*
X364777Y261807D01*
X364841Y261753D01*
X364902Y261697D01*
X364962Y261637D01*
X365018Y261576D01*
X365072Y261512D01*
X365122Y261445D01*
X365170Y261376D01*
X365214Y261306D01*
X365256Y261233D01*
X365294Y261158D01*
X365328Y261082D01*
X365359Y261005D01*
X365387Y260926D01*
X365411Y260846D01*
X365431Y260765D01*
X365448Y260683D01*
X365461Y260600D01*
X365471Y260517D01*
X365476Y260434D01*
X365478Y260350D01*
X365477Y260350D02*
X365477Y254762D01*
X377415Y254762D02*
X377415Y265938D01*
X380520Y265938D01*
X380631Y265936D01*
X380741Y265930D01*
X380852Y265920D01*
X380962Y265906D01*
X381071Y265889D01*
X381180Y265867D01*
X381288Y265842D01*
X381394Y265812D01*
X381500Y265779D01*
X381605Y265742D01*
X381708Y265702D01*
X381809Y265657D01*
X381909Y265610D01*
X382008Y265558D01*
X382104Y265503D01*
X382198Y265445D01*
X382290Y265384D01*
X382380Y265319D01*
X382468Y265251D01*
X382553Y265180D01*
X382635Y265106D01*
X382715Y265029D01*
X382792Y264949D01*
X382866Y264867D01*
X382937Y264782D01*
X383005Y264694D01*
X383070Y264604D01*
X383131Y264512D01*
X383189Y264418D01*
X383244Y264322D01*
X383296Y264223D01*
X383343Y264123D01*
X383388Y264022D01*
X383428Y263919D01*
X383465Y263814D01*
X383498Y263708D01*
X383528Y263602D01*
X383553Y263494D01*
X383575Y263385D01*
X383592Y263276D01*
X383606Y263166D01*
X383616Y263055D01*
X383622Y262945D01*
X383624Y262834D01*
X383624Y257866D01*
X383622Y257755D01*
X383616Y257645D01*
X383606Y257534D01*
X383592Y257424D01*
X383575Y257315D01*
X383553Y257206D01*
X383528Y257098D01*
X383498Y256992D01*
X383465Y256886D01*
X383428Y256781D01*
X383388Y256678D01*
X383343Y256577D01*
X383296Y256477D01*
X383244Y256378D01*
X383189Y256282D01*
X383131Y256188D01*
X383070Y256096D01*
X383005Y256006D01*
X382937Y255918D01*
X382866Y255833D01*
X382792Y255751D01*
X382715Y255671D01*
X382635Y255594D01*
X382553Y255520D01*
X382468Y255449D01*
X382380Y255381D01*
X382290Y255316D01*
X382198Y255255D01*
X382104Y255197D01*
X382008Y255142D01*
X381909Y255090D01*
X381809Y255043D01*
X381708Y254998D01*
X381605Y254958D01*
X381500Y254921D01*
X381394Y254888D01*
X381288Y254858D01*
X381180Y254833D01*
X381071Y254811D01*
X380962Y254794D01*
X380852Y254780D01*
X380741Y254770D01*
X380631Y254764D01*
X380520Y254762D01*
X377415Y254762D01*
X390948Y254762D02*
X394052Y254762D01*
X390948Y254762D02*
X390864Y254764D01*
X390781Y254769D01*
X390698Y254779D01*
X390615Y254792D01*
X390533Y254809D01*
X390452Y254829D01*
X390372Y254853D01*
X390293Y254881D01*
X390216Y254912D01*
X390140Y254946D01*
X390065Y254984D01*
X389992Y255026D01*
X389922Y255070D01*
X389853Y255118D01*
X389786Y255168D01*
X389722Y255222D01*
X389661Y255278D01*
X389601Y255338D01*
X389545Y255399D01*
X389491Y255463D01*
X389441Y255530D01*
X389393Y255599D01*
X389349Y255669D01*
X389307Y255742D01*
X389269Y255817D01*
X389235Y255893D01*
X389204Y255970D01*
X389176Y256049D01*
X389152Y256129D01*
X389132Y256210D01*
X389115Y256292D01*
X389102Y256375D01*
X389092Y256458D01*
X389087Y256541D01*
X389085Y256625D01*
X389085Y259729D01*
X389087Y259828D01*
X389093Y259926D01*
X389103Y260025D01*
X389116Y260122D01*
X389134Y260220D01*
X389155Y260316D01*
X389181Y260412D01*
X389210Y260506D01*
X389242Y260599D01*
X389279Y260691D01*
X389319Y260781D01*
X389363Y260870D01*
X389410Y260957D01*
X389460Y261042D01*
X389514Y261124D01*
X389571Y261205D01*
X389631Y261283D01*
X389695Y261359D01*
X389761Y261432D01*
X389830Y261503D01*
X389902Y261571D01*
X389977Y261635D01*
X390054Y261697D01*
X390133Y261756D01*
X390215Y261811D01*
X390299Y261864D01*
X390384Y261912D01*
X390472Y261958D01*
X390562Y262000D01*
X390653Y262038D01*
X390745Y262072D01*
X390839Y262103D01*
X390934Y262130D01*
X391030Y262154D01*
X391127Y262173D01*
X391224Y262189D01*
X391322Y262201D01*
X391421Y262209D01*
X391520Y262213D01*
X391618Y262213D01*
X391717Y262209D01*
X391816Y262201D01*
X391914Y262189D01*
X392011Y262173D01*
X392108Y262154D01*
X392204Y262130D01*
X392299Y262103D01*
X392393Y262072D01*
X392485Y262038D01*
X392576Y262000D01*
X392666Y261958D01*
X392754Y261912D01*
X392839Y261864D01*
X392923Y261811D01*
X393005Y261756D01*
X393084Y261697D01*
X393161Y261635D01*
X393236Y261571D01*
X393308Y261503D01*
X393377Y261432D01*
X393443Y261359D01*
X393507Y261283D01*
X393567Y261205D01*
X393624Y261124D01*
X393678Y261042D01*
X393728Y260957D01*
X393775Y260870D01*
X393819Y260781D01*
X393859Y260691D01*
X393896Y260599D01*
X393928Y260506D01*
X393957Y260412D01*
X393983Y260316D01*
X394004Y260220D01*
X394022Y260122D01*
X394035Y260025D01*
X394045Y259926D01*
X394051Y259828D01*
X394053Y259729D01*
X394052Y259729D02*
X394052Y258487D01*
X389085Y258487D01*
X398610Y262213D02*
X401094Y254762D01*
X403577Y262213D01*
X407952Y262213D02*
X407952Y254762D01*
X407641Y265317D02*
X407641Y265938D01*
X408262Y265938D01*
X408262Y265317D01*
X407641Y265317D01*
X414586Y254762D02*
X417070Y254762D01*
X414586Y254762D02*
X414502Y254764D01*
X414419Y254769D01*
X414336Y254779D01*
X414253Y254792D01*
X414171Y254809D01*
X414090Y254829D01*
X414010Y254853D01*
X413931Y254881D01*
X413854Y254912D01*
X413778Y254946D01*
X413703Y254984D01*
X413630Y255026D01*
X413560Y255070D01*
X413491Y255118D01*
X413424Y255168D01*
X413360Y255222D01*
X413299Y255278D01*
X413239Y255338D01*
X413183Y255399D01*
X413129Y255463D01*
X413079Y255530D01*
X413031Y255599D01*
X412987Y255669D01*
X412945Y255742D01*
X412907Y255817D01*
X412873Y255893D01*
X412842Y255970D01*
X412814Y256049D01*
X412790Y256129D01*
X412770Y256210D01*
X412753Y256292D01*
X412740Y256375D01*
X412730Y256458D01*
X412725Y256541D01*
X412723Y256625D01*
X412724Y256625D02*
X412724Y260350D01*
X412723Y260350D02*
X412725Y260434D01*
X412731Y260517D01*
X412740Y260600D01*
X412753Y260683D01*
X412770Y260765D01*
X412790Y260846D01*
X412814Y260926D01*
X412842Y261005D01*
X412873Y261082D01*
X412907Y261158D01*
X412945Y261233D01*
X412987Y261306D01*
X413031Y261376D01*
X413079Y261445D01*
X413129Y261512D01*
X413183Y261576D01*
X413239Y261637D01*
X413299Y261697D01*
X413360Y261753D01*
X413424Y261807D01*
X413491Y261857D01*
X413560Y261905D01*
X413630Y261949D01*
X413703Y261991D01*
X413778Y262029D01*
X413854Y262063D01*
X413931Y262094D01*
X414010Y262122D01*
X414090Y262146D01*
X414171Y262166D01*
X414253Y262183D01*
X414336Y262196D01*
X414419Y262206D01*
X414502Y262211D01*
X414586Y262213D01*
X417070Y262213D01*
X423333Y254762D02*
X426437Y254762D01*
X423333Y254762D02*
X423249Y254764D01*
X423166Y254769D01*
X423083Y254779D01*
X423000Y254792D01*
X422918Y254809D01*
X422837Y254829D01*
X422757Y254853D01*
X422678Y254881D01*
X422601Y254912D01*
X422525Y254946D01*
X422450Y254984D01*
X422377Y255026D01*
X422307Y255070D01*
X422238Y255118D01*
X422171Y255168D01*
X422107Y255222D01*
X422046Y255278D01*
X421986Y255338D01*
X421930Y255399D01*
X421876Y255463D01*
X421826Y255530D01*
X421778Y255599D01*
X421734Y255669D01*
X421692Y255742D01*
X421654Y255817D01*
X421620Y255893D01*
X421589Y255970D01*
X421561Y256049D01*
X421537Y256129D01*
X421517Y256210D01*
X421500Y256292D01*
X421487Y256375D01*
X421477Y256458D01*
X421472Y256541D01*
X421470Y256625D01*
X421470Y259729D01*
X421472Y259828D01*
X421478Y259926D01*
X421488Y260025D01*
X421501Y260122D01*
X421519Y260220D01*
X421540Y260316D01*
X421566Y260412D01*
X421595Y260506D01*
X421627Y260599D01*
X421664Y260691D01*
X421704Y260781D01*
X421748Y260870D01*
X421795Y260957D01*
X421845Y261042D01*
X421899Y261124D01*
X421956Y261205D01*
X422016Y261283D01*
X422080Y261359D01*
X422146Y261432D01*
X422215Y261503D01*
X422287Y261571D01*
X422362Y261635D01*
X422439Y261697D01*
X422518Y261756D01*
X422600Y261811D01*
X422684Y261864D01*
X422769Y261912D01*
X422857Y261958D01*
X422947Y262000D01*
X423038Y262038D01*
X423130Y262072D01*
X423224Y262103D01*
X423319Y262130D01*
X423415Y262154D01*
X423512Y262173D01*
X423609Y262189D01*
X423707Y262201D01*
X423806Y262209D01*
X423905Y262213D01*
X424003Y262213D01*
X424102Y262209D01*
X424201Y262201D01*
X424299Y262189D01*
X424396Y262173D01*
X424493Y262154D01*
X424589Y262130D01*
X424684Y262103D01*
X424778Y262072D01*
X424870Y262038D01*
X424961Y262000D01*
X425051Y261958D01*
X425139Y261912D01*
X425224Y261864D01*
X425308Y261811D01*
X425390Y261756D01*
X425469Y261697D01*
X425546Y261635D01*
X425621Y261571D01*
X425693Y261503D01*
X425762Y261432D01*
X425828Y261359D01*
X425892Y261283D01*
X425952Y261205D01*
X426009Y261124D01*
X426063Y261042D01*
X426113Y260957D01*
X426160Y260870D01*
X426204Y260781D01*
X426244Y260691D01*
X426281Y260599D01*
X426313Y260506D01*
X426342Y260412D01*
X426368Y260316D01*
X426389Y260220D01*
X426407Y260122D01*
X426420Y260025D01*
X426430Y259926D01*
X426436Y259828D01*
X426438Y259729D01*
X426437Y259729D02*
X426437Y258487D01*
X421470Y258487D01*
X297829Y216662D02*
X292862Y216662D01*
X292862Y227838D01*
X297829Y227838D01*
X296587Y222871D02*
X292862Y222871D01*
X302740Y227838D02*
X302740Y216662D01*
X308949Y216662D02*
X302740Y227838D01*
X308949Y227838D02*
X308949Y216662D01*
X319278Y222871D02*
X321141Y222871D01*
X321141Y216662D01*
X317415Y216662D01*
X317317Y216664D01*
X317220Y216670D01*
X317123Y216679D01*
X317026Y216693D01*
X316930Y216710D01*
X316835Y216731D01*
X316741Y216755D01*
X316647Y216784D01*
X316555Y216816D01*
X316464Y216851D01*
X316375Y216890D01*
X316287Y216933D01*
X316201Y216979D01*
X316117Y217028D01*
X316035Y217081D01*
X315955Y217136D01*
X315877Y217195D01*
X315802Y217257D01*
X315729Y217322D01*
X315659Y217390D01*
X315591Y217460D01*
X315526Y217533D01*
X315464Y217608D01*
X315405Y217686D01*
X315350Y217766D01*
X315297Y217848D01*
X315248Y217932D01*
X315202Y218018D01*
X315159Y218106D01*
X315120Y218195D01*
X315085Y218286D01*
X315053Y218378D01*
X315024Y218472D01*
X315000Y218566D01*
X314979Y218661D01*
X314962Y218757D01*
X314948Y218854D01*
X314939Y218951D01*
X314933Y219048D01*
X314931Y219146D01*
X314932Y219146D02*
X314932Y225354D01*
X314931Y225354D02*
X314933Y225452D01*
X314939Y225549D01*
X314948Y225646D01*
X314962Y225743D01*
X314979Y225839D01*
X315000Y225934D01*
X315024Y226028D01*
X315053Y226122D01*
X315085Y226214D01*
X315120Y226305D01*
X315159Y226394D01*
X315202Y226482D01*
X315248Y226568D01*
X315297Y226652D01*
X315350Y226734D01*
X315405Y226814D01*
X315464Y226892D01*
X315526Y226967D01*
X315591Y227040D01*
X315659Y227110D01*
X315729Y227178D01*
X315802Y227243D01*
X315877Y227305D01*
X315955Y227364D01*
X316035Y227419D01*
X316117Y227472D01*
X316201Y227521D01*
X316287Y227567D01*
X316375Y227610D01*
X316464Y227649D01*
X316555Y227684D01*
X316647Y227716D01*
X316741Y227745D01*
X316835Y227769D01*
X316930Y227790D01*
X317026Y227807D01*
X317123Y227821D01*
X317220Y227830D01*
X317317Y227836D01*
X317415Y227838D01*
X321141Y227838D01*
X327561Y227838D02*
X327561Y216662D01*
X326319Y216662D02*
X328803Y216662D01*
X328803Y227838D02*
X326319Y227838D01*
X339697Y216662D02*
X342801Y216662D01*
X342912Y216664D01*
X343022Y216670D01*
X343133Y216680D01*
X343243Y216694D01*
X343352Y216711D01*
X343461Y216733D01*
X343569Y216758D01*
X343675Y216788D01*
X343781Y216821D01*
X343886Y216858D01*
X343989Y216898D01*
X344090Y216943D01*
X344190Y216990D01*
X344289Y217042D01*
X344385Y217097D01*
X344479Y217155D01*
X344571Y217216D01*
X344661Y217281D01*
X344749Y217349D01*
X344834Y217420D01*
X344916Y217494D01*
X344996Y217571D01*
X345073Y217651D01*
X345147Y217733D01*
X345218Y217818D01*
X345286Y217906D01*
X345351Y217996D01*
X345412Y218088D01*
X345470Y218182D01*
X345525Y218278D01*
X345577Y218377D01*
X345624Y218477D01*
X345669Y218578D01*
X345709Y218681D01*
X345746Y218786D01*
X345779Y218892D01*
X345809Y218998D01*
X345834Y219106D01*
X345856Y219215D01*
X345873Y219324D01*
X345887Y219434D01*
X345897Y219545D01*
X345903Y219655D01*
X345905Y219766D01*
X345903Y219877D01*
X345897Y219987D01*
X345887Y220098D01*
X345873Y220208D01*
X345856Y220317D01*
X345834Y220426D01*
X345809Y220534D01*
X345779Y220640D01*
X345746Y220746D01*
X345709Y220851D01*
X345669Y220954D01*
X345624Y221055D01*
X345577Y221155D01*
X345525Y221254D01*
X345470Y221350D01*
X345412Y221444D01*
X345351Y221536D01*
X345286Y221626D01*
X345218Y221714D01*
X345147Y221799D01*
X345073Y221881D01*
X344996Y221961D01*
X344916Y222038D01*
X344834Y222112D01*
X344749Y222183D01*
X344661Y222251D01*
X344571Y222316D01*
X344479Y222377D01*
X344385Y222435D01*
X344289Y222490D01*
X344190Y222542D01*
X344090Y222589D01*
X343989Y222634D01*
X343886Y222674D01*
X343781Y222711D01*
X343675Y222744D01*
X343569Y222774D01*
X343461Y222799D01*
X343352Y222821D01*
X343243Y222838D01*
X343133Y222852D01*
X343022Y222862D01*
X342912Y222868D01*
X342801Y222870D01*
X343422Y227838D02*
X339697Y227838D01*
X343422Y227838D02*
X343521Y227836D01*
X343619Y227830D01*
X343718Y227820D01*
X343815Y227807D01*
X343913Y227789D01*
X344009Y227768D01*
X344105Y227742D01*
X344199Y227713D01*
X344292Y227681D01*
X344384Y227644D01*
X344474Y227604D01*
X344563Y227560D01*
X344650Y227513D01*
X344735Y227463D01*
X344817Y227409D01*
X344898Y227352D01*
X344976Y227292D01*
X345052Y227228D01*
X345125Y227162D01*
X345196Y227093D01*
X345264Y227021D01*
X345328Y226946D01*
X345390Y226869D01*
X345449Y226790D01*
X345504Y226708D01*
X345557Y226624D01*
X345605Y226539D01*
X345651Y226451D01*
X345693Y226361D01*
X345731Y226270D01*
X345765Y226178D01*
X345796Y226084D01*
X345823Y225989D01*
X345847Y225893D01*
X345866Y225796D01*
X345882Y225699D01*
X345894Y225601D01*
X345902Y225502D01*
X345906Y225403D01*
X345906Y225305D01*
X345902Y225206D01*
X345894Y225107D01*
X345882Y225009D01*
X345866Y224912D01*
X345847Y224815D01*
X345823Y224719D01*
X345796Y224624D01*
X345765Y224530D01*
X345731Y224438D01*
X345693Y224347D01*
X345651Y224257D01*
X345605Y224169D01*
X345557Y224084D01*
X345504Y224000D01*
X345449Y223918D01*
X345390Y223839D01*
X345328Y223762D01*
X345264Y223687D01*
X345196Y223615D01*
X345125Y223546D01*
X345052Y223480D01*
X344976Y223416D01*
X344898Y223356D01*
X344817Y223299D01*
X344735Y223245D01*
X344650Y223195D01*
X344563Y223148D01*
X344474Y223104D01*
X344384Y223064D01*
X344292Y223027D01*
X344199Y222995D01*
X344105Y222966D01*
X344009Y222940D01*
X343913Y222919D01*
X343815Y222901D01*
X343718Y222888D01*
X343619Y222878D01*
X343521Y222872D01*
X343422Y222870D01*
X343422Y222871D02*
X340938Y222871D01*
X351127Y222250D02*
X351130Y222470D01*
X351137Y222690D01*
X351151Y222909D01*
X351169Y223128D01*
X351193Y223347D01*
X351221Y223565D01*
X351255Y223782D01*
X351294Y223998D01*
X351339Y224214D01*
X351388Y224428D01*
X351443Y224641D01*
X351502Y224853D01*
X351567Y225063D01*
X351637Y225271D01*
X351711Y225478D01*
X351791Y225683D01*
X351875Y225886D01*
X351964Y226087D01*
X352058Y226286D01*
X352091Y226375D01*
X352127Y226463D01*
X352167Y226549D01*
X352210Y226634D01*
X352257Y226716D01*
X352308Y226797D01*
X352361Y226875D01*
X352418Y226951D01*
X352478Y227025D01*
X352541Y227096D01*
X352606Y227165D01*
X352675Y227231D01*
X352746Y227293D01*
X352820Y227353D01*
X352896Y227410D01*
X352974Y227464D01*
X353055Y227514D01*
X353137Y227561D01*
X353222Y227604D01*
X353308Y227644D01*
X353396Y227681D01*
X353485Y227713D01*
X353575Y227742D01*
X353667Y227768D01*
X353759Y227789D01*
X353853Y227807D01*
X353947Y227820D01*
X354041Y227830D01*
X354136Y227836D01*
X354231Y227838D01*
X354326Y227836D01*
X354421Y227830D01*
X354515Y227820D01*
X354609Y227807D01*
X354703Y227789D01*
X354795Y227768D01*
X354887Y227742D01*
X354977Y227713D01*
X355066Y227681D01*
X355154Y227644D01*
X355240Y227604D01*
X355325Y227561D01*
X355407Y227514D01*
X355488Y227464D01*
X355566Y227410D01*
X355642Y227353D01*
X355716Y227293D01*
X355787Y227231D01*
X355856Y227165D01*
X355921Y227096D01*
X355984Y227025D01*
X356044Y226951D01*
X356101Y226875D01*
X356154Y226797D01*
X356205Y226716D01*
X356252Y226633D01*
X356295Y226549D01*
X356335Y226463D01*
X356371Y226375D01*
X356404Y226286D01*
X356405Y226286D02*
X356499Y226087D01*
X356588Y225886D01*
X356672Y225683D01*
X356752Y225478D01*
X356826Y225271D01*
X356896Y225063D01*
X356961Y224853D01*
X357020Y224641D01*
X357075Y224428D01*
X357124Y224214D01*
X357169Y223998D01*
X357208Y223782D01*
X357242Y223565D01*
X357270Y223347D01*
X357294Y223128D01*
X357312Y222909D01*
X357326Y222690D01*
X357333Y222470D01*
X357336Y222250D01*
X351127Y222250D02*
X351130Y222030D01*
X351137Y221810D01*
X351151Y221591D01*
X351169Y221372D01*
X351193Y221153D01*
X351221Y220935D01*
X351255Y220718D01*
X351294Y220502D01*
X351339Y220286D01*
X351388Y220072D01*
X351443Y219859D01*
X351502Y219648D01*
X351567Y219437D01*
X351637Y219229D01*
X351711Y219022D01*
X351791Y218817D01*
X351875Y218614D01*
X351964Y218413D01*
X352058Y218214D01*
X352091Y218125D01*
X352127Y218037D01*
X352167Y217951D01*
X352210Y217866D01*
X352257Y217784D01*
X352308Y217703D01*
X352361Y217625D01*
X352418Y217549D01*
X352478Y217475D01*
X352541Y217404D01*
X352606Y217335D01*
X352675Y217269D01*
X352746Y217207D01*
X352820Y217147D01*
X352896Y217090D01*
X352974Y217036D01*
X353055Y216986D01*
X353137Y216939D01*
X353222Y216896D01*
X353308Y216856D01*
X353396Y216819D01*
X353485Y216787D01*
X353575Y216758D01*
X353667Y216732D01*
X353759Y216711D01*
X353853Y216693D01*
X353947Y216680D01*
X354041Y216670D01*
X354136Y216664D01*
X354231Y216662D01*
X356405Y218214D02*
X356499Y218413D01*
X356588Y218614D01*
X356672Y218817D01*
X356752Y219022D01*
X356826Y219229D01*
X356896Y219437D01*
X356961Y219647D01*
X357020Y219859D01*
X357075Y220072D01*
X357124Y220286D01*
X357169Y220502D01*
X357208Y220718D01*
X357242Y220935D01*
X357270Y221153D01*
X357294Y221372D01*
X357312Y221591D01*
X357326Y221810D01*
X357333Y222030D01*
X357336Y222250D01*
X356404Y218214D02*
X356371Y218125D01*
X356335Y218037D01*
X356295Y217951D01*
X356252Y217866D01*
X356205Y217784D01*
X356154Y217703D01*
X356101Y217625D01*
X356044Y217549D01*
X355984Y217475D01*
X355921Y217404D01*
X355856Y217335D01*
X355787Y217269D01*
X355716Y217207D01*
X355642Y217147D01*
X355566Y217090D01*
X355488Y217036D01*
X355407Y216986D01*
X355325Y216939D01*
X355240Y216896D01*
X355154Y216856D01*
X355066Y216819D01*
X354977Y216787D01*
X354887Y216758D01*
X354795Y216732D01*
X354703Y216711D01*
X354609Y216693D01*
X354515Y216680D01*
X354421Y216670D01*
X354326Y216664D01*
X354231Y216662D01*
X351748Y219146D02*
X356715Y225354D01*
X362557Y225354D02*
X365661Y227838D01*
X365661Y216662D01*
X362557Y216662D02*
X368766Y216662D01*
D11*
X624600Y558100D02*
X661100Y558100D01*
X661100Y641100D01*
X641100Y661100D01*
X624600Y661100D01*
X594600Y558100D02*
X558100Y558100D01*
X558100Y641100D01*
X578100Y661100D01*
X594600Y661100D01*
X579600Y644600D02*
X579600Y634600D01*
X584600Y639600D02*
X574600Y639600D01*
D10*
X647046Y522662D02*
X649530Y522662D01*
X647046Y522662D02*
X646948Y522664D01*
X646851Y522670D01*
X646754Y522679D01*
X646657Y522693D01*
X646561Y522710D01*
X646466Y522731D01*
X646372Y522755D01*
X646278Y522784D01*
X646186Y522816D01*
X646095Y522851D01*
X646006Y522890D01*
X645918Y522933D01*
X645832Y522979D01*
X645748Y523028D01*
X645666Y523081D01*
X645586Y523136D01*
X645508Y523195D01*
X645433Y523257D01*
X645360Y523322D01*
X645290Y523390D01*
X645222Y523460D01*
X645157Y523533D01*
X645095Y523608D01*
X645036Y523686D01*
X644981Y523766D01*
X644928Y523848D01*
X644879Y523932D01*
X644833Y524018D01*
X644790Y524106D01*
X644751Y524195D01*
X644716Y524286D01*
X644684Y524378D01*
X644655Y524472D01*
X644631Y524566D01*
X644610Y524661D01*
X644593Y524757D01*
X644579Y524854D01*
X644570Y524951D01*
X644564Y525048D01*
X644562Y525146D01*
X644563Y525146D02*
X644563Y531354D01*
X644562Y531354D02*
X644564Y531452D01*
X644570Y531549D01*
X644579Y531646D01*
X644593Y531743D01*
X644610Y531839D01*
X644631Y531934D01*
X644655Y532028D01*
X644684Y532122D01*
X644716Y532214D01*
X644751Y532305D01*
X644790Y532394D01*
X644833Y532482D01*
X644879Y532568D01*
X644928Y532652D01*
X644981Y532734D01*
X645036Y532814D01*
X645095Y532892D01*
X645157Y532967D01*
X645222Y533040D01*
X645290Y533110D01*
X645360Y533178D01*
X645433Y533243D01*
X645508Y533305D01*
X645586Y533364D01*
X645666Y533419D01*
X645748Y533472D01*
X645832Y533521D01*
X645918Y533567D01*
X646006Y533610D01*
X646095Y533649D01*
X646186Y533684D01*
X646278Y533716D01*
X646372Y533745D01*
X646466Y533769D01*
X646561Y533790D01*
X646657Y533807D01*
X646754Y533821D01*
X646851Y533830D01*
X646948Y533836D01*
X647046Y533838D01*
X649530Y533838D01*
X654129Y531354D02*
X657234Y533838D01*
X657234Y522662D01*
X660338Y522662D02*
X654129Y522662D01*
D11*
X427100Y144700D02*
X411100Y144700D01*
X411100Y134700D02*
X427100Y134700D01*
X421100Y137700D02*
X421100Y141700D01*
D10*
X407162Y153162D02*
X407162Y164338D01*
X410266Y164338D01*
X410377Y164336D01*
X410487Y164330D01*
X410598Y164320D01*
X410708Y164306D01*
X410817Y164289D01*
X410926Y164267D01*
X411034Y164242D01*
X411140Y164212D01*
X411246Y164179D01*
X411351Y164142D01*
X411454Y164102D01*
X411555Y164057D01*
X411655Y164010D01*
X411754Y163958D01*
X411850Y163903D01*
X411944Y163845D01*
X412036Y163784D01*
X412126Y163719D01*
X412214Y163651D01*
X412299Y163580D01*
X412381Y163506D01*
X412461Y163429D01*
X412538Y163349D01*
X412612Y163267D01*
X412683Y163182D01*
X412751Y163094D01*
X412816Y163004D01*
X412877Y162912D01*
X412935Y162818D01*
X412990Y162722D01*
X413042Y162623D01*
X413089Y162523D01*
X413134Y162422D01*
X413174Y162319D01*
X413211Y162214D01*
X413244Y162108D01*
X413274Y162002D01*
X413299Y161894D01*
X413321Y161785D01*
X413338Y161676D01*
X413352Y161566D01*
X413362Y161455D01*
X413368Y161345D01*
X413370Y161234D01*
X413371Y161234D02*
X413371Y156266D01*
X413370Y156266D02*
X413368Y156155D01*
X413362Y156045D01*
X413352Y155934D01*
X413338Y155824D01*
X413321Y155715D01*
X413299Y155606D01*
X413274Y155498D01*
X413244Y155392D01*
X413211Y155286D01*
X413174Y155181D01*
X413134Y155078D01*
X413089Y154977D01*
X413042Y154877D01*
X412990Y154778D01*
X412935Y154682D01*
X412877Y154588D01*
X412816Y154496D01*
X412751Y154406D01*
X412683Y154318D01*
X412612Y154233D01*
X412538Y154151D01*
X412461Y154071D01*
X412381Y153994D01*
X412299Y153920D01*
X412214Y153849D01*
X412126Y153781D01*
X412036Y153716D01*
X411944Y153655D01*
X411850Y153597D01*
X411754Y153542D01*
X411655Y153490D01*
X411555Y153443D01*
X411454Y153398D01*
X411351Y153358D01*
X411246Y153321D01*
X411140Y153288D01*
X411034Y153258D01*
X410926Y153233D01*
X410817Y153211D01*
X410708Y153194D01*
X410598Y153180D01*
X410487Y153170D01*
X410377Y153164D01*
X410266Y153162D01*
X407162Y153162D01*
X418973Y161854D02*
X422077Y164338D01*
X422077Y153162D01*
X418973Y153162D02*
X425182Y153162D01*
D11*
X461900Y144700D02*
X477900Y144700D01*
X477900Y134700D02*
X461900Y134700D01*
X471900Y137700D02*
X471900Y141700D01*
D10*
X457962Y153162D02*
X457962Y164338D01*
X461066Y164338D01*
X461177Y164336D01*
X461287Y164330D01*
X461398Y164320D01*
X461508Y164306D01*
X461617Y164289D01*
X461726Y164267D01*
X461834Y164242D01*
X461940Y164212D01*
X462046Y164179D01*
X462151Y164142D01*
X462254Y164102D01*
X462355Y164057D01*
X462455Y164010D01*
X462554Y163958D01*
X462650Y163903D01*
X462744Y163845D01*
X462836Y163784D01*
X462926Y163719D01*
X463014Y163651D01*
X463099Y163580D01*
X463181Y163506D01*
X463261Y163429D01*
X463338Y163349D01*
X463412Y163267D01*
X463483Y163182D01*
X463551Y163094D01*
X463616Y163004D01*
X463677Y162912D01*
X463735Y162818D01*
X463790Y162722D01*
X463842Y162623D01*
X463889Y162523D01*
X463934Y162422D01*
X463974Y162319D01*
X464011Y162214D01*
X464044Y162108D01*
X464074Y162002D01*
X464099Y161894D01*
X464121Y161785D01*
X464138Y161676D01*
X464152Y161566D01*
X464162Y161455D01*
X464168Y161345D01*
X464170Y161234D01*
X464171Y161234D02*
X464171Y156266D01*
X464170Y156266D02*
X464168Y156155D01*
X464162Y156045D01*
X464152Y155934D01*
X464138Y155824D01*
X464121Y155715D01*
X464099Y155606D01*
X464074Y155498D01*
X464044Y155392D01*
X464011Y155286D01*
X463974Y155181D01*
X463934Y155078D01*
X463889Y154977D01*
X463842Y154877D01*
X463790Y154778D01*
X463735Y154682D01*
X463677Y154588D01*
X463616Y154496D01*
X463551Y154406D01*
X463483Y154318D01*
X463412Y154233D01*
X463338Y154151D01*
X463261Y154071D01*
X463181Y153994D01*
X463099Y153920D01*
X463014Y153849D01*
X462926Y153781D01*
X462836Y153716D01*
X462744Y153655D01*
X462650Y153597D01*
X462554Y153542D01*
X462455Y153490D01*
X462355Y153443D01*
X462254Y153398D01*
X462151Y153358D01*
X462046Y153321D01*
X461940Y153288D01*
X461834Y153258D01*
X461726Y153233D01*
X461617Y153211D01*
X461508Y153194D01*
X461398Y153180D01*
X461287Y153170D01*
X461177Y153164D01*
X461066Y153162D01*
X457962Y153162D01*
X473188Y164338D02*
X473292Y164336D01*
X473397Y164330D01*
X473501Y164320D01*
X473604Y164307D01*
X473707Y164289D01*
X473810Y164268D01*
X473911Y164243D01*
X474012Y164214D01*
X474111Y164181D01*
X474209Y164145D01*
X474305Y164105D01*
X474400Y164061D01*
X474494Y164014D01*
X474585Y163964D01*
X474674Y163910D01*
X474762Y163853D01*
X474847Y163792D01*
X474930Y163728D01*
X475010Y163662D01*
X475088Y163592D01*
X475164Y163520D01*
X475236Y163444D01*
X475306Y163366D01*
X475372Y163286D01*
X475436Y163203D01*
X475497Y163118D01*
X475554Y163030D01*
X475608Y162941D01*
X475658Y162850D01*
X475705Y162756D01*
X475749Y162661D01*
X475789Y162565D01*
X475825Y162467D01*
X475858Y162368D01*
X475887Y162267D01*
X475912Y162166D01*
X475933Y162063D01*
X475951Y161960D01*
X475964Y161857D01*
X475974Y161753D01*
X475980Y161648D01*
X475982Y161544D01*
X473188Y164339D02*
X473069Y164337D01*
X472951Y164331D01*
X472832Y164321D01*
X472714Y164308D01*
X472597Y164290D01*
X472480Y164268D01*
X472364Y164243D01*
X472249Y164214D01*
X472134Y164181D01*
X472021Y164144D01*
X471910Y164104D01*
X471799Y164060D01*
X471691Y164012D01*
X471584Y163961D01*
X471478Y163906D01*
X471375Y163847D01*
X471273Y163786D01*
X471174Y163721D01*
X471076Y163652D01*
X470982Y163581D01*
X470889Y163506D01*
X470799Y163429D01*
X470712Y163348D01*
X470627Y163265D01*
X470545Y163179D01*
X470466Y163090D01*
X470390Y162999D01*
X470317Y162905D01*
X470248Y162809D01*
X470181Y162710D01*
X470118Y162610D01*
X470058Y162507D01*
X470001Y162403D01*
X469949Y162296D01*
X469899Y162188D01*
X469853Y162079D01*
X469811Y161967D01*
X469773Y161855D01*
X475051Y159371D02*
X475126Y159445D01*
X475198Y159522D01*
X475268Y159601D01*
X475335Y159683D01*
X475399Y159767D01*
X475460Y159853D01*
X475518Y159941D01*
X475573Y160032D01*
X475625Y160124D01*
X475673Y160218D01*
X475718Y160313D01*
X475760Y160411D01*
X475798Y160509D01*
X475833Y160609D01*
X475864Y160710D01*
X475891Y160812D01*
X475915Y160915D01*
X475936Y161018D01*
X475952Y161123D01*
X475965Y161228D01*
X475975Y161333D01*
X475980Y161438D01*
X475982Y161544D01*
X475051Y159371D02*
X469773Y153162D01*
X475982Y153162D01*
D11*
X525400Y144700D02*
X541400Y144700D01*
X541400Y134700D02*
X525400Y134700D01*
X535400Y137700D02*
X535400Y141700D01*
D10*
X521462Y153162D02*
X521462Y164338D01*
X524566Y164338D01*
X524677Y164336D01*
X524787Y164330D01*
X524898Y164320D01*
X525008Y164306D01*
X525117Y164289D01*
X525226Y164267D01*
X525334Y164242D01*
X525440Y164212D01*
X525546Y164179D01*
X525651Y164142D01*
X525754Y164102D01*
X525855Y164057D01*
X525955Y164010D01*
X526054Y163958D01*
X526150Y163903D01*
X526244Y163845D01*
X526336Y163784D01*
X526426Y163719D01*
X526514Y163651D01*
X526599Y163580D01*
X526681Y163506D01*
X526761Y163429D01*
X526838Y163349D01*
X526912Y163267D01*
X526983Y163182D01*
X527051Y163094D01*
X527116Y163004D01*
X527177Y162912D01*
X527235Y162818D01*
X527290Y162722D01*
X527342Y162623D01*
X527389Y162523D01*
X527434Y162422D01*
X527474Y162319D01*
X527511Y162214D01*
X527544Y162108D01*
X527574Y162002D01*
X527599Y161894D01*
X527621Y161785D01*
X527638Y161676D01*
X527652Y161566D01*
X527662Y161455D01*
X527668Y161345D01*
X527670Y161234D01*
X527671Y161234D02*
X527671Y156266D01*
X527670Y156266D02*
X527668Y156155D01*
X527662Y156045D01*
X527652Y155934D01*
X527638Y155824D01*
X527621Y155715D01*
X527599Y155606D01*
X527574Y155498D01*
X527544Y155392D01*
X527511Y155286D01*
X527474Y155181D01*
X527434Y155078D01*
X527389Y154977D01*
X527342Y154877D01*
X527290Y154778D01*
X527235Y154682D01*
X527177Y154588D01*
X527116Y154496D01*
X527051Y154406D01*
X526983Y154318D01*
X526912Y154233D01*
X526838Y154151D01*
X526761Y154071D01*
X526681Y153994D01*
X526599Y153920D01*
X526514Y153849D01*
X526426Y153781D01*
X526336Y153716D01*
X526244Y153655D01*
X526150Y153597D01*
X526054Y153542D01*
X525955Y153490D01*
X525855Y153443D01*
X525754Y153398D01*
X525651Y153358D01*
X525546Y153321D01*
X525440Y153288D01*
X525334Y153258D01*
X525226Y153233D01*
X525117Y153211D01*
X525008Y153194D01*
X524898Y153180D01*
X524787Y153170D01*
X524677Y153164D01*
X524566Y153162D01*
X521462Y153162D01*
X533273Y153162D02*
X536377Y153162D01*
X536488Y153164D01*
X536598Y153170D01*
X536709Y153180D01*
X536819Y153194D01*
X536928Y153211D01*
X537037Y153233D01*
X537145Y153258D01*
X537251Y153288D01*
X537357Y153321D01*
X537462Y153358D01*
X537565Y153398D01*
X537666Y153443D01*
X537766Y153490D01*
X537865Y153542D01*
X537961Y153597D01*
X538055Y153655D01*
X538147Y153716D01*
X538237Y153781D01*
X538325Y153849D01*
X538410Y153920D01*
X538492Y153994D01*
X538572Y154071D01*
X538649Y154151D01*
X538723Y154233D01*
X538794Y154318D01*
X538862Y154406D01*
X538927Y154496D01*
X538988Y154588D01*
X539046Y154682D01*
X539101Y154778D01*
X539153Y154877D01*
X539200Y154977D01*
X539245Y155078D01*
X539285Y155181D01*
X539322Y155286D01*
X539355Y155392D01*
X539385Y155498D01*
X539410Y155606D01*
X539432Y155715D01*
X539449Y155824D01*
X539463Y155934D01*
X539473Y156045D01*
X539479Y156155D01*
X539481Y156266D01*
X539479Y156377D01*
X539473Y156487D01*
X539463Y156598D01*
X539449Y156708D01*
X539432Y156817D01*
X539410Y156926D01*
X539385Y157034D01*
X539355Y157140D01*
X539322Y157246D01*
X539285Y157351D01*
X539245Y157454D01*
X539200Y157555D01*
X539153Y157655D01*
X539101Y157754D01*
X539046Y157850D01*
X538988Y157944D01*
X538927Y158036D01*
X538862Y158126D01*
X538794Y158214D01*
X538723Y158299D01*
X538649Y158381D01*
X538572Y158461D01*
X538492Y158538D01*
X538410Y158612D01*
X538325Y158683D01*
X538237Y158751D01*
X538147Y158816D01*
X538055Y158877D01*
X537961Y158935D01*
X537865Y158990D01*
X537766Y159042D01*
X537666Y159089D01*
X537565Y159134D01*
X537462Y159174D01*
X537357Y159211D01*
X537251Y159244D01*
X537145Y159274D01*
X537037Y159299D01*
X536928Y159321D01*
X536819Y159338D01*
X536709Y159352D01*
X536598Y159362D01*
X536488Y159368D01*
X536377Y159370D01*
X536998Y164338D02*
X533273Y164338D01*
X536998Y164338D02*
X537097Y164336D01*
X537195Y164330D01*
X537294Y164320D01*
X537391Y164307D01*
X537489Y164289D01*
X537585Y164268D01*
X537681Y164242D01*
X537775Y164213D01*
X537868Y164181D01*
X537960Y164144D01*
X538050Y164104D01*
X538139Y164060D01*
X538226Y164013D01*
X538311Y163963D01*
X538393Y163909D01*
X538474Y163852D01*
X538552Y163792D01*
X538628Y163728D01*
X538701Y163662D01*
X538772Y163593D01*
X538840Y163521D01*
X538904Y163446D01*
X538966Y163369D01*
X539025Y163290D01*
X539080Y163208D01*
X539133Y163124D01*
X539181Y163039D01*
X539227Y162951D01*
X539269Y162861D01*
X539307Y162770D01*
X539341Y162678D01*
X539372Y162584D01*
X539399Y162489D01*
X539423Y162393D01*
X539442Y162296D01*
X539458Y162199D01*
X539470Y162101D01*
X539478Y162002D01*
X539482Y161903D01*
X539482Y161805D01*
X539478Y161706D01*
X539470Y161607D01*
X539458Y161509D01*
X539442Y161412D01*
X539423Y161315D01*
X539399Y161219D01*
X539372Y161124D01*
X539341Y161030D01*
X539307Y160938D01*
X539269Y160847D01*
X539227Y160757D01*
X539181Y160669D01*
X539133Y160584D01*
X539080Y160500D01*
X539025Y160418D01*
X538966Y160339D01*
X538904Y160262D01*
X538840Y160187D01*
X538772Y160115D01*
X538701Y160046D01*
X538628Y159980D01*
X538552Y159916D01*
X538474Y159856D01*
X538393Y159799D01*
X538311Y159745D01*
X538226Y159695D01*
X538139Y159648D01*
X538050Y159604D01*
X537960Y159564D01*
X537868Y159527D01*
X537775Y159495D01*
X537681Y159466D01*
X537585Y159440D01*
X537489Y159419D01*
X537391Y159401D01*
X537294Y159388D01*
X537195Y159378D01*
X537097Y159372D01*
X536998Y159370D01*
X536998Y159371D02*
X534515Y159371D01*
D12*
X455676Y345799D02*
X455674Y345938D01*
X455668Y346078D01*
X455658Y346216D01*
X455645Y346355D01*
X455627Y346493D01*
X455606Y346631D01*
X455581Y346768D01*
X455551Y346904D01*
X455519Y347040D01*
X455482Y347174D01*
X455441Y347307D01*
X455397Y347439D01*
X455349Y347570D01*
X455298Y347700D01*
X455243Y347828D01*
X455184Y347954D01*
X455122Y348079D01*
X455056Y348202D01*
X454987Y348323D01*
X454915Y348442D01*
X454839Y348559D01*
X454760Y348673D01*
X454678Y348786D01*
X454592Y348896D01*
X454504Y349004D01*
X454413Y349109D01*
X454318Y349211D01*
X454221Y349311D01*
X454121Y349408D01*
X454019Y349503D01*
X453914Y349594D01*
X453806Y349682D01*
X453696Y349768D01*
X453583Y349850D01*
X453469Y349929D01*
X453352Y350005D01*
X453233Y350077D01*
X453112Y350146D01*
X452989Y350212D01*
X452864Y350274D01*
X452738Y350333D01*
X452610Y350388D01*
X452480Y350439D01*
X452349Y350487D01*
X452217Y350531D01*
X452084Y350572D01*
X451950Y350609D01*
X451814Y350641D01*
X451678Y350671D01*
X451541Y350696D01*
X451403Y350717D01*
X451265Y350735D01*
X451126Y350748D01*
X450988Y350758D01*
X450848Y350764D01*
X450709Y350766D01*
X455676Y345799D02*
X455673Y345548D01*
X455664Y345297D01*
X455649Y345046D01*
X455628Y344796D01*
X455601Y344547D01*
X455568Y344298D01*
X455529Y344050D01*
X455484Y343803D01*
X455434Y343557D01*
X455377Y343312D01*
X455315Y343069D01*
X455246Y342827D01*
X455172Y342588D01*
X455093Y342349D01*
X455007Y342113D01*
X454916Y341879D01*
X454820Y341648D01*
X454718Y341418D01*
X454610Y341191D01*
X454497Y340967D01*
X454379Y340746D01*
X454256Y340527D01*
X454127Y340312D01*
X453993Y340099D01*
X453854Y339890D01*
X453710Y339684D01*
X453562Y339482D01*
X453408Y339283D01*
X453250Y339089D01*
X453087Y338897D01*
X452920Y338710D01*
X452748Y338527D01*
X452572Y338348D01*
X438291Y338970D02*
X438152Y338972D01*
X438012Y338978D01*
X437874Y338988D01*
X437735Y339001D01*
X437597Y339019D01*
X437459Y339040D01*
X437322Y339065D01*
X437186Y339095D01*
X437050Y339127D01*
X436916Y339164D01*
X436783Y339205D01*
X436651Y339249D01*
X436520Y339297D01*
X436390Y339348D01*
X436262Y339403D01*
X436136Y339462D01*
X436011Y339524D01*
X435888Y339590D01*
X435767Y339659D01*
X435648Y339731D01*
X435531Y339807D01*
X435417Y339886D01*
X435304Y339968D01*
X435194Y340054D01*
X435086Y340142D01*
X434981Y340233D01*
X434879Y340328D01*
X434779Y340425D01*
X434682Y340525D01*
X434587Y340627D01*
X434496Y340732D01*
X434408Y340840D01*
X434322Y340950D01*
X434240Y341063D01*
X434161Y341177D01*
X434085Y341294D01*
X434013Y341413D01*
X433944Y341534D01*
X433878Y341657D01*
X433816Y341782D01*
X433757Y341908D01*
X433702Y342036D01*
X433651Y342166D01*
X433603Y342297D01*
X433559Y342429D01*
X433518Y342562D01*
X433481Y342696D01*
X433449Y342832D01*
X433419Y342968D01*
X433394Y343105D01*
X433373Y343243D01*
X433355Y343381D01*
X433342Y343520D01*
X433332Y343658D01*
X433326Y343798D01*
X433324Y343937D01*
X433327Y344159D01*
X433335Y344381D01*
X433348Y344602D01*
X433366Y344824D01*
X433390Y345044D01*
X433419Y345264D01*
X433453Y345484D01*
X433493Y345702D01*
X433537Y345919D01*
X433587Y346136D01*
X433642Y346351D01*
X433702Y346564D01*
X433767Y346777D01*
X433838Y346987D01*
X433913Y347196D01*
X433993Y347403D01*
X434078Y347608D01*
X434168Y347811D01*
X434263Y348012D01*
X434362Y348210D01*
X434466Y348406D01*
X434575Y348599D01*
X434689Y348790D01*
X434806Y348978D01*
X434929Y349163D01*
X435056Y349346D01*
X435187Y349525D01*
X442637Y341453D02*
X442566Y341335D01*
X442491Y341219D01*
X442413Y341105D01*
X442332Y340994D01*
X442248Y340885D01*
X442161Y340778D01*
X442071Y340673D01*
X441979Y340571D01*
X441883Y340472D01*
X441785Y340375D01*
X441684Y340281D01*
X441581Y340189D01*
X441475Y340101D01*
X441367Y340015D01*
X441257Y339933D01*
X441144Y339853D01*
X441030Y339777D01*
X440913Y339704D01*
X440794Y339634D01*
X440673Y339567D01*
X440551Y339504D01*
X440427Y339443D01*
X440301Y339387D01*
X440174Y339334D01*
X440046Y339284D01*
X439916Y339238D01*
X439785Y339195D01*
X439652Y339156D01*
X439519Y339121D01*
X439385Y339089D01*
X439250Y339061D01*
X439114Y339037D01*
X438978Y339016D01*
X438841Y338999D01*
X438704Y338986D01*
X438567Y338977D01*
X438429Y338971D01*
X438291Y338969D01*
X446363Y348283D02*
X446434Y348401D01*
X446509Y348517D01*
X446587Y348631D01*
X446668Y348742D01*
X446752Y348851D01*
X446839Y348958D01*
X446929Y349063D01*
X447021Y349165D01*
X447117Y349264D01*
X447215Y349361D01*
X447316Y349455D01*
X447419Y349547D01*
X447525Y349635D01*
X447633Y349721D01*
X447743Y349803D01*
X447856Y349883D01*
X447970Y349959D01*
X448087Y350032D01*
X448206Y350102D01*
X448327Y350169D01*
X448449Y350232D01*
X448573Y350293D01*
X448699Y350349D01*
X448826Y350402D01*
X448954Y350452D01*
X449084Y350498D01*
X449215Y350541D01*
X449348Y350580D01*
X449481Y350615D01*
X449615Y350647D01*
X449750Y350675D01*
X449886Y350699D01*
X450022Y350720D01*
X450159Y350737D01*
X450296Y350750D01*
X450433Y350759D01*
X450571Y350765D01*
X450709Y350767D01*
X446363Y348283D02*
X442637Y341453D01*
X433324Y359464D02*
X455676Y359464D01*
X433324Y359464D02*
X433324Y365673D01*
X433326Y365829D01*
X433332Y365985D01*
X433342Y366141D01*
X433355Y366296D01*
X433373Y366451D01*
X433394Y366606D01*
X433420Y366760D01*
X433449Y366913D01*
X433482Y367065D01*
X433519Y367217D01*
X433560Y367368D01*
X433604Y367517D01*
X433652Y367666D01*
X433704Y367813D01*
X433760Y367959D01*
X433819Y368103D01*
X433882Y368246D01*
X433949Y368387D01*
X434019Y368527D01*
X434092Y368664D01*
X434169Y368800D01*
X434249Y368934D01*
X434333Y369066D01*
X434420Y369195D01*
X434510Y369323D01*
X434603Y369448D01*
X434700Y369570D01*
X434799Y369691D01*
X434901Y369808D01*
X435007Y369923D01*
X435115Y370036D01*
X435226Y370145D01*
X435340Y370252D01*
X435456Y370356D01*
X435575Y370457D01*
X435697Y370555D01*
X435821Y370650D01*
X435947Y370742D01*
X436075Y370830D01*
X436206Y370915D01*
X436339Y370997D01*
X436474Y371076D01*
X436610Y371151D01*
X436749Y371223D01*
X436889Y371291D01*
X437031Y371356D01*
X437175Y371417D01*
X437320Y371474D01*
X437467Y371528D01*
X437614Y371578D01*
X437763Y371624D01*
X437913Y371667D01*
X438065Y371706D01*
X438217Y371741D01*
X438370Y371772D01*
X438523Y371799D01*
X438677Y371823D01*
X438832Y371842D01*
X438988Y371858D01*
X439143Y371870D01*
X439299Y371878D01*
X439455Y371882D01*
X439611Y371882D01*
X439767Y371878D01*
X439923Y371870D01*
X440078Y371858D01*
X440234Y371842D01*
X440389Y371823D01*
X440543Y371799D01*
X440696Y371772D01*
X440849Y371741D01*
X441001Y371706D01*
X441153Y371667D01*
X441303Y371624D01*
X441452Y371578D01*
X441599Y371528D01*
X441746Y371474D01*
X441891Y371417D01*
X442035Y371356D01*
X442177Y371291D01*
X442317Y371223D01*
X442456Y371151D01*
X442592Y371076D01*
X442727Y370997D01*
X442860Y370915D01*
X442991Y370830D01*
X443119Y370742D01*
X443245Y370650D01*
X443369Y370555D01*
X443491Y370457D01*
X443610Y370356D01*
X443726Y370252D01*
X443840Y370145D01*
X443951Y370036D01*
X444059Y369923D01*
X444165Y369808D01*
X444267Y369691D01*
X444366Y369570D01*
X444463Y369448D01*
X444556Y369323D01*
X444646Y369195D01*
X444733Y369066D01*
X444817Y368934D01*
X444897Y368800D01*
X444974Y368664D01*
X445047Y368527D01*
X445117Y368387D01*
X445184Y368246D01*
X445247Y368103D01*
X445306Y367959D01*
X445362Y367813D01*
X445414Y367666D01*
X445462Y367517D01*
X445506Y367368D01*
X445547Y367217D01*
X445584Y367065D01*
X445617Y366913D01*
X445646Y366760D01*
X445672Y366606D01*
X445693Y366451D01*
X445711Y366296D01*
X445724Y366141D01*
X445734Y365985D01*
X445740Y365829D01*
X445742Y365673D01*
X445742Y359464D01*
X455676Y381443D02*
X433324Y381443D01*
X455676Y378960D02*
X455676Y383927D01*
X433324Y383927D02*
X433324Y378960D01*
X455676Y409827D02*
X455674Y409966D01*
X455668Y410106D01*
X455658Y410244D01*
X455645Y410383D01*
X455627Y410521D01*
X455606Y410659D01*
X455581Y410796D01*
X455551Y410932D01*
X455519Y411068D01*
X455482Y411202D01*
X455441Y411335D01*
X455397Y411467D01*
X455349Y411598D01*
X455298Y411728D01*
X455243Y411856D01*
X455184Y411982D01*
X455122Y412107D01*
X455056Y412230D01*
X454987Y412351D01*
X454915Y412470D01*
X454839Y412587D01*
X454760Y412701D01*
X454678Y412814D01*
X454592Y412924D01*
X454504Y413032D01*
X454413Y413137D01*
X454318Y413239D01*
X454221Y413339D01*
X454121Y413436D01*
X454019Y413531D01*
X453914Y413622D01*
X453806Y413710D01*
X453696Y413796D01*
X453583Y413878D01*
X453469Y413957D01*
X453352Y414033D01*
X453233Y414105D01*
X453112Y414174D01*
X452989Y414240D01*
X452864Y414302D01*
X452738Y414361D01*
X452610Y414416D01*
X452480Y414467D01*
X452349Y414515D01*
X452217Y414559D01*
X452084Y414600D01*
X451950Y414637D01*
X451814Y414669D01*
X451678Y414699D01*
X451541Y414724D01*
X451403Y414745D01*
X451265Y414763D01*
X451126Y414776D01*
X450988Y414786D01*
X450848Y414792D01*
X450709Y414794D01*
X455676Y409827D02*
X455673Y409576D01*
X455664Y409325D01*
X455649Y409074D01*
X455628Y408824D01*
X455601Y408575D01*
X455568Y408326D01*
X455529Y408078D01*
X455484Y407831D01*
X455434Y407585D01*
X455377Y407340D01*
X455315Y407097D01*
X455246Y406855D01*
X455172Y406616D01*
X455093Y406377D01*
X455007Y406141D01*
X454916Y405907D01*
X454820Y405676D01*
X454718Y405446D01*
X454610Y405219D01*
X454497Y404995D01*
X454379Y404774D01*
X454256Y404555D01*
X454127Y404340D01*
X453993Y404127D01*
X453854Y403918D01*
X453710Y403712D01*
X453562Y403510D01*
X453408Y403311D01*
X453250Y403117D01*
X453087Y402925D01*
X452920Y402738D01*
X452748Y402555D01*
X452572Y402376D01*
X438291Y402998D02*
X438152Y403000D01*
X438012Y403006D01*
X437874Y403016D01*
X437735Y403029D01*
X437597Y403047D01*
X437459Y403068D01*
X437322Y403093D01*
X437186Y403123D01*
X437050Y403155D01*
X436916Y403192D01*
X436783Y403233D01*
X436651Y403277D01*
X436520Y403325D01*
X436390Y403376D01*
X436262Y403431D01*
X436136Y403490D01*
X436011Y403552D01*
X435888Y403618D01*
X435767Y403687D01*
X435648Y403759D01*
X435531Y403835D01*
X435417Y403914D01*
X435304Y403996D01*
X435194Y404082D01*
X435086Y404170D01*
X434981Y404261D01*
X434879Y404356D01*
X434779Y404453D01*
X434682Y404553D01*
X434587Y404655D01*
X434496Y404760D01*
X434408Y404868D01*
X434322Y404978D01*
X434240Y405091D01*
X434161Y405205D01*
X434085Y405322D01*
X434013Y405441D01*
X433944Y405562D01*
X433878Y405685D01*
X433816Y405810D01*
X433757Y405936D01*
X433702Y406064D01*
X433651Y406194D01*
X433603Y406325D01*
X433559Y406457D01*
X433518Y406590D01*
X433481Y406724D01*
X433449Y406860D01*
X433419Y406996D01*
X433394Y407133D01*
X433373Y407271D01*
X433355Y407409D01*
X433342Y407548D01*
X433332Y407686D01*
X433326Y407826D01*
X433324Y407965D01*
X433327Y408187D01*
X433335Y408409D01*
X433348Y408630D01*
X433366Y408852D01*
X433390Y409072D01*
X433419Y409292D01*
X433453Y409512D01*
X433493Y409730D01*
X433537Y409947D01*
X433587Y410164D01*
X433642Y410379D01*
X433702Y410592D01*
X433767Y410805D01*
X433838Y411015D01*
X433913Y411224D01*
X433993Y411431D01*
X434078Y411636D01*
X434168Y411839D01*
X434263Y412040D01*
X434362Y412238D01*
X434466Y412434D01*
X434575Y412627D01*
X434689Y412818D01*
X434806Y413006D01*
X434929Y413191D01*
X435056Y413374D01*
X435187Y413553D01*
X442637Y405481D02*
X442566Y405363D01*
X442491Y405247D01*
X442413Y405133D01*
X442332Y405022D01*
X442248Y404913D01*
X442161Y404806D01*
X442071Y404701D01*
X441979Y404599D01*
X441883Y404500D01*
X441785Y404403D01*
X441684Y404309D01*
X441581Y404217D01*
X441475Y404129D01*
X441367Y404043D01*
X441257Y403961D01*
X441144Y403881D01*
X441030Y403805D01*
X440913Y403732D01*
X440794Y403662D01*
X440673Y403595D01*
X440551Y403532D01*
X440427Y403471D01*
X440301Y403415D01*
X440174Y403362D01*
X440046Y403312D01*
X439916Y403266D01*
X439785Y403223D01*
X439652Y403184D01*
X439519Y403149D01*
X439385Y403117D01*
X439250Y403089D01*
X439114Y403065D01*
X438978Y403044D01*
X438841Y403027D01*
X438704Y403014D01*
X438567Y403005D01*
X438429Y402999D01*
X438291Y402997D01*
X446363Y412311D02*
X446434Y412429D01*
X446509Y412545D01*
X446587Y412659D01*
X446668Y412770D01*
X446752Y412879D01*
X446839Y412986D01*
X446929Y413091D01*
X447021Y413193D01*
X447117Y413292D01*
X447215Y413389D01*
X447316Y413483D01*
X447419Y413575D01*
X447525Y413663D01*
X447633Y413749D01*
X447743Y413831D01*
X447856Y413911D01*
X447970Y413987D01*
X448087Y414060D01*
X448206Y414130D01*
X448327Y414197D01*
X448449Y414260D01*
X448573Y414321D01*
X448699Y414377D01*
X448826Y414430D01*
X448954Y414480D01*
X449084Y414526D01*
X449215Y414569D01*
X449348Y414608D01*
X449481Y414643D01*
X449615Y414675D01*
X449750Y414703D01*
X449886Y414727D01*
X450022Y414748D01*
X450159Y414765D01*
X450296Y414778D01*
X450433Y414787D01*
X450571Y414793D01*
X450709Y414795D01*
X446363Y412311D02*
X442637Y405481D01*
X455676Y426158D02*
X455676Y431125D01*
X455676Y426158D02*
X455674Y426039D01*
X455668Y425919D01*
X455659Y425800D01*
X455645Y425682D01*
X455628Y425563D01*
X455607Y425446D01*
X455583Y425329D01*
X455554Y425213D01*
X455522Y425098D01*
X455486Y424984D01*
X455447Y424872D01*
X455404Y424760D01*
X455357Y424650D01*
X455307Y424542D01*
X455254Y424435D01*
X455197Y424330D01*
X455136Y424227D01*
X455073Y424126D01*
X455006Y424027D01*
X454936Y423930D01*
X454863Y423836D01*
X454787Y423743D01*
X454709Y423654D01*
X454627Y423567D01*
X454542Y423482D01*
X454455Y423400D01*
X454366Y423322D01*
X454273Y423246D01*
X454179Y423173D01*
X454082Y423103D01*
X453983Y423036D01*
X453882Y422973D01*
X453779Y422912D01*
X453674Y422855D01*
X453567Y422802D01*
X453459Y422752D01*
X453349Y422705D01*
X453237Y422662D01*
X453125Y422623D01*
X453011Y422587D01*
X452896Y422555D01*
X452780Y422526D01*
X452663Y422502D01*
X452546Y422481D01*
X452427Y422464D01*
X452309Y422450D01*
X452190Y422441D01*
X452070Y422435D01*
X451951Y422433D01*
X451951Y422432D02*
X444500Y422432D01*
X444500Y422433D02*
X444381Y422435D01*
X444261Y422441D01*
X444142Y422450D01*
X444024Y422464D01*
X443905Y422481D01*
X443788Y422502D01*
X443671Y422526D01*
X443555Y422555D01*
X443440Y422587D01*
X443326Y422623D01*
X443214Y422662D01*
X443102Y422705D01*
X442992Y422752D01*
X442884Y422802D01*
X442777Y422855D01*
X442672Y422912D01*
X442569Y422973D01*
X442468Y423036D01*
X442369Y423103D01*
X442272Y423173D01*
X442178Y423246D01*
X442085Y423322D01*
X441996Y423400D01*
X441909Y423482D01*
X441824Y423567D01*
X441742Y423654D01*
X441664Y423743D01*
X441588Y423836D01*
X441515Y423930D01*
X441445Y424027D01*
X441378Y424126D01*
X441315Y424227D01*
X441254Y424330D01*
X441197Y424435D01*
X441144Y424542D01*
X441094Y424650D01*
X441047Y424760D01*
X441004Y424872D01*
X440965Y424984D01*
X440929Y425098D01*
X440897Y425213D01*
X440868Y425329D01*
X440844Y425446D01*
X440823Y425563D01*
X440806Y425682D01*
X440792Y425800D01*
X440783Y425919D01*
X440777Y426039D01*
X440775Y426158D01*
X440775Y431125D01*
X440775Y439215D02*
X455676Y439215D01*
X440775Y439215D02*
X440775Y446665D01*
X443258Y446665D01*
X455676Y456757D02*
X455676Y462966D01*
X455676Y456757D02*
X455674Y456638D01*
X455668Y456518D01*
X455659Y456399D01*
X455645Y456281D01*
X455628Y456162D01*
X455607Y456045D01*
X455583Y455928D01*
X455554Y455812D01*
X455522Y455697D01*
X455486Y455583D01*
X455447Y455471D01*
X455404Y455359D01*
X455357Y455249D01*
X455307Y455141D01*
X455254Y455034D01*
X455197Y454929D01*
X455136Y454826D01*
X455073Y454725D01*
X455006Y454626D01*
X454936Y454529D01*
X454863Y454435D01*
X454787Y454342D01*
X454709Y454253D01*
X454627Y454166D01*
X454542Y454081D01*
X454455Y453999D01*
X454366Y453921D01*
X454273Y453845D01*
X454179Y453772D01*
X454082Y453702D01*
X453983Y453635D01*
X453882Y453572D01*
X453779Y453511D01*
X453674Y453454D01*
X453567Y453401D01*
X453459Y453351D01*
X453349Y453304D01*
X453237Y453261D01*
X453125Y453222D01*
X453011Y453186D01*
X452896Y453154D01*
X452780Y453125D01*
X452663Y453101D01*
X452546Y453080D01*
X452427Y453063D01*
X452309Y453049D01*
X452190Y453040D01*
X452070Y453034D01*
X451951Y453032D01*
X451951Y453031D02*
X445742Y453031D01*
X445742Y453032D02*
X445603Y453034D01*
X445463Y453040D01*
X445325Y453050D01*
X445186Y453063D01*
X445048Y453081D01*
X444910Y453102D01*
X444773Y453127D01*
X444637Y453157D01*
X444501Y453189D01*
X444367Y453226D01*
X444234Y453267D01*
X444102Y453311D01*
X443971Y453359D01*
X443841Y453410D01*
X443713Y453465D01*
X443587Y453524D01*
X443462Y453586D01*
X443339Y453652D01*
X443218Y453721D01*
X443099Y453793D01*
X442982Y453869D01*
X442868Y453948D01*
X442755Y454030D01*
X442645Y454116D01*
X442537Y454204D01*
X442432Y454295D01*
X442330Y454390D01*
X442230Y454487D01*
X442133Y454587D01*
X442038Y454689D01*
X441947Y454794D01*
X441859Y454902D01*
X441773Y455012D01*
X441691Y455125D01*
X441612Y455239D01*
X441536Y455356D01*
X441464Y455475D01*
X441395Y455596D01*
X441329Y455719D01*
X441267Y455844D01*
X441208Y455970D01*
X441153Y456098D01*
X441102Y456228D01*
X441054Y456359D01*
X441010Y456491D01*
X440969Y456624D01*
X440932Y456758D01*
X440900Y456894D01*
X440870Y457030D01*
X440845Y457167D01*
X440824Y457305D01*
X440806Y457443D01*
X440793Y457582D01*
X440783Y457720D01*
X440777Y457860D01*
X440775Y457999D01*
X440777Y458138D01*
X440783Y458278D01*
X440793Y458416D01*
X440806Y458555D01*
X440824Y458693D01*
X440845Y458831D01*
X440870Y458968D01*
X440900Y459104D01*
X440932Y459240D01*
X440969Y459374D01*
X441010Y459507D01*
X441054Y459639D01*
X441102Y459770D01*
X441153Y459900D01*
X441208Y460028D01*
X441267Y460154D01*
X441329Y460279D01*
X441395Y460402D01*
X441464Y460523D01*
X441536Y460642D01*
X441612Y460759D01*
X441691Y460873D01*
X441773Y460986D01*
X441859Y461096D01*
X441947Y461204D01*
X442038Y461309D01*
X442133Y461411D01*
X442230Y461511D01*
X442330Y461608D01*
X442432Y461703D01*
X442537Y461794D01*
X442645Y461882D01*
X442755Y461968D01*
X442868Y462050D01*
X442982Y462129D01*
X443099Y462205D01*
X443218Y462277D01*
X443339Y462346D01*
X443462Y462412D01*
X443587Y462474D01*
X443713Y462533D01*
X443841Y462588D01*
X443971Y462639D01*
X444102Y462687D01*
X444234Y462731D01*
X444367Y462772D01*
X444501Y462809D01*
X444637Y462841D01*
X444773Y462871D01*
X444910Y462896D01*
X445048Y462917D01*
X445186Y462935D01*
X445325Y462948D01*
X445463Y462958D01*
X445603Y462964D01*
X445742Y462966D01*
X448225Y462966D01*
X448225Y453031D01*
X455676Y474852D02*
X455676Y481061D01*
X455676Y474852D02*
X455674Y474733D01*
X455668Y474613D01*
X455659Y474494D01*
X455645Y474376D01*
X455628Y474257D01*
X455607Y474140D01*
X455583Y474023D01*
X455554Y473907D01*
X455522Y473792D01*
X455486Y473678D01*
X455447Y473566D01*
X455404Y473454D01*
X455357Y473344D01*
X455307Y473236D01*
X455254Y473129D01*
X455197Y473024D01*
X455136Y472921D01*
X455073Y472820D01*
X455006Y472721D01*
X454936Y472624D01*
X454863Y472530D01*
X454787Y472437D01*
X454709Y472348D01*
X454627Y472261D01*
X454542Y472176D01*
X454455Y472094D01*
X454366Y472016D01*
X454273Y471940D01*
X454179Y471867D01*
X454082Y471797D01*
X453983Y471730D01*
X453882Y471667D01*
X453779Y471606D01*
X453674Y471549D01*
X453567Y471496D01*
X453459Y471446D01*
X453349Y471399D01*
X453237Y471356D01*
X453125Y471317D01*
X453011Y471281D01*
X452896Y471249D01*
X452780Y471220D01*
X452663Y471196D01*
X452546Y471175D01*
X452427Y471158D01*
X452309Y471144D01*
X452190Y471135D01*
X452070Y471129D01*
X451951Y471127D01*
X451951Y471126D02*
X445742Y471126D01*
X445603Y471128D01*
X445463Y471134D01*
X445325Y471144D01*
X445186Y471157D01*
X445048Y471175D01*
X444910Y471196D01*
X444773Y471221D01*
X444637Y471251D01*
X444501Y471283D01*
X444367Y471320D01*
X444234Y471361D01*
X444102Y471405D01*
X443971Y471453D01*
X443841Y471504D01*
X443713Y471559D01*
X443587Y471618D01*
X443462Y471680D01*
X443339Y471746D01*
X443218Y471815D01*
X443099Y471887D01*
X442982Y471963D01*
X442868Y472042D01*
X442755Y472124D01*
X442645Y472210D01*
X442537Y472298D01*
X442432Y472389D01*
X442330Y472484D01*
X442230Y472581D01*
X442133Y472681D01*
X442038Y472783D01*
X441947Y472888D01*
X441859Y472996D01*
X441773Y473106D01*
X441691Y473219D01*
X441612Y473333D01*
X441536Y473450D01*
X441464Y473569D01*
X441395Y473690D01*
X441329Y473813D01*
X441267Y473938D01*
X441208Y474064D01*
X441153Y474192D01*
X441102Y474322D01*
X441054Y474453D01*
X441010Y474585D01*
X440969Y474718D01*
X440932Y474852D01*
X440900Y474988D01*
X440870Y475124D01*
X440845Y475261D01*
X440824Y475399D01*
X440806Y475537D01*
X440793Y475676D01*
X440783Y475814D01*
X440777Y475954D01*
X440775Y476093D01*
X440777Y476232D01*
X440783Y476372D01*
X440793Y476510D01*
X440806Y476649D01*
X440824Y476787D01*
X440845Y476925D01*
X440870Y477062D01*
X440900Y477198D01*
X440932Y477334D01*
X440969Y477468D01*
X441010Y477601D01*
X441054Y477733D01*
X441102Y477864D01*
X441153Y477994D01*
X441208Y478122D01*
X441267Y478248D01*
X441329Y478373D01*
X441395Y478496D01*
X441464Y478617D01*
X441536Y478736D01*
X441612Y478853D01*
X441691Y478967D01*
X441773Y479080D01*
X441859Y479190D01*
X441947Y479298D01*
X442038Y479403D01*
X442133Y479505D01*
X442230Y479605D01*
X442330Y479702D01*
X442432Y479797D01*
X442537Y479888D01*
X442645Y479976D01*
X442755Y480062D01*
X442868Y480144D01*
X442982Y480223D01*
X443099Y480299D01*
X443218Y480371D01*
X443339Y480440D01*
X443462Y480506D01*
X443587Y480568D01*
X443713Y480627D01*
X443841Y480682D01*
X443971Y480733D01*
X444102Y480781D01*
X444234Y480825D01*
X444367Y480866D01*
X444501Y480903D01*
X444637Y480935D01*
X444773Y480965D01*
X444910Y480990D01*
X445048Y481011D01*
X445186Y481029D01*
X445325Y481042D01*
X445463Y481052D01*
X445603Y481058D01*
X445742Y481060D01*
X445742Y481061D02*
X448225Y481061D01*
X448225Y471126D01*
X440775Y489917D02*
X455676Y489917D01*
X440775Y489917D02*
X440775Y496126D01*
X440777Y496248D01*
X440783Y496370D01*
X440793Y496491D01*
X440807Y496612D01*
X440825Y496733D01*
X440847Y496853D01*
X440872Y496972D01*
X440902Y497090D01*
X440935Y497207D01*
X440973Y497323D01*
X441014Y497438D01*
X441059Y497551D01*
X441107Y497663D01*
X441159Y497774D01*
X441215Y497882D01*
X441274Y497988D01*
X441337Y498093D01*
X441403Y498195D01*
X441472Y498296D01*
X441545Y498394D01*
X441621Y498489D01*
X441699Y498582D01*
X441781Y498672D01*
X441866Y498760D01*
X441954Y498845D01*
X442044Y498927D01*
X442137Y499005D01*
X442232Y499081D01*
X442330Y499154D01*
X442430Y499223D01*
X442533Y499289D01*
X442637Y499352D01*
X442744Y499411D01*
X442852Y499467D01*
X442963Y499519D01*
X443074Y499567D01*
X443188Y499612D01*
X443303Y499653D01*
X443419Y499691D01*
X443536Y499724D01*
X443654Y499754D01*
X443773Y499779D01*
X443893Y499801D01*
X444014Y499819D01*
X444135Y499833D01*
X444256Y499843D01*
X444378Y499849D01*
X444500Y499851D01*
X455676Y499851D01*
X129484Y635000D02*
X122033Y635000D01*
X129484Y635000D02*
X135072Y639346D01*
X129484Y635000D02*
X135072Y630654D01*
X129484Y635000D02*
X127000Y641830D01*
X129484Y635000D02*
X127000Y628170D01*
D10*
X41204Y169587D02*
X32512Y169587D01*
X41204Y169588D02*
X41302Y169586D01*
X41399Y169580D01*
X41496Y169571D01*
X41593Y169557D01*
X41689Y169540D01*
X41784Y169519D01*
X41878Y169495D01*
X41972Y169466D01*
X42064Y169434D01*
X42155Y169399D01*
X42244Y169360D01*
X42332Y169317D01*
X42418Y169271D01*
X42502Y169222D01*
X42584Y169169D01*
X42664Y169114D01*
X42742Y169055D01*
X42817Y168993D01*
X42890Y168928D01*
X42960Y168860D01*
X43028Y168790D01*
X43093Y168717D01*
X43155Y168642D01*
X43214Y168564D01*
X43269Y168484D01*
X43322Y168402D01*
X43371Y168318D01*
X43417Y168232D01*
X43460Y168144D01*
X43499Y168055D01*
X43534Y167964D01*
X43566Y167872D01*
X43595Y167778D01*
X43619Y167684D01*
X43640Y167589D01*
X43657Y167493D01*
X43671Y167396D01*
X43680Y167299D01*
X43686Y167201D01*
X43688Y167104D01*
X43688Y165862D01*
X34996Y175131D02*
X32512Y178236D01*
X43688Y178236D01*
X43688Y181340D02*
X43688Y175131D01*
D11*
X812000Y139700D02*
X812000Y89700D01*
X812000Y49700D02*
X812000Y14700D01*
X712000Y14700D01*
X712000Y49700D01*
X712000Y89700D02*
X712000Y139700D01*
X722000Y139700D01*
X802000Y139700D02*
X812000Y139700D01*
X732000Y69700D02*
X732009Y70436D01*
X732036Y71172D01*
X732081Y71907D01*
X732144Y72641D01*
X732226Y73372D01*
X732325Y74102D01*
X732442Y74829D01*
X732576Y75553D01*
X732729Y76273D01*
X732899Y76989D01*
X733087Y77701D01*
X733292Y78409D01*
X733514Y79110D01*
X733754Y79807D01*
X734010Y80497D01*
X734284Y81181D01*
X734574Y81857D01*
X734880Y82527D01*
X735203Y83188D01*
X735542Y83842D01*
X735897Y84487D01*
X736268Y85123D01*
X736654Y85750D01*
X737056Y86367D01*
X737472Y86974D01*
X737904Y87571D01*
X738350Y88157D01*
X738810Y88732D01*
X739284Y89295D01*
X739771Y89847D01*
X740273Y90386D01*
X740787Y90913D01*
X741314Y91427D01*
X741853Y91929D01*
X742405Y92416D01*
X742968Y92890D01*
X743543Y93350D01*
X744129Y93796D01*
X744726Y94228D01*
X745333Y94644D01*
X745950Y95046D01*
X746577Y95432D01*
X747213Y95803D01*
X747858Y96158D01*
X748512Y96497D01*
X749173Y96820D01*
X749843Y97126D01*
X750519Y97416D01*
X751203Y97690D01*
X751893Y97946D01*
X752590Y98186D01*
X753291Y98408D01*
X753999Y98613D01*
X754711Y98801D01*
X755427Y98971D01*
X756147Y99124D01*
X756871Y99258D01*
X757598Y99375D01*
X758328Y99474D01*
X759059Y99556D01*
X759793Y99619D01*
X760528Y99664D01*
X761264Y99691D01*
X762000Y99700D01*
X762736Y99691D01*
X763472Y99664D01*
X764207Y99619D01*
X764941Y99556D01*
X765672Y99474D01*
X766402Y99375D01*
X767129Y99258D01*
X767853Y99124D01*
X768573Y98971D01*
X769289Y98801D01*
X770001Y98613D01*
X770709Y98408D01*
X771410Y98186D01*
X772107Y97946D01*
X772797Y97690D01*
X773481Y97416D01*
X774157Y97126D01*
X774827Y96820D01*
X775488Y96497D01*
X776142Y96158D01*
X776787Y95803D01*
X777423Y95432D01*
X778050Y95046D01*
X778667Y94644D01*
X779274Y94228D01*
X779871Y93796D01*
X780457Y93350D01*
X781032Y92890D01*
X781595Y92416D01*
X782147Y91929D01*
X782686Y91427D01*
X783213Y90913D01*
X783727Y90386D01*
X784229Y89847D01*
X784716Y89295D01*
X785190Y88732D01*
X785650Y88157D01*
X786096Y87571D01*
X786528Y86974D01*
X786944Y86367D01*
X787346Y85750D01*
X787732Y85123D01*
X788103Y84487D01*
X788458Y83842D01*
X788797Y83188D01*
X789120Y82527D01*
X789426Y81857D01*
X789716Y81181D01*
X789990Y80497D01*
X790246Y79807D01*
X790486Y79110D01*
X790708Y78409D01*
X790913Y77701D01*
X791101Y76989D01*
X791271Y76273D01*
X791424Y75553D01*
X791558Y74829D01*
X791675Y74102D01*
X791774Y73372D01*
X791856Y72641D01*
X791919Y71907D01*
X791964Y71172D01*
X791991Y70436D01*
X792000Y69700D01*
X791991Y68964D01*
X791964Y68228D01*
X791919Y67493D01*
X791856Y66759D01*
X791774Y66028D01*
X791675Y65298D01*
X791558Y64571D01*
X791424Y63847D01*
X791271Y63127D01*
X791101Y62411D01*
X790913Y61699D01*
X790708Y60991D01*
X790486Y60290D01*
X790246Y59593D01*
X789990Y58903D01*
X789716Y58219D01*
X789426Y57543D01*
X789120Y56873D01*
X788797Y56212D01*
X788458Y55558D01*
X788103Y54913D01*
X787732Y54277D01*
X787346Y53650D01*
X786944Y53033D01*
X786528Y52426D01*
X786096Y51829D01*
X785650Y51243D01*
X785190Y50668D01*
X784716Y50105D01*
X784229Y49553D01*
X783727Y49014D01*
X783213Y48487D01*
X782686Y47973D01*
X782147Y47471D01*
X781595Y46984D01*
X781032Y46510D01*
X780457Y46050D01*
X779871Y45604D01*
X779274Y45172D01*
X778667Y44756D01*
X778050Y44354D01*
X777423Y43968D01*
X776787Y43597D01*
X776142Y43242D01*
X775488Y42903D01*
X774827Y42580D01*
X774157Y42274D01*
X773481Y41984D01*
X772797Y41710D01*
X772107Y41454D01*
X771410Y41214D01*
X770709Y40992D01*
X770001Y40787D01*
X769289Y40599D01*
X768573Y40429D01*
X767853Y40276D01*
X767129Y40142D01*
X766402Y40025D01*
X765672Y39926D01*
X764941Y39844D01*
X764207Y39781D01*
X763472Y39736D01*
X762736Y39709D01*
X762000Y39700D01*
X761264Y39709D01*
X760528Y39736D01*
X759793Y39781D01*
X759059Y39844D01*
X758328Y39926D01*
X757598Y40025D01*
X756871Y40142D01*
X756147Y40276D01*
X755427Y40429D01*
X754711Y40599D01*
X753999Y40787D01*
X753291Y40992D01*
X752590Y41214D01*
X751893Y41454D01*
X751203Y41710D01*
X750519Y41984D01*
X749843Y42274D01*
X749173Y42580D01*
X748512Y42903D01*
X747858Y43242D01*
X747213Y43597D01*
X746577Y43968D01*
X745950Y44354D01*
X745333Y44756D01*
X744726Y45172D01*
X744129Y45604D01*
X743543Y46050D01*
X742968Y46510D01*
X742405Y46984D01*
X741853Y47471D01*
X741314Y47973D01*
X740787Y48487D01*
X740273Y49014D01*
X739771Y49553D01*
X739284Y50105D01*
X738810Y50668D01*
X738350Y51243D01*
X737904Y51829D01*
X737472Y52426D01*
X737056Y53033D01*
X736654Y53650D01*
X736268Y54277D01*
X735897Y54913D01*
X735542Y55558D01*
X735203Y56212D01*
X734880Y56873D01*
X734574Y57543D01*
X734284Y58219D01*
X734010Y58903D01*
X733754Y59593D01*
X733514Y60290D01*
X733292Y60991D01*
X733087Y61699D01*
X732899Y62411D01*
X732729Y63127D01*
X732576Y63847D01*
X732442Y64571D01*
X732325Y65298D01*
X732226Y66028D01*
X732144Y66759D01*
X732081Y67493D01*
X732036Y68228D01*
X732009Y68964D01*
X732000Y69700D01*
D10*
X743691Y153162D02*
X743691Y164338D01*
X746796Y164338D01*
X746907Y164336D01*
X747017Y164330D01*
X747128Y164320D01*
X747238Y164306D01*
X747347Y164289D01*
X747456Y164267D01*
X747564Y164242D01*
X747670Y164212D01*
X747776Y164179D01*
X747881Y164142D01*
X747984Y164102D01*
X748085Y164057D01*
X748185Y164010D01*
X748284Y163958D01*
X748380Y163903D01*
X748474Y163845D01*
X748566Y163784D01*
X748656Y163719D01*
X748744Y163651D01*
X748829Y163580D01*
X748911Y163506D01*
X748991Y163429D01*
X749068Y163349D01*
X749142Y163267D01*
X749213Y163182D01*
X749281Y163094D01*
X749346Y163004D01*
X749407Y162912D01*
X749465Y162818D01*
X749520Y162722D01*
X749572Y162623D01*
X749619Y162523D01*
X749664Y162422D01*
X749704Y162319D01*
X749741Y162214D01*
X749774Y162108D01*
X749804Y162002D01*
X749829Y161894D01*
X749851Y161785D01*
X749868Y161676D01*
X749882Y161566D01*
X749892Y161455D01*
X749898Y161345D01*
X749900Y161234D01*
X749898Y161123D01*
X749892Y161013D01*
X749882Y160902D01*
X749868Y160792D01*
X749851Y160683D01*
X749829Y160574D01*
X749804Y160466D01*
X749774Y160360D01*
X749741Y160254D01*
X749704Y160149D01*
X749664Y160046D01*
X749619Y159945D01*
X749572Y159845D01*
X749520Y159746D01*
X749465Y159650D01*
X749407Y159556D01*
X749346Y159464D01*
X749281Y159374D01*
X749213Y159286D01*
X749142Y159201D01*
X749068Y159119D01*
X748991Y159039D01*
X748911Y158962D01*
X748829Y158888D01*
X748744Y158817D01*
X748656Y158749D01*
X748566Y158684D01*
X748474Y158623D01*
X748380Y158565D01*
X748284Y158510D01*
X748185Y158458D01*
X748085Y158411D01*
X747984Y158366D01*
X747881Y158326D01*
X747776Y158289D01*
X747670Y158256D01*
X747564Y158226D01*
X747456Y158201D01*
X747347Y158179D01*
X747238Y158162D01*
X747128Y158148D01*
X747017Y158138D01*
X746907Y158132D01*
X746796Y158130D01*
X746796Y158129D02*
X743691Y158129D01*
X747416Y158129D02*
X749900Y153162D01*
X755029Y161854D02*
X758134Y164338D01*
X758134Y153162D01*
X761238Y153162D02*
X755029Y153162D01*
D11*
X215100Y152400D02*
X215100Y102400D01*
X215100Y62400D02*
X215100Y27400D01*
X115100Y27400D01*
X115100Y62400D01*
X115100Y102400D02*
X115100Y152400D01*
X125100Y152400D01*
X205100Y152400D02*
X215100Y152400D01*
X135100Y82400D02*
X135109Y83136D01*
X135136Y83872D01*
X135181Y84607D01*
X135244Y85341D01*
X135326Y86072D01*
X135425Y86802D01*
X135542Y87529D01*
X135676Y88253D01*
X135829Y88973D01*
X135999Y89689D01*
X136187Y90401D01*
X136392Y91109D01*
X136614Y91810D01*
X136854Y92507D01*
X137110Y93197D01*
X137384Y93881D01*
X137674Y94557D01*
X137980Y95227D01*
X138303Y95888D01*
X138642Y96542D01*
X138997Y97187D01*
X139368Y97823D01*
X139754Y98450D01*
X140156Y99067D01*
X140572Y99674D01*
X141004Y100271D01*
X141450Y100857D01*
X141910Y101432D01*
X142384Y101995D01*
X142871Y102547D01*
X143373Y103086D01*
X143887Y103613D01*
X144414Y104127D01*
X144953Y104629D01*
X145505Y105116D01*
X146068Y105590D01*
X146643Y106050D01*
X147229Y106496D01*
X147826Y106928D01*
X148433Y107344D01*
X149050Y107746D01*
X149677Y108132D01*
X150313Y108503D01*
X150958Y108858D01*
X151612Y109197D01*
X152273Y109520D01*
X152943Y109826D01*
X153619Y110116D01*
X154303Y110390D01*
X154993Y110646D01*
X155690Y110886D01*
X156391Y111108D01*
X157099Y111313D01*
X157811Y111501D01*
X158527Y111671D01*
X159247Y111824D01*
X159971Y111958D01*
X160698Y112075D01*
X161428Y112174D01*
X162159Y112256D01*
X162893Y112319D01*
X163628Y112364D01*
X164364Y112391D01*
X165100Y112400D01*
X165836Y112391D01*
X166572Y112364D01*
X167307Y112319D01*
X168041Y112256D01*
X168772Y112174D01*
X169502Y112075D01*
X170229Y111958D01*
X170953Y111824D01*
X171673Y111671D01*
X172389Y111501D01*
X173101Y111313D01*
X173809Y111108D01*
X174510Y110886D01*
X175207Y110646D01*
X175897Y110390D01*
X176581Y110116D01*
X177257Y109826D01*
X177927Y109520D01*
X178588Y109197D01*
X179242Y108858D01*
X179887Y108503D01*
X180523Y108132D01*
X181150Y107746D01*
X181767Y107344D01*
X182374Y106928D01*
X182971Y106496D01*
X183557Y106050D01*
X184132Y105590D01*
X184695Y105116D01*
X185247Y104629D01*
X185786Y104127D01*
X186313Y103613D01*
X186827Y103086D01*
X187329Y102547D01*
X187816Y101995D01*
X188290Y101432D01*
X188750Y100857D01*
X189196Y100271D01*
X189628Y99674D01*
X190044Y99067D01*
X190446Y98450D01*
X190832Y97823D01*
X191203Y97187D01*
X191558Y96542D01*
X191897Y95888D01*
X192220Y95227D01*
X192526Y94557D01*
X192816Y93881D01*
X193090Y93197D01*
X193346Y92507D01*
X193586Y91810D01*
X193808Y91109D01*
X194013Y90401D01*
X194201Y89689D01*
X194371Y88973D01*
X194524Y88253D01*
X194658Y87529D01*
X194775Y86802D01*
X194874Y86072D01*
X194956Y85341D01*
X195019Y84607D01*
X195064Y83872D01*
X195091Y83136D01*
X195100Y82400D01*
X195091Y81664D01*
X195064Y80928D01*
X195019Y80193D01*
X194956Y79459D01*
X194874Y78728D01*
X194775Y77998D01*
X194658Y77271D01*
X194524Y76547D01*
X194371Y75827D01*
X194201Y75111D01*
X194013Y74399D01*
X193808Y73691D01*
X193586Y72990D01*
X193346Y72293D01*
X193090Y71603D01*
X192816Y70919D01*
X192526Y70243D01*
X192220Y69573D01*
X191897Y68912D01*
X191558Y68258D01*
X191203Y67613D01*
X190832Y66977D01*
X190446Y66350D01*
X190044Y65733D01*
X189628Y65126D01*
X189196Y64529D01*
X188750Y63943D01*
X188290Y63368D01*
X187816Y62805D01*
X187329Y62253D01*
X186827Y61714D01*
X186313Y61187D01*
X185786Y60673D01*
X185247Y60171D01*
X184695Y59684D01*
X184132Y59210D01*
X183557Y58750D01*
X182971Y58304D01*
X182374Y57872D01*
X181767Y57456D01*
X181150Y57054D01*
X180523Y56668D01*
X179887Y56297D01*
X179242Y55942D01*
X178588Y55603D01*
X177927Y55280D01*
X177257Y54974D01*
X176581Y54684D01*
X175897Y54410D01*
X175207Y54154D01*
X174510Y53914D01*
X173809Y53692D01*
X173101Y53487D01*
X172389Y53299D01*
X171673Y53129D01*
X170953Y52976D01*
X170229Y52842D01*
X169502Y52725D01*
X168772Y52626D01*
X168041Y52544D01*
X167307Y52481D01*
X166572Y52436D01*
X165836Y52409D01*
X165100Y52400D01*
X164364Y52409D01*
X163628Y52436D01*
X162893Y52481D01*
X162159Y52544D01*
X161428Y52626D01*
X160698Y52725D01*
X159971Y52842D01*
X159247Y52976D01*
X158527Y53129D01*
X157811Y53299D01*
X157099Y53487D01*
X156391Y53692D01*
X155690Y53914D01*
X154993Y54154D01*
X154303Y54410D01*
X153619Y54684D01*
X152943Y54974D01*
X152273Y55280D01*
X151612Y55603D01*
X150958Y55942D01*
X150313Y56297D01*
X149677Y56668D01*
X149050Y57054D01*
X148433Y57456D01*
X147826Y57872D01*
X147229Y58304D01*
X146643Y58750D01*
X146068Y59210D01*
X145505Y59684D01*
X144953Y60171D01*
X144414Y60673D01*
X143887Y61187D01*
X143373Y61714D01*
X142871Y62253D01*
X142384Y62805D01*
X141910Y63368D01*
X141450Y63943D01*
X141004Y64529D01*
X140572Y65126D01*
X140156Y65733D01*
X139754Y66350D01*
X139368Y66977D01*
X138997Y67613D01*
X138642Y68258D01*
X138303Y68912D01*
X137980Y69573D01*
X137674Y70243D01*
X137384Y70919D01*
X137110Y71603D01*
X136854Y72293D01*
X136614Y72990D01*
X136392Y73691D01*
X136187Y74399D01*
X135999Y75111D01*
X135829Y75827D01*
X135676Y76547D01*
X135542Y77271D01*
X135425Y77998D01*
X135326Y78728D01*
X135244Y79459D01*
X135181Y80193D01*
X135136Y80928D01*
X135109Y81664D01*
X135100Y82400D01*
D10*
X146791Y165862D02*
X146791Y177038D01*
X149896Y177038D01*
X150007Y177036D01*
X150117Y177030D01*
X150228Y177020D01*
X150338Y177006D01*
X150447Y176989D01*
X150556Y176967D01*
X150664Y176942D01*
X150770Y176912D01*
X150876Y176879D01*
X150981Y176842D01*
X151084Y176802D01*
X151185Y176757D01*
X151285Y176710D01*
X151384Y176658D01*
X151480Y176603D01*
X151574Y176545D01*
X151666Y176484D01*
X151756Y176419D01*
X151844Y176351D01*
X151929Y176280D01*
X152011Y176206D01*
X152091Y176129D01*
X152168Y176049D01*
X152242Y175967D01*
X152313Y175882D01*
X152381Y175794D01*
X152446Y175704D01*
X152507Y175612D01*
X152565Y175518D01*
X152620Y175422D01*
X152672Y175323D01*
X152719Y175223D01*
X152764Y175122D01*
X152804Y175019D01*
X152841Y174914D01*
X152874Y174808D01*
X152904Y174702D01*
X152929Y174594D01*
X152951Y174485D01*
X152968Y174376D01*
X152982Y174266D01*
X152992Y174155D01*
X152998Y174045D01*
X153000Y173934D01*
X152998Y173823D01*
X152992Y173713D01*
X152982Y173602D01*
X152968Y173492D01*
X152951Y173383D01*
X152929Y173274D01*
X152904Y173166D01*
X152874Y173060D01*
X152841Y172954D01*
X152804Y172849D01*
X152764Y172746D01*
X152719Y172645D01*
X152672Y172545D01*
X152620Y172446D01*
X152565Y172350D01*
X152507Y172256D01*
X152446Y172164D01*
X152381Y172074D01*
X152313Y171986D01*
X152242Y171901D01*
X152168Y171819D01*
X152091Y171739D01*
X152011Y171662D01*
X151929Y171588D01*
X151844Y171517D01*
X151756Y171449D01*
X151666Y171384D01*
X151574Y171323D01*
X151480Y171265D01*
X151384Y171210D01*
X151285Y171158D01*
X151185Y171111D01*
X151084Y171066D01*
X150981Y171026D01*
X150876Y170989D01*
X150770Y170956D01*
X150664Y170926D01*
X150556Y170901D01*
X150447Y170879D01*
X150338Y170862D01*
X150228Y170848D01*
X150117Y170838D01*
X150007Y170832D01*
X149896Y170830D01*
X149896Y170829D02*
X146791Y170829D01*
X150516Y170829D02*
X153000Y165862D01*
X161544Y177038D02*
X161648Y177036D01*
X161753Y177030D01*
X161857Y177020D01*
X161960Y177007D01*
X162063Y176989D01*
X162166Y176968D01*
X162267Y176943D01*
X162368Y176914D01*
X162467Y176881D01*
X162565Y176845D01*
X162661Y176805D01*
X162756Y176761D01*
X162850Y176714D01*
X162941Y176664D01*
X163030Y176610D01*
X163118Y176553D01*
X163203Y176492D01*
X163286Y176428D01*
X163366Y176362D01*
X163444Y176292D01*
X163520Y176220D01*
X163592Y176144D01*
X163662Y176066D01*
X163728Y175986D01*
X163792Y175903D01*
X163853Y175818D01*
X163910Y175730D01*
X163964Y175641D01*
X164014Y175550D01*
X164061Y175456D01*
X164105Y175361D01*
X164145Y175265D01*
X164181Y175167D01*
X164214Y175068D01*
X164243Y174967D01*
X164268Y174866D01*
X164289Y174763D01*
X164307Y174660D01*
X164320Y174557D01*
X164330Y174453D01*
X164336Y174348D01*
X164338Y174244D01*
X161544Y177039D02*
X161425Y177037D01*
X161307Y177031D01*
X161188Y177021D01*
X161070Y177008D01*
X160953Y176990D01*
X160836Y176968D01*
X160720Y176943D01*
X160605Y176914D01*
X160490Y176881D01*
X160377Y176844D01*
X160266Y176804D01*
X160155Y176760D01*
X160047Y176712D01*
X159940Y176661D01*
X159834Y176606D01*
X159731Y176547D01*
X159629Y176486D01*
X159530Y176421D01*
X159432Y176352D01*
X159338Y176281D01*
X159245Y176206D01*
X159155Y176129D01*
X159068Y176048D01*
X158983Y175965D01*
X158901Y175879D01*
X158822Y175790D01*
X158746Y175699D01*
X158673Y175605D01*
X158604Y175509D01*
X158537Y175410D01*
X158474Y175310D01*
X158414Y175207D01*
X158357Y175103D01*
X158305Y174996D01*
X158255Y174888D01*
X158209Y174779D01*
X158167Y174667D01*
X158129Y174555D01*
X163407Y172071D02*
X163482Y172145D01*
X163554Y172222D01*
X163624Y172301D01*
X163691Y172383D01*
X163755Y172467D01*
X163816Y172553D01*
X163874Y172641D01*
X163929Y172732D01*
X163981Y172824D01*
X164029Y172918D01*
X164074Y173013D01*
X164116Y173111D01*
X164154Y173209D01*
X164189Y173309D01*
X164220Y173410D01*
X164247Y173512D01*
X164271Y173615D01*
X164292Y173718D01*
X164308Y173823D01*
X164321Y173928D01*
X164331Y174033D01*
X164336Y174138D01*
X164338Y174244D01*
X163407Y172071D02*
X158129Y165862D01*
X164338Y165862D01*
D11*
X452120Y76200D02*
X462280Y76200D01*
D10*
X456438Y26162D02*
X445262Y26162D01*
X445262Y29266D01*
X445264Y29377D01*
X445270Y29487D01*
X445280Y29598D01*
X445294Y29708D01*
X445311Y29817D01*
X445333Y29926D01*
X445358Y30034D01*
X445388Y30140D01*
X445421Y30246D01*
X445458Y30351D01*
X445498Y30454D01*
X445543Y30555D01*
X445590Y30655D01*
X445642Y30754D01*
X445697Y30850D01*
X445755Y30944D01*
X445816Y31036D01*
X445881Y31126D01*
X445949Y31214D01*
X446020Y31299D01*
X446094Y31381D01*
X446171Y31461D01*
X446251Y31538D01*
X446333Y31612D01*
X446418Y31683D01*
X446506Y31751D01*
X446596Y31816D01*
X446688Y31877D01*
X446782Y31935D01*
X446878Y31990D01*
X446977Y32042D01*
X447077Y32089D01*
X447178Y32134D01*
X447281Y32174D01*
X447386Y32211D01*
X447492Y32244D01*
X447598Y32274D01*
X447706Y32299D01*
X447815Y32321D01*
X447924Y32338D01*
X448034Y32352D01*
X448145Y32362D01*
X448255Y32368D01*
X448366Y32370D01*
X448477Y32368D01*
X448587Y32362D01*
X448698Y32352D01*
X448808Y32338D01*
X448917Y32321D01*
X449026Y32299D01*
X449134Y32274D01*
X449240Y32244D01*
X449346Y32211D01*
X449451Y32174D01*
X449554Y32134D01*
X449655Y32089D01*
X449755Y32042D01*
X449854Y31990D01*
X449950Y31935D01*
X450044Y31877D01*
X450136Y31816D01*
X450226Y31751D01*
X450314Y31683D01*
X450399Y31612D01*
X450481Y31538D01*
X450561Y31461D01*
X450638Y31381D01*
X450712Y31299D01*
X450783Y31214D01*
X450851Y31126D01*
X450916Y31036D01*
X450977Y30944D01*
X451035Y30850D01*
X451090Y30754D01*
X451142Y30655D01*
X451189Y30555D01*
X451234Y30454D01*
X451274Y30351D01*
X451311Y30246D01*
X451344Y30140D01*
X451374Y30034D01*
X451399Y29926D01*
X451421Y29817D01*
X451438Y29708D01*
X451452Y29598D01*
X451462Y29487D01*
X451468Y29377D01*
X451470Y29266D01*
X451471Y29266D02*
X451471Y26162D01*
X451471Y29887D02*
X456438Y32371D01*
X456438Y37500D02*
X456438Y40604D01*
X456436Y40715D01*
X456430Y40825D01*
X456420Y40936D01*
X456406Y41046D01*
X456389Y41155D01*
X456367Y41264D01*
X456342Y41372D01*
X456312Y41478D01*
X456279Y41584D01*
X456242Y41689D01*
X456202Y41792D01*
X456157Y41893D01*
X456110Y41993D01*
X456058Y42092D01*
X456003Y42188D01*
X455945Y42282D01*
X455884Y42374D01*
X455819Y42464D01*
X455751Y42552D01*
X455680Y42637D01*
X455606Y42719D01*
X455529Y42799D01*
X455449Y42876D01*
X455367Y42950D01*
X455282Y43021D01*
X455194Y43089D01*
X455104Y43154D01*
X455012Y43215D01*
X454918Y43273D01*
X454822Y43328D01*
X454723Y43380D01*
X454623Y43427D01*
X454522Y43472D01*
X454419Y43512D01*
X454314Y43549D01*
X454208Y43582D01*
X454102Y43612D01*
X453994Y43637D01*
X453885Y43659D01*
X453776Y43676D01*
X453666Y43690D01*
X453555Y43700D01*
X453445Y43706D01*
X453334Y43708D01*
X453223Y43706D01*
X453113Y43700D01*
X453002Y43690D01*
X452892Y43676D01*
X452783Y43659D01*
X452674Y43637D01*
X452566Y43612D01*
X452460Y43582D01*
X452354Y43549D01*
X452249Y43512D01*
X452146Y43472D01*
X452045Y43427D01*
X451945Y43380D01*
X451846Y43328D01*
X451750Y43273D01*
X451656Y43215D01*
X451564Y43154D01*
X451474Y43089D01*
X451386Y43021D01*
X451301Y42950D01*
X451219Y42876D01*
X451139Y42799D01*
X451062Y42719D01*
X450988Y42637D01*
X450917Y42552D01*
X450849Y42464D01*
X450784Y42374D01*
X450723Y42282D01*
X450665Y42188D01*
X450610Y42092D01*
X450558Y41993D01*
X450511Y41893D01*
X450466Y41792D01*
X450426Y41689D01*
X450389Y41584D01*
X450356Y41478D01*
X450326Y41372D01*
X450301Y41264D01*
X450279Y41155D01*
X450262Y41046D01*
X450248Y40936D01*
X450238Y40825D01*
X450232Y40715D01*
X450230Y40604D01*
X445262Y41225D02*
X445262Y37500D01*
X445262Y41225D02*
X445264Y41324D01*
X445270Y41422D01*
X445280Y41521D01*
X445293Y41618D01*
X445311Y41716D01*
X445332Y41812D01*
X445358Y41908D01*
X445387Y42002D01*
X445419Y42095D01*
X445456Y42187D01*
X445496Y42277D01*
X445540Y42366D01*
X445587Y42453D01*
X445637Y42538D01*
X445691Y42620D01*
X445748Y42701D01*
X445808Y42779D01*
X445872Y42855D01*
X445938Y42928D01*
X446007Y42999D01*
X446079Y43067D01*
X446154Y43131D01*
X446231Y43193D01*
X446310Y43252D01*
X446392Y43307D01*
X446476Y43360D01*
X446561Y43408D01*
X446649Y43454D01*
X446739Y43496D01*
X446830Y43534D01*
X446922Y43568D01*
X447016Y43599D01*
X447111Y43626D01*
X447207Y43650D01*
X447304Y43669D01*
X447401Y43685D01*
X447499Y43697D01*
X447598Y43705D01*
X447697Y43709D01*
X447795Y43709D01*
X447894Y43705D01*
X447993Y43697D01*
X448091Y43685D01*
X448188Y43669D01*
X448285Y43650D01*
X448381Y43626D01*
X448476Y43599D01*
X448570Y43568D01*
X448662Y43534D01*
X448753Y43496D01*
X448843Y43454D01*
X448931Y43408D01*
X449016Y43360D01*
X449100Y43307D01*
X449182Y43252D01*
X449261Y43193D01*
X449338Y43131D01*
X449413Y43067D01*
X449485Y42999D01*
X449554Y42928D01*
X449620Y42855D01*
X449684Y42779D01*
X449744Y42701D01*
X449801Y42620D01*
X449855Y42538D01*
X449905Y42453D01*
X449952Y42366D01*
X449996Y42277D01*
X450036Y42187D01*
X450073Y42095D01*
X450105Y42002D01*
X450134Y41908D01*
X450160Y41812D01*
X450181Y41716D01*
X450199Y41618D01*
X450212Y41521D01*
X450222Y41422D01*
X450228Y41324D01*
X450230Y41225D01*
X450229Y41225D02*
X450229Y38742D01*
D11*
X490220Y76200D02*
X500380Y76200D01*
D10*
X494538Y26162D02*
X483362Y26162D01*
X483362Y29266D01*
X483364Y29377D01*
X483370Y29487D01*
X483380Y29598D01*
X483394Y29708D01*
X483411Y29817D01*
X483433Y29926D01*
X483458Y30034D01*
X483488Y30140D01*
X483521Y30246D01*
X483558Y30351D01*
X483598Y30454D01*
X483643Y30555D01*
X483690Y30655D01*
X483742Y30754D01*
X483797Y30850D01*
X483855Y30944D01*
X483916Y31036D01*
X483981Y31126D01*
X484049Y31214D01*
X484120Y31299D01*
X484194Y31381D01*
X484271Y31461D01*
X484351Y31538D01*
X484433Y31612D01*
X484518Y31683D01*
X484606Y31751D01*
X484696Y31816D01*
X484788Y31877D01*
X484882Y31935D01*
X484978Y31990D01*
X485077Y32042D01*
X485177Y32089D01*
X485278Y32134D01*
X485381Y32174D01*
X485486Y32211D01*
X485592Y32244D01*
X485698Y32274D01*
X485806Y32299D01*
X485915Y32321D01*
X486024Y32338D01*
X486134Y32352D01*
X486245Y32362D01*
X486355Y32368D01*
X486466Y32370D01*
X486577Y32368D01*
X486687Y32362D01*
X486798Y32352D01*
X486908Y32338D01*
X487017Y32321D01*
X487126Y32299D01*
X487234Y32274D01*
X487340Y32244D01*
X487446Y32211D01*
X487551Y32174D01*
X487654Y32134D01*
X487755Y32089D01*
X487855Y32042D01*
X487954Y31990D01*
X488050Y31935D01*
X488144Y31877D01*
X488236Y31816D01*
X488326Y31751D01*
X488414Y31683D01*
X488499Y31612D01*
X488581Y31538D01*
X488661Y31461D01*
X488738Y31381D01*
X488812Y31299D01*
X488883Y31214D01*
X488951Y31126D01*
X489016Y31036D01*
X489077Y30944D01*
X489135Y30850D01*
X489190Y30754D01*
X489242Y30655D01*
X489289Y30555D01*
X489334Y30454D01*
X489374Y30351D01*
X489411Y30246D01*
X489444Y30140D01*
X489474Y30034D01*
X489499Y29926D01*
X489521Y29817D01*
X489538Y29708D01*
X489552Y29598D01*
X489562Y29487D01*
X489568Y29377D01*
X489570Y29266D01*
X489571Y29266D02*
X489571Y26162D01*
X489571Y29887D02*
X494538Y32371D01*
X492054Y37500D02*
X483362Y39984D01*
X492054Y37500D02*
X492054Y43709D01*
X489571Y41846D02*
X494538Y41846D01*
X40111Y752602D02*
X40111Y763778D01*
X43216Y763778D01*
X43327Y763776D01*
X43437Y763770D01*
X43548Y763760D01*
X43658Y763746D01*
X43767Y763729D01*
X43876Y763707D01*
X43984Y763682D01*
X44090Y763652D01*
X44196Y763619D01*
X44301Y763582D01*
X44404Y763542D01*
X44505Y763497D01*
X44605Y763450D01*
X44704Y763398D01*
X44800Y763343D01*
X44894Y763285D01*
X44986Y763224D01*
X45076Y763159D01*
X45164Y763091D01*
X45249Y763020D01*
X45331Y762946D01*
X45411Y762869D01*
X45488Y762789D01*
X45562Y762707D01*
X45633Y762622D01*
X45701Y762534D01*
X45766Y762444D01*
X45827Y762352D01*
X45885Y762258D01*
X45940Y762162D01*
X45992Y762063D01*
X46039Y761963D01*
X46084Y761862D01*
X46124Y761759D01*
X46161Y761654D01*
X46194Y761548D01*
X46224Y761442D01*
X46249Y761334D01*
X46271Y761225D01*
X46288Y761116D01*
X46302Y761006D01*
X46312Y760895D01*
X46318Y760785D01*
X46320Y760674D01*
X46318Y760563D01*
X46312Y760453D01*
X46302Y760342D01*
X46288Y760232D01*
X46271Y760123D01*
X46249Y760014D01*
X46224Y759906D01*
X46194Y759800D01*
X46161Y759694D01*
X46124Y759589D01*
X46084Y759486D01*
X46039Y759385D01*
X45992Y759285D01*
X45940Y759186D01*
X45885Y759090D01*
X45827Y758996D01*
X45766Y758904D01*
X45701Y758814D01*
X45633Y758726D01*
X45562Y758641D01*
X45488Y758559D01*
X45411Y758479D01*
X45331Y758402D01*
X45249Y758328D01*
X45164Y758257D01*
X45076Y758189D01*
X44986Y758124D01*
X44894Y758063D01*
X44800Y758005D01*
X44704Y757950D01*
X44605Y757898D01*
X44505Y757851D01*
X44404Y757806D01*
X44301Y757766D01*
X44196Y757729D01*
X44090Y757696D01*
X43984Y757666D01*
X43876Y757641D01*
X43767Y757619D01*
X43658Y757602D01*
X43548Y757588D01*
X43437Y757578D01*
X43327Y757572D01*
X43216Y757570D01*
X43216Y757569D02*
X40111Y757569D01*
X43836Y757569D02*
X46320Y752602D01*
X51449Y752602D02*
X55174Y752602D01*
X55272Y752604D01*
X55369Y752610D01*
X55466Y752619D01*
X55563Y752633D01*
X55659Y752650D01*
X55754Y752671D01*
X55848Y752695D01*
X55942Y752724D01*
X56034Y752756D01*
X56125Y752791D01*
X56214Y752830D01*
X56302Y752873D01*
X56388Y752919D01*
X56472Y752968D01*
X56554Y753021D01*
X56634Y753076D01*
X56712Y753135D01*
X56787Y753197D01*
X56860Y753262D01*
X56930Y753330D01*
X56998Y753400D01*
X57063Y753473D01*
X57125Y753548D01*
X57184Y753626D01*
X57239Y753706D01*
X57292Y753788D01*
X57341Y753872D01*
X57387Y753958D01*
X57430Y754046D01*
X57469Y754135D01*
X57504Y754226D01*
X57536Y754318D01*
X57565Y754412D01*
X57589Y754506D01*
X57610Y754601D01*
X57627Y754697D01*
X57641Y754794D01*
X57650Y754891D01*
X57656Y754988D01*
X57658Y755086D01*
X57658Y756327D01*
X57656Y756425D01*
X57650Y756522D01*
X57641Y756619D01*
X57627Y756716D01*
X57610Y756812D01*
X57589Y756907D01*
X57565Y757001D01*
X57536Y757095D01*
X57504Y757187D01*
X57469Y757278D01*
X57430Y757367D01*
X57387Y757455D01*
X57341Y757541D01*
X57292Y757625D01*
X57239Y757707D01*
X57184Y757787D01*
X57125Y757865D01*
X57063Y757940D01*
X56998Y758013D01*
X56930Y758083D01*
X56860Y758151D01*
X56787Y758216D01*
X56712Y758278D01*
X56634Y758337D01*
X56554Y758392D01*
X56472Y758445D01*
X56388Y758494D01*
X56302Y758540D01*
X56214Y758583D01*
X56125Y758622D01*
X56034Y758657D01*
X55942Y758689D01*
X55848Y758718D01*
X55754Y758742D01*
X55659Y758763D01*
X55563Y758780D01*
X55466Y758794D01*
X55369Y758803D01*
X55272Y758809D01*
X55174Y758811D01*
X51449Y758811D01*
X51449Y763778D01*
X57658Y763778D01*
D13*
X402900Y26200D02*
X402897Y25958D01*
X402888Y25717D01*
X402874Y25476D01*
X402853Y25235D01*
X402827Y24995D01*
X402795Y24755D01*
X402757Y24516D01*
X402714Y24279D01*
X402664Y24042D01*
X402609Y23807D01*
X402549Y23573D01*
X402482Y23341D01*
X402411Y23110D01*
X402333Y22881D01*
X402250Y22654D01*
X402162Y22429D01*
X402068Y22206D01*
X401969Y21986D01*
X401864Y21768D01*
X401755Y21553D01*
X401640Y21340D01*
X401520Y21130D01*
X401395Y20924D01*
X401265Y20720D01*
X401130Y20519D01*
X400990Y20322D01*
X400846Y20128D01*
X400697Y19938D01*
X400543Y19752D01*
X400385Y19569D01*
X400223Y19390D01*
X400056Y19215D01*
X399885Y19044D01*
X399710Y18877D01*
X399531Y18715D01*
X399348Y18557D01*
X399162Y18403D01*
X398972Y18254D01*
X398778Y18110D01*
X398581Y17970D01*
X398380Y17835D01*
X398176Y17705D01*
X397970Y17580D01*
X397760Y17460D01*
X397547Y17345D01*
X397332Y17236D01*
X397114Y17131D01*
X396894Y17032D01*
X396671Y16938D01*
X396446Y16850D01*
X396219Y16767D01*
X395990Y16689D01*
X395759Y16618D01*
X395527Y16551D01*
X395293Y16491D01*
X395058Y16436D01*
X394821Y16386D01*
X394584Y16343D01*
X394345Y16305D01*
X394105Y16273D01*
X393865Y16247D01*
X393624Y16226D01*
X393383Y16212D01*
X393142Y16203D01*
X392900Y16200D01*
X292900Y16200D01*
X292658Y16203D01*
X292417Y16212D01*
X292176Y16226D01*
X291935Y16247D01*
X291695Y16273D01*
X291455Y16305D01*
X291216Y16343D01*
X290979Y16386D01*
X290742Y16436D01*
X290507Y16491D01*
X290273Y16551D01*
X290041Y16618D01*
X289810Y16689D01*
X289581Y16767D01*
X289354Y16850D01*
X289129Y16938D01*
X288906Y17032D01*
X288686Y17131D01*
X288468Y17236D01*
X288253Y17345D01*
X288040Y17460D01*
X287830Y17580D01*
X287624Y17705D01*
X287420Y17835D01*
X287219Y17970D01*
X287022Y18110D01*
X286828Y18254D01*
X286638Y18403D01*
X286452Y18557D01*
X286269Y18715D01*
X286090Y18877D01*
X285915Y19044D01*
X285744Y19215D01*
X285577Y19390D01*
X285415Y19569D01*
X285257Y19752D01*
X285103Y19938D01*
X284954Y20128D01*
X284810Y20322D01*
X284670Y20519D01*
X284535Y20720D01*
X284405Y20924D01*
X284280Y21130D01*
X284160Y21340D01*
X284045Y21553D01*
X283936Y21768D01*
X283831Y21986D01*
X283732Y22206D01*
X283638Y22429D01*
X283550Y22654D01*
X283467Y22881D01*
X283389Y23110D01*
X283318Y23341D01*
X283251Y23573D01*
X283191Y23807D01*
X283136Y24042D01*
X283086Y24279D01*
X283043Y24516D01*
X283005Y24755D01*
X282973Y24995D01*
X282947Y25235D01*
X282926Y25476D01*
X282912Y25717D01*
X282903Y25958D01*
X282900Y26200D01*
X282900Y126200D02*
X282903Y126442D01*
X282912Y126683D01*
X282926Y126924D01*
X282947Y127165D01*
X282973Y127405D01*
X283005Y127645D01*
X283043Y127884D01*
X283086Y128121D01*
X283136Y128358D01*
X283191Y128593D01*
X283251Y128827D01*
X283318Y129059D01*
X283389Y129290D01*
X283467Y129519D01*
X283550Y129746D01*
X283638Y129971D01*
X283732Y130194D01*
X283831Y130414D01*
X283936Y130632D01*
X284045Y130847D01*
X284160Y131060D01*
X284280Y131270D01*
X284405Y131476D01*
X284535Y131680D01*
X284670Y131881D01*
X284810Y132078D01*
X284954Y132272D01*
X285103Y132462D01*
X285257Y132648D01*
X285415Y132831D01*
X285577Y133010D01*
X285744Y133185D01*
X285915Y133356D01*
X286090Y133523D01*
X286269Y133685D01*
X286452Y133843D01*
X286638Y133997D01*
X286828Y134146D01*
X287022Y134290D01*
X287219Y134430D01*
X287420Y134565D01*
X287624Y134695D01*
X287830Y134820D01*
X288040Y134940D01*
X288253Y135055D01*
X288468Y135164D01*
X288686Y135269D01*
X288906Y135368D01*
X289129Y135462D01*
X289354Y135550D01*
X289581Y135633D01*
X289810Y135711D01*
X290041Y135782D01*
X290273Y135849D01*
X290507Y135909D01*
X290742Y135964D01*
X290979Y136014D01*
X291216Y136057D01*
X291455Y136095D01*
X291695Y136127D01*
X291935Y136153D01*
X292176Y136174D01*
X292417Y136188D01*
X292658Y136197D01*
X292900Y136200D01*
X392900Y136200D01*
X393142Y136197D01*
X393383Y136188D01*
X393624Y136174D01*
X393865Y136153D01*
X394105Y136127D01*
X394345Y136095D01*
X394584Y136057D01*
X394821Y136014D01*
X395058Y135964D01*
X395293Y135909D01*
X395527Y135849D01*
X395759Y135782D01*
X395990Y135711D01*
X396219Y135633D01*
X396446Y135550D01*
X396671Y135462D01*
X396894Y135368D01*
X397114Y135269D01*
X397332Y135164D01*
X397547Y135055D01*
X397760Y134940D01*
X397970Y134820D01*
X398176Y134695D01*
X398380Y134565D01*
X398581Y134430D01*
X398778Y134290D01*
X398972Y134146D01*
X399162Y133997D01*
X399348Y133843D01*
X399531Y133685D01*
X399710Y133523D01*
X399885Y133356D01*
X400056Y133185D01*
X400223Y133010D01*
X400385Y132831D01*
X400543Y132648D01*
X400697Y132462D01*
X400846Y132272D01*
X400990Y132078D01*
X401130Y131881D01*
X401265Y131680D01*
X401395Y131476D01*
X401520Y131270D01*
X401640Y131060D01*
X401755Y130847D01*
X401864Y130632D01*
X401969Y130414D01*
X402068Y130194D01*
X402162Y129971D01*
X402250Y129746D01*
X402333Y129519D01*
X402411Y129290D01*
X402482Y129059D01*
X402549Y128827D01*
X402609Y128593D01*
X402664Y128358D01*
X402714Y128121D01*
X402757Y127884D01*
X402795Y127645D01*
X402827Y127405D01*
X402853Y127165D01*
X402874Y126924D01*
X402888Y126683D01*
X402897Y126442D01*
X402900Y126200D01*
X307545Y76200D02*
X307556Y77068D01*
X307588Y77935D01*
X307641Y78801D01*
X307715Y79665D01*
X307811Y80528D01*
X307928Y81388D01*
X308066Y82244D01*
X308224Y83097D01*
X308404Y83946D01*
X308605Y84791D01*
X308826Y85630D01*
X309067Y86463D01*
X309329Y87290D01*
X309612Y88111D01*
X309914Y88924D01*
X310236Y89730D01*
X310578Y90527D01*
X310939Y91316D01*
X311320Y92096D01*
X311720Y92866D01*
X312138Y93626D01*
X312575Y94376D01*
X313030Y95115D01*
X313503Y95842D01*
X313994Y96558D01*
X314503Y97261D01*
X315028Y97952D01*
X315570Y98629D01*
X316129Y99293D01*
X316704Y99943D01*
X317294Y100579D01*
X317900Y101200D01*
X318521Y101806D01*
X319157Y102396D01*
X319807Y102971D01*
X320471Y103530D01*
X321148Y104072D01*
X321839Y104597D01*
X322542Y105106D01*
X323258Y105597D01*
X323985Y106070D01*
X324724Y106525D01*
X325474Y106962D01*
X326234Y107380D01*
X327004Y107780D01*
X327784Y108161D01*
X328573Y108522D01*
X329370Y108864D01*
X330176Y109186D01*
X330989Y109488D01*
X331810Y109771D01*
X332637Y110033D01*
X333470Y110274D01*
X334309Y110495D01*
X335154Y110696D01*
X336003Y110876D01*
X336856Y111034D01*
X337712Y111172D01*
X338572Y111289D01*
X339435Y111385D01*
X340299Y111459D01*
X341165Y111512D01*
X342032Y111544D01*
X342900Y111555D01*
X343768Y111544D01*
X344635Y111512D01*
X345501Y111459D01*
X346365Y111385D01*
X347228Y111289D01*
X348088Y111172D01*
X348944Y111034D01*
X349797Y110876D01*
X350646Y110696D01*
X351491Y110495D01*
X352330Y110274D01*
X353163Y110033D01*
X353990Y109771D01*
X354811Y109488D01*
X355624Y109186D01*
X356430Y108864D01*
X357227Y108522D01*
X358016Y108161D01*
X358796Y107780D01*
X359566Y107380D01*
X360326Y106962D01*
X361076Y106525D01*
X361815Y106070D01*
X362542Y105597D01*
X363258Y105106D01*
X363961Y104597D01*
X364652Y104072D01*
X365329Y103530D01*
X365993Y102971D01*
X366643Y102396D01*
X367279Y101806D01*
X367900Y101200D01*
X368506Y100579D01*
X369096Y99943D01*
X369671Y99293D01*
X370230Y98629D01*
X370772Y97952D01*
X371297Y97261D01*
X371806Y96558D01*
X372297Y95842D01*
X372770Y95115D01*
X373225Y94376D01*
X373662Y93626D01*
X374080Y92866D01*
X374480Y92096D01*
X374861Y91316D01*
X375222Y90527D01*
X375564Y89730D01*
X375886Y88924D01*
X376188Y88111D01*
X376471Y87290D01*
X376733Y86463D01*
X376974Y85630D01*
X377195Y84791D01*
X377396Y83946D01*
X377576Y83097D01*
X377734Y82244D01*
X377872Y81388D01*
X377989Y80528D01*
X378085Y79665D01*
X378159Y78801D01*
X378212Y77935D01*
X378244Y77068D01*
X378255Y76200D01*
X378244Y75332D01*
X378212Y74465D01*
X378159Y73599D01*
X378085Y72735D01*
X377989Y71872D01*
X377872Y71012D01*
X377734Y70156D01*
X377576Y69303D01*
X377396Y68454D01*
X377195Y67609D01*
X376974Y66770D01*
X376733Y65937D01*
X376471Y65110D01*
X376188Y64289D01*
X375886Y63476D01*
X375564Y62670D01*
X375222Y61873D01*
X374861Y61084D01*
X374480Y60304D01*
X374080Y59534D01*
X373662Y58774D01*
X373225Y58024D01*
X372770Y57285D01*
X372297Y56558D01*
X371806Y55842D01*
X371297Y55139D01*
X370772Y54448D01*
X370230Y53771D01*
X369671Y53107D01*
X369096Y52457D01*
X368506Y51821D01*
X367900Y51200D01*
X367279Y50594D01*
X366643Y50004D01*
X365993Y49429D01*
X365329Y48870D01*
X364652Y48328D01*
X363961Y47803D01*
X363258Y47294D01*
X362542Y46803D01*
X361815Y46330D01*
X361076Y45875D01*
X360326Y45438D01*
X359566Y45020D01*
X358796Y44620D01*
X358016Y44239D01*
X357227Y43878D01*
X356430Y43536D01*
X355624Y43214D01*
X354811Y42912D01*
X353990Y42629D01*
X353163Y42367D01*
X352330Y42126D01*
X351491Y41905D01*
X350646Y41704D01*
X349797Y41524D01*
X348944Y41366D01*
X348088Y41228D01*
X347228Y41111D01*
X346365Y41015D01*
X345501Y40941D01*
X344635Y40888D01*
X343768Y40856D01*
X342900Y40845D01*
X342032Y40856D01*
X341165Y40888D01*
X340299Y40941D01*
X339435Y41015D01*
X338572Y41111D01*
X337712Y41228D01*
X336856Y41366D01*
X336003Y41524D01*
X335154Y41704D01*
X334309Y41905D01*
X333470Y42126D01*
X332637Y42367D01*
X331810Y42629D01*
X330989Y42912D01*
X330176Y43214D01*
X329370Y43536D01*
X328573Y43878D01*
X327784Y44239D01*
X327004Y44620D01*
X326234Y45020D01*
X325474Y45438D01*
X324724Y45875D01*
X323985Y46330D01*
X323258Y46803D01*
X322542Y47294D01*
X321839Y47803D01*
X321148Y48328D01*
X320471Y48870D01*
X319807Y49429D01*
X319157Y50004D01*
X318521Y50594D01*
X317900Y51200D01*
X317294Y51821D01*
X316704Y52457D01*
X316129Y53107D01*
X315570Y53771D01*
X315028Y54448D01*
X314503Y55139D01*
X313994Y55842D01*
X313503Y56558D01*
X313030Y57285D01*
X312575Y58024D01*
X312138Y58774D01*
X311720Y59534D01*
X311320Y60304D01*
X310939Y61084D01*
X310578Y61873D01*
X310236Y62670D01*
X309914Y63476D01*
X309612Y64289D01*
X309329Y65110D01*
X309067Y65937D01*
X308826Y66770D01*
X308605Y67609D01*
X308404Y68454D01*
X308224Y69303D01*
X308066Y70156D01*
X307928Y71012D01*
X307811Y71872D01*
X307715Y72735D01*
X307641Y73599D01*
X307588Y74465D01*
X307556Y75332D01*
X307545Y76200D01*
X322900Y96200D02*
X362900Y96200D01*
X362900Y56200D01*
X322900Y56200D01*
X322900Y96200D01*
X282900Y113700D02*
X282900Y126200D01*
X282900Y88700D02*
X282900Y63700D01*
X282900Y38700D02*
X282900Y26200D01*
X402900Y113700D02*
X402900Y126200D01*
X402900Y88700D02*
X402900Y63700D01*
X402900Y38700D02*
X402900Y26200D01*
D10*
X283887Y153162D02*
X283984Y153164D01*
X284082Y153170D01*
X284179Y153179D01*
X284276Y153193D01*
X284372Y153210D01*
X284467Y153231D01*
X284561Y153255D01*
X284655Y153284D01*
X284747Y153316D01*
X284838Y153351D01*
X284927Y153390D01*
X285015Y153433D01*
X285101Y153479D01*
X285185Y153528D01*
X285267Y153581D01*
X285347Y153636D01*
X285425Y153695D01*
X285500Y153757D01*
X285573Y153822D01*
X285643Y153890D01*
X285711Y153960D01*
X285776Y154033D01*
X285838Y154108D01*
X285897Y154186D01*
X285952Y154266D01*
X286005Y154348D01*
X286054Y154432D01*
X286100Y154518D01*
X286143Y154606D01*
X286182Y154695D01*
X286217Y154786D01*
X286249Y154878D01*
X286278Y154972D01*
X286302Y155066D01*
X286323Y155161D01*
X286340Y155257D01*
X286354Y155354D01*
X286363Y155451D01*
X286369Y155548D01*
X286371Y155646D01*
X283887Y153162D02*
X283744Y153164D01*
X283601Y153170D01*
X283459Y153179D01*
X283317Y153193D01*
X283175Y153211D01*
X283034Y153232D01*
X282893Y153257D01*
X282753Y153286D01*
X282614Y153319D01*
X282476Y153355D01*
X282339Y153396D01*
X282203Y153440D01*
X282068Y153487D01*
X281935Y153539D01*
X281803Y153594D01*
X281673Y153652D01*
X281544Y153714D01*
X281417Y153780D01*
X281292Y153849D01*
X281169Y153921D01*
X281048Y153997D01*
X280929Y154075D01*
X280812Y154158D01*
X280697Y154243D01*
X280585Y154331D01*
X280475Y154423D01*
X280368Y154517D01*
X280263Y154614D01*
X280161Y154714D01*
X280472Y161854D02*
X280474Y161952D01*
X280480Y162049D01*
X280489Y162146D01*
X280503Y162243D01*
X280520Y162339D01*
X280541Y162434D01*
X280565Y162528D01*
X280594Y162622D01*
X280626Y162714D01*
X280661Y162805D01*
X280700Y162894D01*
X280743Y162982D01*
X280789Y163068D01*
X280838Y163152D01*
X280891Y163234D01*
X280946Y163314D01*
X281005Y163392D01*
X281067Y163467D01*
X281132Y163540D01*
X281200Y163610D01*
X281270Y163678D01*
X281343Y163743D01*
X281418Y163805D01*
X281496Y163864D01*
X281576Y163919D01*
X281658Y163972D01*
X281742Y164021D01*
X281828Y164067D01*
X281916Y164110D01*
X282005Y164149D01*
X282096Y164184D01*
X282188Y164216D01*
X282282Y164245D01*
X282376Y164269D01*
X282471Y164290D01*
X282567Y164307D01*
X282664Y164321D01*
X282761Y164330D01*
X282858Y164336D01*
X282956Y164338D01*
X283086Y164336D01*
X283216Y164331D01*
X283346Y164322D01*
X283476Y164309D01*
X283605Y164293D01*
X283734Y164273D01*
X283862Y164249D01*
X283990Y164222D01*
X284116Y164191D01*
X284242Y164157D01*
X284367Y164119D01*
X284490Y164078D01*
X284613Y164033D01*
X284734Y163985D01*
X284854Y163934D01*
X284972Y163879D01*
X285088Y163821D01*
X285203Y163760D01*
X285317Y163695D01*
X285428Y163628D01*
X285537Y163557D01*
X285645Y163483D01*
X285750Y163407D01*
X281715Y159681D02*
X281632Y159732D01*
X281551Y159786D01*
X281473Y159843D01*
X281397Y159903D01*
X281323Y159966D01*
X281252Y160032D01*
X281183Y160100D01*
X281117Y160171D01*
X281053Y160244D01*
X280993Y160320D01*
X280936Y160398D01*
X280881Y160479D01*
X280830Y160561D01*
X280782Y160645D01*
X280737Y160731D01*
X280695Y160819D01*
X280657Y160908D01*
X280623Y160998D01*
X280591Y161090D01*
X280564Y161183D01*
X280540Y161277D01*
X280519Y161372D01*
X280503Y161468D01*
X280490Y161564D01*
X280480Y161660D01*
X280475Y161757D01*
X280473Y161854D01*
X285128Y157819D02*
X285211Y157768D01*
X285292Y157714D01*
X285370Y157657D01*
X285446Y157597D01*
X285520Y157534D01*
X285591Y157468D01*
X285660Y157400D01*
X285726Y157329D01*
X285790Y157256D01*
X285850Y157180D01*
X285907Y157102D01*
X285962Y157021D01*
X286013Y156939D01*
X286061Y156855D01*
X286106Y156769D01*
X286148Y156681D01*
X286186Y156592D01*
X286220Y156502D01*
X286252Y156410D01*
X286279Y156317D01*
X286303Y156223D01*
X286324Y156128D01*
X286340Y156032D01*
X286353Y155936D01*
X286363Y155840D01*
X286368Y155743D01*
X286370Y155646D01*
X285129Y157819D02*
X281714Y159681D01*
X290872Y164338D02*
X293356Y153162D01*
X295839Y160613D01*
X298323Y153162D01*
X300807Y164338D01*
X305689Y161854D02*
X308793Y164338D01*
X308793Y153162D01*
X305689Y153162D02*
X311898Y153162D01*
D13*
X659600Y16200D02*
X659842Y16203D01*
X660083Y16212D01*
X660324Y16226D01*
X660565Y16247D01*
X660805Y16273D01*
X661045Y16305D01*
X661284Y16343D01*
X661521Y16386D01*
X661758Y16436D01*
X661993Y16491D01*
X662227Y16551D01*
X662459Y16618D01*
X662690Y16689D01*
X662919Y16767D01*
X663146Y16850D01*
X663371Y16938D01*
X663594Y17032D01*
X663814Y17131D01*
X664032Y17236D01*
X664247Y17345D01*
X664460Y17460D01*
X664670Y17580D01*
X664876Y17705D01*
X665080Y17835D01*
X665281Y17970D01*
X665478Y18110D01*
X665672Y18254D01*
X665862Y18403D01*
X666048Y18557D01*
X666231Y18715D01*
X666410Y18877D01*
X666585Y19044D01*
X666756Y19215D01*
X666923Y19390D01*
X667085Y19569D01*
X667243Y19752D01*
X667397Y19938D01*
X667546Y20128D01*
X667690Y20322D01*
X667830Y20519D01*
X667965Y20720D01*
X668095Y20924D01*
X668220Y21130D01*
X668340Y21340D01*
X668455Y21553D01*
X668564Y21768D01*
X668669Y21986D01*
X668768Y22206D01*
X668862Y22429D01*
X668950Y22654D01*
X669033Y22881D01*
X669111Y23110D01*
X669182Y23341D01*
X669249Y23573D01*
X669309Y23807D01*
X669364Y24042D01*
X669414Y24279D01*
X669457Y24516D01*
X669495Y24755D01*
X669527Y24995D01*
X669553Y25235D01*
X669574Y25476D01*
X669588Y25717D01*
X669597Y25958D01*
X669600Y26200D01*
X659600Y16200D02*
X559600Y16200D01*
X559358Y16203D01*
X559117Y16212D01*
X558876Y16226D01*
X558635Y16247D01*
X558395Y16273D01*
X558155Y16305D01*
X557916Y16343D01*
X557679Y16386D01*
X557442Y16436D01*
X557207Y16491D01*
X556973Y16551D01*
X556741Y16618D01*
X556510Y16689D01*
X556281Y16767D01*
X556054Y16850D01*
X555829Y16938D01*
X555606Y17032D01*
X555386Y17131D01*
X555168Y17236D01*
X554953Y17345D01*
X554740Y17460D01*
X554530Y17580D01*
X554324Y17705D01*
X554120Y17835D01*
X553919Y17970D01*
X553722Y18110D01*
X553528Y18254D01*
X553338Y18403D01*
X553152Y18557D01*
X552969Y18715D01*
X552790Y18877D01*
X552615Y19044D01*
X552444Y19215D01*
X552277Y19390D01*
X552115Y19569D01*
X551957Y19752D01*
X551803Y19938D01*
X551654Y20128D01*
X551510Y20322D01*
X551370Y20519D01*
X551235Y20720D01*
X551105Y20924D01*
X550980Y21130D01*
X550860Y21340D01*
X550745Y21553D01*
X550636Y21768D01*
X550531Y21986D01*
X550432Y22206D01*
X550338Y22429D01*
X550250Y22654D01*
X550167Y22881D01*
X550089Y23110D01*
X550018Y23341D01*
X549951Y23573D01*
X549891Y23807D01*
X549836Y24042D01*
X549786Y24279D01*
X549743Y24516D01*
X549705Y24755D01*
X549673Y24995D01*
X549647Y25235D01*
X549626Y25476D01*
X549612Y25717D01*
X549603Y25958D01*
X549600Y26200D01*
X549600Y126200D02*
X549603Y126442D01*
X549612Y126683D01*
X549626Y126924D01*
X549647Y127165D01*
X549673Y127405D01*
X549705Y127645D01*
X549743Y127884D01*
X549786Y128121D01*
X549836Y128358D01*
X549891Y128593D01*
X549951Y128827D01*
X550018Y129059D01*
X550089Y129290D01*
X550167Y129519D01*
X550250Y129746D01*
X550338Y129971D01*
X550432Y130194D01*
X550531Y130414D01*
X550636Y130632D01*
X550745Y130847D01*
X550860Y131060D01*
X550980Y131270D01*
X551105Y131476D01*
X551235Y131680D01*
X551370Y131881D01*
X551510Y132078D01*
X551654Y132272D01*
X551803Y132462D01*
X551957Y132648D01*
X552115Y132831D01*
X552277Y133010D01*
X552444Y133185D01*
X552615Y133356D01*
X552790Y133523D01*
X552969Y133685D01*
X553152Y133843D01*
X553338Y133997D01*
X553528Y134146D01*
X553722Y134290D01*
X553919Y134430D01*
X554120Y134565D01*
X554324Y134695D01*
X554530Y134820D01*
X554740Y134940D01*
X554953Y135055D01*
X555168Y135164D01*
X555386Y135269D01*
X555606Y135368D01*
X555829Y135462D01*
X556054Y135550D01*
X556281Y135633D01*
X556510Y135711D01*
X556741Y135782D01*
X556973Y135849D01*
X557207Y135909D01*
X557442Y135964D01*
X557679Y136014D01*
X557916Y136057D01*
X558155Y136095D01*
X558395Y136127D01*
X558635Y136153D01*
X558876Y136174D01*
X559117Y136188D01*
X559358Y136197D01*
X559600Y136200D01*
X659600Y136200D01*
X659842Y136197D01*
X660083Y136188D01*
X660324Y136174D01*
X660565Y136153D01*
X660805Y136127D01*
X661045Y136095D01*
X661284Y136057D01*
X661521Y136014D01*
X661758Y135964D01*
X661993Y135909D01*
X662227Y135849D01*
X662459Y135782D01*
X662690Y135711D01*
X662919Y135633D01*
X663146Y135550D01*
X663371Y135462D01*
X663594Y135368D01*
X663814Y135269D01*
X664032Y135164D01*
X664247Y135055D01*
X664460Y134940D01*
X664670Y134820D01*
X664876Y134695D01*
X665080Y134565D01*
X665281Y134430D01*
X665478Y134290D01*
X665672Y134146D01*
X665862Y133997D01*
X666048Y133843D01*
X666231Y133685D01*
X666410Y133523D01*
X666585Y133356D01*
X666756Y133185D01*
X666923Y133010D01*
X667085Y132831D01*
X667243Y132648D01*
X667397Y132462D01*
X667546Y132272D01*
X667690Y132078D01*
X667830Y131881D01*
X667965Y131680D01*
X668095Y131476D01*
X668220Y131270D01*
X668340Y131060D01*
X668455Y130847D01*
X668564Y130632D01*
X668669Y130414D01*
X668768Y130194D01*
X668862Y129971D01*
X668950Y129746D01*
X669033Y129519D01*
X669111Y129290D01*
X669182Y129059D01*
X669249Y128827D01*
X669309Y128593D01*
X669364Y128358D01*
X669414Y128121D01*
X669457Y127884D01*
X669495Y127645D01*
X669527Y127405D01*
X669553Y127165D01*
X669574Y126924D01*
X669588Y126683D01*
X669597Y126442D01*
X669600Y126200D01*
X574245Y76200D02*
X574256Y77068D01*
X574288Y77935D01*
X574341Y78801D01*
X574415Y79665D01*
X574511Y80528D01*
X574628Y81388D01*
X574766Y82244D01*
X574924Y83097D01*
X575104Y83946D01*
X575305Y84791D01*
X575526Y85630D01*
X575767Y86463D01*
X576029Y87290D01*
X576312Y88111D01*
X576614Y88924D01*
X576936Y89730D01*
X577278Y90527D01*
X577639Y91316D01*
X578020Y92096D01*
X578420Y92866D01*
X578838Y93626D01*
X579275Y94376D01*
X579730Y95115D01*
X580203Y95842D01*
X580694Y96558D01*
X581203Y97261D01*
X581728Y97952D01*
X582270Y98629D01*
X582829Y99293D01*
X583404Y99943D01*
X583994Y100579D01*
X584600Y101200D01*
X585221Y101806D01*
X585857Y102396D01*
X586507Y102971D01*
X587171Y103530D01*
X587848Y104072D01*
X588539Y104597D01*
X589242Y105106D01*
X589958Y105597D01*
X590685Y106070D01*
X591424Y106525D01*
X592174Y106962D01*
X592934Y107380D01*
X593704Y107780D01*
X594484Y108161D01*
X595273Y108522D01*
X596070Y108864D01*
X596876Y109186D01*
X597689Y109488D01*
X598510Y109771D01*
X599337Y110033D01*
X600170Y110274D01*
X601009Y110495D01*
X601854Y110696D01*
X602703Y110876D01*
X603556Y111034D01*
X604412Y111172D01*
X605272Y111289D01*
X606135Y111385D01*
X606999Y111459D01*
X607865Y111512D01*
X608732Y111544D01*
X609600Y111555D01*
X610468Y111544D01*
X611335Y111512D01*
X612201Y111459D01*
X613065Y111385D01*
X613928Y111289D01*
X614788Y111172D01*
X615644Y111034D01*
X616497Y110876D01*
X617346Y110696D01*
X618191Y110495D01*
X619030Y110274D01*
X619863Y110033D01*
X620690Y109771D01*
X621511Y109488D01*
X622324Y109186D01*
X623130Y108864D01*
X623927Y108522D01*
X624716Y108161D01*
X625496Y107780D01*
X626266Y107380D01*
X627026Y106962D01*
X627776Y106525D01*
X628515Y106070D01*
X629242Y105597D01*
X629958Y105106D01*
X630661Y104597D01*
X631352Y104072D01*
X632029Y103530D01*
X632693Y102971D01*
X633343Y102396D01*
X633979Y101806D01*
X634600Y101200D01*
X635206Y100579D01*
X635796Y99943D01*
X636371Y99293D01*
X636930Y98629D01*
X637472Y97952D01*
X637997Y97261D01*
X638506Y96558D01*
X638997Y95842D01*
X639470Y95115D01*
X639925Y94376D01*
X640362Y93626D01*
X640780Y92866D01*
X641180Y92096D01*
X641561Y91316D01*
X641922Y90527D01*
X642264Y89730D01*
X642586Y88924D01*
X642888Y88111D01*
X643171Y87290D01*
X643433Y86463D01*
X643674Y85630D01*
X643895Y84791D01*
X644096Y83946D01*
X644276Y83097D01*
X644434Y82244D01*
X644572Y81388D01*
X644689Y80528D01*
X644785Y79665D01*
X644859Y78801D01*
X644912Y77935D01*
X644944Y77068D01*
X644955Y76200D01*
X644944Y75332D01*
X644912Y74465D01*
X644859Y73599D01*
X644785Y72735D01*
X644689Y71872D01*
X644572Y71012D01*
X644434Y70156D01*
X644276Y69303D01*
X644096Y68454D01*
X643895Y67609D01*
X643674Y66770D01*
X643433Y65937D01*
X643171Y65110D01*
X642888Y64289D01*
X642586Y63476D01*
X642264Y62670D01*
X641922Y61873D01*
X641561Y61084D01*
X641180Y60304D01*
X640780Y59534D01*
X640362Y58774D01*
X639925Y58024D01*
X639470Y57285D01*
X638997Y56558D01*
X638506Y55842D01*
X637997Y55139D01*
X637472Y54448D01*
X636930Y53771D01*
X636371Y53107D01*
X635796Y52457D01*
X635206Y51821D01*
X634600Y51200D01*
X633979Y50594D01*
X633343Y50004D01*
X632693Y49429D01*
X632029Y48870D01*
X631352Y48328D01*
X630661Y47803D01*
X629958Y47294D01*
X629242Y46803D01*
X628515Y46330D01*
X627776Y45875D01*
X627026Y45438D01*
X626266Y45020D01*
X625496Y44620D01*
X624716Y44239D01*
X623927Y43878D01*
X623130Y43536D01*
X622324Y43214D01*
X621511Y42912D01*
X620690Y42629D01*
X619863Y42367D01*
X619030Y42126D01*
X618191Y41905D01*
X617346Y41704D01*
X616497Y41524D01*
X615644Y41366D01*
X614788Y41228D01*
X613928Y41111D01*
X613065Y41015D01*
X612201Y40941D01*
X611335Y40888D01*
X610468Y40856D01*
X609600Y40845D01*
X608732Y40856D01*
X607865Y40888D01*
X606999Y40941D01*
X606135Y41015D01*
X605272Y41111D01*
X604412Y41228D01*
X603556Y41366D01*
X602703Y41524D01*
X601854Y41704D01*
X601009Y41905D01*
X600170Y42126D01*
X599337Y42367D01*
X598510Y42629D01*
X597689Y42912D01*
X596876Y43214D01*
X596070Y43536D01*
X595273Y43878D01*
X594484Y44239D01*
X593704Y44620D01*
X592934Y45020D01*
X592174Y45438D01*
X591424Y45875D01*
X590685Y46330D01*
X589958Y46803D01*
X589242Y47294D01*
X588539Y47803D01*
X587848Y48328D01*
X587171Y48870D01*
X586507Y49429D01*
X585857Y50004D01*
X585221Y50594D01*
X584600Y51200D01*
X583994Y51821D01*
X583404Y52457D01*
X582829Y53107D01*
X582270Y53771D01*
X581728Y54448D01*
X581203Y55139D01*
X580694Y55842D01*
X580203Y56558D01*
X579730Y57285D01*
X579275Y58024D01*
X578838Y58774D01*
X578420Y59534D01*
X578020Y60304D01*
X577639Y61084D01*
X577278Y61873D01*
X576936Y62670D01*
X576614Y63476D01*
X576312Y64289D01*
X576029Y65110D01*
X575767Y65937D01*
X575526Y66770D01*
X575305Y67609D01*
X575104Y68454D01*
X574924Y69303D01*
X574766Y70156D01*
X574628Y71012D01*
X574511Y71872D01*
X574415Y72735D01*
X574341Y73599D01*
X574288Y74465D01*
X574256Y75332D01*
X574245Y76200D01*
X589600Y96200D02*
X629600Y96200D01*
X629600Y56200D01*
X589600Y56200D01*
X589600Y96200D01*
X549600Y113700D02*
X549600Y126200D01*
X549600Y88700D02*
X549600Y63700D01*
X549600Y38700D02*
X549600Y26200D01*
X669600Y113700D02*
X669600Y126200D01*
X669600Y88700D02*
X669600Y63700D01*
X669600Y38700D02*
X669600Y26200D01*
D10*
X563287Y153162D02*
X563384Y153164D01*
X563482Y153170D01*
X563579Y153179D01*
X563676Y153193D01*
X563772Y153210D01*
X563867Y153231D01*
X563961Y153255D01*
X564055Y153284D01*
X564147Y153316D01*
X564238Y153351D01*
X564327Y153390D01*
X564415Y153433D01*
X564501Y153479D01*
X564585Y153528D01*
X564667Y153581D01*
X564747Y153636D01*
X564825Y153695D01*
X564900Y153757D01*
X564973Y153822D01*
X565043Y153890D01*
X565111Y153960D01*
X565176Y154033D01*
X565238Y154108D01*
X565297Y154186D01*
X565352Y154266D01*
X565405Y154348D01*
X565454Y154432D01*
X565500Y154518D01*
X565543Y154606D01*
X565582Y154695D01*
X565617Y154786D01*
X565649Y154878D01*
X565678Y154972D01*
X565702Y155066D01*
X565723Y155161D01*
X565740Y155257D01*
X565754Y155354D01*
X565763Y155451D01*
X565769Y155548D01*
X565771Y155646D01*
X563287Y153162D02*
X563144Y153164D01*
X563001Y153170D01*
X562859Y153179D01*
X562717Y153193D01*
X562575Y153211D01*
X562434Y153232D01*
X562293Y153257D01*
X562153Y153286D01*
X562014Y153319D01*
X561876Y153355D01*
X561739Y153396D01*
X561603Y153440D01*
X561468Y153487D01*
X561335Y153539D01*
X561203Y153594D01*
X561073Y153652D01*
X560944Y153714D01*
X560817Y153780D01*
X560692Y153849D01*
X560569Y153921D01*
X560448Y153997D01*
X560329Y154075D01*
X560212Y154158D01*
X560097Y154243D01*
X559985Y154331D01*
X559875Y154423D01*
X559768Y154517D01*
X559663Y154614D01*
X559561Y154714D01*
X559872Y161854D02*
X559874Y161952D01*
X559880Y162049D01*
X559889Y162146D01*
X559903Y162243D01*
X559920Y162339D01*
X559941Y162434D01*
X559965Y162528D01*
X559994Y162622D01*
X560026Y162714D01*
X560061Y162805D01*
X560100Y162894D01*
X560143Y162982D01*
X560189Y163068D01*
X560238Y163152D01*
X560291Y163234D01*
X560346Y163314D01*
X560405Y163392D01*
X560467Y163467D01*
X560532Y163540D01*
X560600Y163610D01*
X560670Y163678D01*
X560743Y163743D01*
X560818Y163805D01*
X560896Y163864D01*
X560976Y163919D01*
X561058Y163972D01*
X561142Y164021D01*
X561228Y164067D01*
X561316Y164110D01*
X561405Y164149D01*
X561496Y164184D01*
X561588Y164216D01*
X561682Y164245D01*
X561776Y164269D01*
X561871Y164290D01*
X561967Y164307D01*
X562064Y164321D01*
X562161Y164330D01*
X562258Y164336D01*
X562356Y164338D01*
X562486Y164336D01*
X562616Y164331D01*
X562746Y164322D01*
X562876Y164309D01*
X563005Y164293D01*
X563134Y164273D01*
X563262Y164249D01*
X563390Y164222D01*
X563516Y164191D01*
X563642Y164157D01*
X563767Y164119D01*
X563890Y164078D01*
X564013Y164033D01*
X564134Y163985D01*
X564254Y163934D01*
X564372Y163879D01*
X564488Y163821D01*
X564603Y163760D01*
X564717Y163695D01*
X564828Y163628D01*
X564937Y163557D01*
X565045Y163483D01*
X565150Y163407D01*
X561115Y159681D02*
X561032Y159732D01*
X560951Y159786D01*
X560873Y159843D01*
X560797Y159903D01*
X560723Y159966D01*
X560652Y160032D01*
X560583Y160100D01*
X560517Y160171D01*
X560453Y160244D01*
X560393Y160320D01*
X560336Y160398D01*
X560281Y160479D01*
X560230Y160561D01*
X560182Y160645D01*
X560137Y160731D01*
X560095Y160819D01*
X560057Y160908D01*
X560023Y160998D01*
X559991Y161090D01*
X559964Y161183D01*
X559940Y161277D01*
X559919Y161372D01*
X559903Y161468D01*
X559890Y161564D01*
X559880Y161660D01*
X559875Y161757D01*
X559873Y161854D01*
X564528Y157819D02*
X564611Y157768D01*
X564692Y157714D01*
X564770Y157657D01*
X564846Y157597D01*
X564920Y157534D01*
X564991Y157468D01*
X565060Y157400D01*
X565126Y157329D01*
X565190Y157256D01*
X565250Y157180D01*
X565307Y157102D01*
X565362Y157021D01*
X565413Y156939D01*
X565461Y156855D01*
X565506Y156769D01*
X565548Y156681D01*
X565586Y156592D01*
X565620Y156502D01*
X565652Y156410D01*
X565679Y156317D01*
X565703Y156223D01*
X565724Y156128D01*
X565740Y156032D01*
X565753Y155936D01*
X565763Y155840D01*
X565768Y155743D01*
X565770Y155646D01*
X564529Y157819D02*
X561114Y159681D01*
X570272Y164338D02*
X572756Y153162D01*
X575239Y160613D01*
X577723Y153162D01*
X580207Y164338D01*
X588504Y164338D02*
X588608Y164336D01*
X588713Y164330D01*
X588817Y164320D01*
X588920Y164307D01*
X589023Y164289D01*
X589126Y164268D01*
X589227Y164243D01*
X589328Y164214D01*
X589427Y164181D01*
X589525Y164145D01*
X589621Y164105D01*
X589716Y164061D01*
X589810Y164014D01*
X589901Y163964D01*
X589990Y163910D01*
X590078Y163853D01*
X590163Y163792D01*
X590246Y163728D01*
X590326Y163662D01*
X590404Y163592D01*
X590480Y163520D01*
X590552Y163444D01*
X590622Y163366D01*
X590688Y163286D01*
X590752Y163203D01*
X590813Y163118D01*
X590870Y163030D01*
X590924Y162941D01*
X590974Y162850D01*
X591021Y162756D01*
X591065Y162661D01*
X591105Y162565D01*
X591141Y162467D01*
X591174Y162368D01*
X591203Y162267D01*
X591228Y162166D01*
X591249Y162063D01*
X591267Y161960D01*
X591280Y161857D01*
X591290Y161753D01*
X591296Y161648D01*
X591298Y161544D01*
X588504Y164339D02*
X588385Y164337D01*
X588267Y164331D01*
X588148Y164321D01*
X588030Y164308D01*
X587913Y164290D01*
X587796Y164268D01*
X587680Y164243D01*
X587565Y164214D01*
X587450Y164181D01*
X587337Y164144D01*
X587226Y164104D01*
X587115Y164060D01*
X587007Y164012D01*
X586900Y163961D01*
X586794Y163906D01*
X586691Y163847D01*
X586589Y163786D01*
X586490Y163721D01*
X586392Y163652D01*
X586298Y163581D01*
X586205Y163506D01*
X586115Y163429D01*
X586028Y163348D01*
X585943Y163265D01*
X585861Y163179D01*
X585782Y163090D01*
X585706Y162999D01*
X585633Y162905D01*
X585564Y162809D01*
X585497Y162710D01*
X585434Y162610D01*
X585374Y162507D01*
X585317Y162403D01*
X585265Y162296D01*
X585215Y162188D01*
X585169Y162079D01*
X585127Y161967D01*
X585089Y161855D01*
X590367Y159371D02*
X590442Y159445D01*
X590514Y159522D01*
X590584Y159601D01*
X590651Y159683D01*
X590715Y159767D01*
X590776Y159853D01*
X590834Y159941D01*
X590889Y160032D01*
X590941Y160124D01*
X590989Y160218D01*
X591034Y160313D01*
X591076Y160411D01*
X591114Y160509D01*
X591149Y160609D01*
X591180Y160710D01*
X591207Y160812D01*
X591231Y160915D01*
X591252Y161018D01*
X591268Y161123D01*
X591281Y161228D01*
X591291Y161333D01*
X591296Y161438D01*
X591298Y161544D01*
X590367Y159371D02*
X585089Y153162D01*
X591298Y153162D01*
M02*
