G04 EAGLE Gerber RS-274X export*
G75*
%MOMM*%
%FSLAX34Y34*%
%LPD*%
%INSoldermask Top*%
%IPPOS*%
%AMOC8*
5,1,8,0,0,1.08239X$1,22.5*%
G01*
%ADD10R,2.152400X4.252400*%
%ADD11R,0.952400X0.952400*%
%ADD12C,0.609600*%
%ADD13C,1.168400*%
%ADD14R,1.828800X1.828800*%
%ADD15C,1.828800*%
%ADD16C,4.168400*%
%ADD17R,1.440400X1.440400*%
%ADD18C,1.440400*%
%ADD19C,3.372400*%
%ADD20C,4.597400*%
%ADD21C,1.552400*%
%ADD22C,2.652400*%
%ADD23R,1.183641X1.102359*%
%ADD24R,1.295400X1.422400*%
%ADD25C,2.112400*%
%ADD26R,1.676400X1.676400*%
%ADD27P,1.814519X8X292.500000*%


D10*
X609600Y653100D03*
X609600Y566100D03*
D11*
X411600Y139700D03*
X426600Y139700D03*
X462400Y139700D03*
X477400Y139700D03*
X525900Y139700D03*
X540900Y139700D03*
D12*
X93980Y838200D02*
X93982Y838387D01*
X93989Y838574D01*
X94001Y838761D01*
X94017Y838947D01*
X94037Y839133D01*
X94062Y839318D01*
X94092Y839503D01*
X94126Y839687D01*
X94165Y839870D01*
X94208Y840052D01*
X94256Y840232D01*
X94308Y840412D01*
X94365Y840590D01*
X94425Y840767D01*
X94491Y840942D01*
X94560Y841116D01*
X94634Y841288D01*
X94712Y841458D01*
X94794Y841626D01*
X94880Y841792D01*
X94970Y841956D01*
X95064Y842117D01*
X95162Y842277D01*
X95264Y842433D01*
X95370Y842588D01*
X95480Y842739D01*
X95593Y842888D01*
X95710Y843034D01*
X95830Y843177D01*
X95954Y843317D01*
X96081Y843454D01*
X96212Y843588D01*
X96346Y843719D01*
X96483Y843846D01*
X96623Y843970D01*
X96766Y844090D01*
X96912Y844207D01*
X97061Y844320D01*
X97212Y844430D01*
X97367Y844536D01*
X97523Y844638D01*
X97683Y844736D01*
X97844Y844830D01*
X98008Y844920D01*
X98174Y845006D01*
X98342Y845088D01*
X98512Y845166D01*
X98684Y845240D01*
X98858Y845309D01*
X99033Y845375D01*
X99210Y845435D01*
X99388Y845492D01*
X99568Y845544D01*
X99748Y845592D01*
X99930Y845635D01*
X100113Y845674D01*
X100297Y845708D01*
X100482Y845738D01*
X100667Y845763D01*
X100853Y845783D01*
X101039Y845799D01*
X101226Y845811D01*
X101413Y845818D01*
X101600Y845820D01*
X101787Y845818D01*
X101974Y845811D01*
X102161Y845799D01*
X102347Y845783D01*
X102533Y845763D01*
X102718Y845738D01*
X102903Y845708D01*
X103087Y845674D01*
X103270Y845635D01*
X103452Y845592D01*
X103632Y845544D01*
X103812Y845492D01*
X103990Y845435D01*
X104167Y845375D01*
X104342Y845309D01*
X104516Y845240D01*
X104688Y845166D01*
X104858Y845088D01*
X105026Y845006D01*
X105192Y844920D01*
X105356Y844830D01*
X105517Y844736D01*
X105677Y844638D01*
X105833Y844536D01*
X105988Y844430D01*
X106139Y844320D01*
X106288Y844207D01*
X106434Y844090D01*
X106577Y843970D01*
X106717Y843846D01*
X106854Y843719D01*
X106988Y843588D01*
X107119Y843454D01*
X107246Y843317D01*
X107370Y843177D01*
X107490Y843034D01*
X107607Y842888D01*
X107720Y842739D01*
X107830Y842588D01*
X107936Y842433D01*
X108038Y842277D01*
X108136Y842117D01*
X108230Y841956D01*
X108320Y841792D01*
X108406Y841626D01*
X108488Y841458D01*
X108566Y841288D01*
X108640Y841116D01*
X108709Y840942D01*
X108775Y840767D01*
X108835Y840590D01*
X108892Y840412D01*
X108944Y840232D01*
X108992Y840052D01*
X109035Y839870D01*
X109074Y839687D01*
X109108Y839503D01*
X109138Y839318D01*
X109163Y839133D01*
X109183Y838947D01*
X109199Y838761D01*
X109211Y838574D01*
X109218Y838387D01*
X109220Y838200D01*
X109218Y838013D01*
X109211Y837826D01*
X109199Y837639D01*
X109183Y837453D01*
X109163Y837267D01*
X109138Y837082D01*
X109108Y836897D01*
X109074Y836713D01*
X109035Y836530D01*
X108992Y836348D01*
X108944Y836168D01*
X108892Y835988D01*
X108835Y835810D01*
X108775Y835633D01*
X108709Y835458D01*
X108640Y835284D01*
X108566Y835112D01*
X108488Y834942D01*
X108406Y834774D01*
X108320Y834608D01*
X108230Y834444D01*
X108136Y834283D01*
X108038Y834123D01*
X107936Y833967D01*
X107830Y833812D01*
X107720Y833661D01*
X107607Y833512D01*
X107490Y833366D01*
X107370Y833223D01*
X107246Y833083D01*
X107119Y832946D01*
X106988Y832812D01*
X106854Y832681D01*
X106717Y832554D01*
X106577Y832430D01*
X106434Y832310D01*
X106288Y832193D01*
X106139Y832080D01*
X105988Y831970D01*
X105833Y831864D01*
X105677Y831762D01*
X105517Y831664D01*
X105356Y831570D01*
X105192Y831480D01*
X105026Y831394D01*
X104858Y831312D01*
X104688Y831234D01*
X104516Y831160D01*
X104342Y831091D01*
X104167Y831025D01*
X103990Y830965D01*
X103812Y830908D01*
X103632Y830856D01*
X103452Y830808D01*
X103270Y830765D01*
X103087Y830726D01*
X102903Y830692D01*
X102718Y830662D01*
X102533Y830637D01*
X102347Y830617D01*
X102161Y830601D01*
X101974Y830589D01*
X101787Y830582D01*
X101600Y830580D01*
X101413Y830582D01*
X101226Y830589D01*
X101039Y830601D01*
X100853Y830617D01*
X100667Y830637D01*
X100482Y830662D01*
X100297Y830692D01*
X100113Y830726D01*
X99930Y830765D01*
X99748Y830808D01*
X99568Y830856D01*
X99388Y830908D01*
X99210Y830965D01*
X99033Y831025D01*
X98858Y831091D01*
X98684Y831160D01*
X98512Y831234D01*
X98342Y831312D01*
X98174Y831394D01*
X98008Y831480D01*
X97844Y831570D01*
X97683Y831664D01*
X97523Y831762D01*
X97367Y831864D01*
X97212Y831970D01*
X97061Y832080D01*
X96912Y832193D01*
X96766Y832310D01*
X96623Y832430D01*
X96483Y832554D01*
X96346Y832681D01*
X96212Y832812D01*
X96081Y832946D01*
X95954Y833083D01*
X95830Y833223D01*
X95710Y833366D01*
X95593Y833512D01*
X95480Y833661D01*
X95370Y833812D01*
X95264Y833967D01*
X95162Y834123D01*
X95064Y834283D01*
X94970Y834444D01*
X94880Y834608D01*
X94794Y834774D01*
X94712Y834942D01*
X94634Y835112D01*
X94560Y835284D01*
X94491Y835458D01*
X94425Y835633D01*
X94365Y835810D01*
X94308Y835988D01*
X94256Y836168D01*
X94208Y836348D01*
X94165Y836530D01*
X94126Y836713D01*
X94092Y836897D01*
X94062Y837082D01*
X94037Y837267D01*
X94017Y837453D01*
X94001Y837639D01*
X93989Y837826D01*
X93982Y838013D01*
X93980Y838200D01*
D13*
X101600Y838200D03*
D12*
X93980Y812800D02*
X93982Y812987D01*
X93989Y813174D01*
X94001Y813361D01*
X94017Y813547D01*
X94037Y813733D01*
X94062Y813918D01*
X94092Y814103D01*
X94126Y814287D01*
X94165Y814470D01*
X94208Y814652D01*
X94256Y814832D01*
X94308Y815012D01*
X94365Y815190D01*
X94425Y815367D01*
X94491Y815542D01*
X94560Y815716D01*
X94634Y815888D01*
X94712Y816058D01*
X94794Y816226D01*
X94880Y816392D01*
X94970Y816556D01*
X95064Y816717D01*
X95162Y816877D01*
X95264Y817033D01*
X95370Y817188D01*
X95480Y817339D01*
X95593Y817488D01*
X95710Y817634D01*
X95830Y817777D01*
X95954Y817917D01*
X96081Y818054D01*
X96212Y818188D01*
X96346Y818319D01*
X96483Y818446D01*
X96623Y818570D01*
X96766Y818690D01*
X96912Y818807D01*
X97061Y818920D01*
X97212Y819030D01*
X97367Y819136D01*
X97523Y819238D01*
X97683Y819336D01*
X97844Y819430D01*
X98008Y819520D01*
X98174Y819606D01*
X98342Y819688D01*
X98512Y819766D01*
X98684Y819840D01*
X98858Y819909D01*
X99033Y819975D01*
X99210Y820035D01*
X99388Y820092D01*
X99568Y820144D01*
X99748Y820192D01*
X99930Y820235D01*
X100113Y820274D01*
X100297Y820308D01*
X100482Y820338D01*
X100667Y820363D01*
X100853Y820383D01*
X101039Y820399D01*
X101226Y820411D01*
X101413Y820418D01*
X101600Y820420D01*
X101787Y820418D01*
X101974Y820411D01*
X102161Y820399D01*
X102347Y820383D01*
X102533Y820363D01*
X102718Y820338D01*
X102903Y820308D01*
X103087Y820274D01*
X103270Y820235D01*
X103452Y820192D01*
X103632Y820144D01*
X103812Y820092D01*
X103990Y820035D01*
X104167Y819975D01*
X104342Y819909D01*
X104516Y819840D01*
X104688Y819766D01*
X104858Y819688D01*
X105026Y819606D01*
X105192Y819520D01*
X105356Y819430D01*
X105517Y819336D01*
X105677Y819238D01*
X105833Y819136D01*
X105988Y819030D01*
X106139Y818920D01*
X106288Y818807D01*
X106434Y818690D01*
X106577Y818570D01*
X106717Y818446D01*
X106854Y818319D01*
X106988Y818188D01*
X107119Y818054D01*
X107246Y817917D01*
X107370Y817777D01*
X107490Y817634D01*
X107607Y817488D01*
X107720Y817339D01*
X107830Y817188D01*
X107936Y817033D01*
X108038Y816877D01*
X108136Y816717D01*
X108230Y816556D01*
X108320Y816392D01*
X108406Y816226D01*
X108488Y816058D01*
X108566Y815888D01*
X108640Y815716D01*
X108709Y815542D01*
X108775Y815367D01*
X108835Y815190D01*
X108892Y815012D01*
X108944Y814832D01*
X108992Y814652D01*
X109035Y814470D01*
X109074Y814287D01*
X109108Y814103D01*
X109138Y813918D01*
X109163Y813733D01*
X109183Y813547D01*
X109199Y813361D01*
X109211Y813174D01*
X109218Y812987D01*
X109220Y812800D01*
X109218Y812613D01*
X109211Y812426D01*
X109199Y812239D01*
X109183Y812053D01*
X109163Y811867D01*
X109138Y811682D01*
X109108Y811497D01*
X109074Y811313D01*
X109035Y811130D01*
X108992Y810948D01*
X108944Y810768D01*
X108892Y810588D01*
X108835Y810410D01*
X108775Y810233D01*
X108709Y810058D01*
X108640Y809884D01*
X108566Y809712D01*
X108488Y809542D01*
X108406Y809374D01*
X108320Y809208D01*
X108230Y809044D01*
X108136Y808883D01*
X108038Y808723D01*
X107936Y808567D01*
X107830Y808412D01*
X107720Y808261D01*
X107607Y808112D01*
X107490Y807966D01*
X107370Y807823D01*
X107246Y807683D01*
X107119Y807546D01*
X106988Y807412D01*
X106854Y807281D01*
X106717Y807154D01*
X106577Y807030D01*
X106434Y806910D01*
X106288Y806793D01*
X106139Y806680D01*
X105988Y806570D01*
X105833Y806464D01*
X105677Y806362D01*
X105517Y806264D01*
X105356Y806170D01*
X105192Y806080D01*
X105026Y805994D01*
X104858Y805912D01*
X104688Y805834D01*
X104516Y805760D01*
X104342Y805691D01*
X104167Y805625D01*
X103990Y805565D01*
X103812Y805508D01*
X103632Y805456D01*
X103452Y805408D01*
X103270Y805365D01*
X103087Y805326D01*
X102903Y805292D01*
X102718Y805262D01*
X102533Y805237D01*
X102347Y805217D01*
X102161Y805201D01*
X101974Y805189D01*
X101787Y805182D01*
X101600Y805180D01*
X101413Y805182D01*
X101226Y805189D01*
X101039Y805201D01*
X100853Y805217D01*
X100667Y805237D01*
X100482Y805262D01*
X100297Y805292D01*
X100113Y805326D01*
X99930Y805365D01*
X99748Y805408D01*
X99568Y805456D01*
X99388Y805508D01*
X99210Y805565D01*
X99033Y805625D01*
X98858Y805691D01*
X98684Y805760D01*
X98512Y805834D01*
X98342Y805912D01*
X98174Y805994D01*
X98008Y806080D01*
X97844Y806170D01*
X97683Y806264D01*
X97523Y806362D01*
X97367Y806464D01*
X97212Y806570D01*
X97061Y806680D01*
X96912Y806793D01*
X96766Y806910D01*
X96623Y807030D01*
X96483Y807154D01*
X96346Y807281D01*
X96212Y807412D01*
X96081Y807546D01*
X95954Y807683D01*
X95830Y807823D01*
X95710Y807966D01*
X95593Y808112D01*
X95480Y808261D01*
X95370Y808412D01*
X95264Y808567D01*
X95162Y808723D01*
X95064Y808883D01*
X94970Y809044D01*
X94880Y809208D01*
X94794Y809374D01*
X94712Y809542D01*
X94634Y809712D01*
X94560Y809884D01*
X94491Y810058D01*
X94425Y810233D01*
X94365Y810410D01*
X94308Y810588D01*
X94256Y810768D01*
X94208Y810948D01*
X94165Y811130D01*
X94126Y811313D01*
X94092Y811497D01*
X94062Y811682D01*
X94037Y811867D01*
X94017Y812053D01*
X94001Y812239D01*
X93989Y812426D01*
X93982Y812613D01*
X93980Y812800D01*
D13*
X101600Y812800D03*
D12*
X779780Y838200D02*
X779782Y838387D01*
X779789Y838574D01*
X779801Y838761D01*
X779817Y838947D01*
X779837Y839133D01*
X779862Y839318D01*
X779892Y839503D01*
X779926Y839687D01*
X779965Y839870D01*
X780008Y840052D01*
X780056Y840232D01*
X780108Y840412D01*
X780165Y840590D01*
X780225Y840767D01*
X780291Y840942D01*
X780360Y841116D01*
X780434Y841288D01*
X780512Y841458D01*
X780594Y841626D01*
X780680Y841792D01*
X780770Y841956D01*
X780864Y842117D01*
X780962Y842277D01*
X781064Y842433D01*
X781170Y842588D01*
X781280Y842739D01*
X781393Y842888D01*
X781510Y843034D01*
X781630Y843177D01*
X781754Y843317D01*
X781881Y843454D01*
X782012Y843588D01*
X782146Y843719D01*
X782283Y843846D01*
X782423Y843970D01*
X782566Y844090D01*
X782712Y844207D01*
X782861Y844320D01*
X783012Y844430D01*
X783167Y844536D01*
X783323Y844638D01*
X783483Y844736D01*
X783644Y844830D01*
X783808Y844920D01*
X783974Y845006D01*
X784142Y845088D01*
X784312Y845166D01*
X784484Y845240D01*
X784658Y845309D01*
X784833Y845375D01*
X785010Y845435D01*
X785188Y845492D01*
X785368Y845544D01*
X785548Y845592D01*
X785730Y845635D01*
X785913Y845674D01*
X786097Y845708D01*
X786282Y845738D01*
X786467Y845763D01*
X786653Y845783D01*
X786839Y845799D01*
X787026Y845811D01*
X787213Y845818D01*
X787400Y845820D01*
X787587Y845818D01*
X787774Y845811D01*
X787961Y845799D01*
X788147Y845783D01*
X788333Y845763D01*
X788518Y845738D01*
X788703Y845708D01*
X788887Y845674D01*
X789070Y845635D01*
X789252Y845592D01*
X789432Y845544D01*
X789612Y845492D01*
X789790Y845435D01*
X789967Y845375D01*
X790142Y845309D01*
X790316Y845240D01*
X790488Y845166D01*
X790658Y845088D01*
X790826Y845006D01*
X790992Y844920D01*
X791156Y844830D01*
X791317Y844736D01*
X791477Y844638D01*
X791633Y844536D01*
X791788Y844430D01*
X791939Y844320D01*
X792088Y844207D01*
X792234Y844090D01*
X792377Y843970D01*
X792517Y843846D01*
X792654Y843719D01*
X792788Y843588D01*
X792919Y843454D01*
X793046Y843317D01*
X793170Y843177D01*
X793290Y843034D01*
X793407Y842888D01*
X793520Y842739D01*
X793630Y842588D01*
X793736Y842433D01*
X793838Y842277D01*
X793936Y842117D01*
X794030Y841956D01*
X794120Y841792D01*
X794206Y841626D01*
X794288Y841458D01*
X794366Y841288D01*
X794440Y841116D01*
X794509Y840942D01*
X794575Y840767D01*
X794635Y840590D01*
X794692Y840412D01*
X794744Y840232D01*
X794792Y840052D01*
X794835Y839870D01*
X794874Y839687D01*
X794908Y839503D01*
X794938Y839318D01*
X794963Y839133D01*
X794983Y838947D01*
X794999Y838761D01*
X795011Y838574D01*
X795018Y838387D01*
X795020Y838200D01*
X795018Y838013D01*
X795011Y837826D01*
X794999Y837639D01*
X794983Y837453D01*
X794963Y837267D01*
X794938Y837082D01*
X794908Y836897D01*
X794874Y836713D01*
X794835Y836530D01*
X794792Y836348D01*
X794744Y836168D01*
X794692Y835988D01*
X794635Y835810D01*
X794575Y835633D01*
X794509Y835458D01*
X794440Y835284D01*
X794366Y835112D01*
X794288Y834942D01*
X794206Y834774D01*
X794120Y834608D01*
X794030Y834444D01*
X793936Y834283D01*
X793838Y834123D01*
X793736Y833967D01*
X793630Y833812D01*
X793520Y833661D01*
X793407Y833512D01*
X793290Y833366D01*
X793170Y833223D01*
X793046Y833083D01*
X792919Y832946D01*
X792788Y832812D01*
X792654Y832681D01*
X792517Y832554D01*
X792377Y832430D01*
X792234Y832310D01*
X792088Y832193D01*
X791939Y832080D01*
X791788Y831970D01*
X791633Y831864D01*
X791477Y831762D01*
X791317Y831664D01*
X791156Y831570D01*
X790992Y831480D01*
X790826Y831394D01*
X790658Y831312D01*
X790488Y831234D01*
X790316Y831160D01*
X790142Y831091D01*
X789967Y831025D01*
X789790Y830965D01*
X789612Y830908D01*
X789432Y830856D01*
X789252Y830808D01*
X789070Y830765D01*
X788887Y830726D01*
X788703Y830692D01*
X788518Y830662D01*
X788333Y830637D01*
X788147Y830617D01*
X787961Y830601D01*
X787774Y830589D01*
X787587Y830582D01*
X787400Y830580D01*
X787213Y830582D01*
X787026Y830589D01*
X786839Y830601D01*
X786653Y830617D01*
X786467Y830637D01*
X786282Y830662D01*
X786097Y830692D01*
X785913Y830726D01*
X785730Y830765D01*
X785548Y830808D01*
X785368Y830856D01*
X785188Y830908D01*
X785010Y830965D01*
X784833Y831025D01*
X784658Y831091D01*
X784484Y831160D01*
X784312Y831234D01*
X784142Y831312D01*
X783974Y831394D01*
X783808Y831480D01*
X783644Y831570D01*
X783483Y831664D01*
X783323Y831762D01*
X783167Y831864D01*
X783012Y831970D01*
X782861Y832080D01*
X782712Y832193D01*
X782566Y832310D01*
X782423Y832430D01*
X782283Y832554D01*
X782146Y832681D01*
X782012Y832812D01*
X781881Y832946D01*
X781754Y833083D01*
X781630Y833223D01*
X781510Y833366D01*
X781393Y833512D01*
X781280Y833661D01*
X781170Y833812D01*
X781064Y833967D01*
X780962Y834123D01*
X780864Y834283D01*
X780770Y834444D01*
X780680Y834608D01*
X780594Y834774D01*
X780512Y834942D01*
X780434Y835112D01*
X780360Y835284D01*
X780291Y835458D01*
X780225Y835633D01*
X780165Y835810D01*
X780108Y835988D01*
X780056Y836168D01*
X780008Y836348D01*
X779965Y836530D01*
X779926Y836713D01*
X779892Y836897D01*
X779862Y837082D01*
X779837Y837267D01*
X779817Y837453D01*
X779801Y837639D01*
X779789Y837826D01*
X779782Y838013D01*
X779780Y838200D01*
D13*
X787400Y838200D03*
D12*
X779780Y812800D02*
X779782Y812987D01*
X779789Y813174D01*
X779801Y813361D01*
X779817Y813547D01*
X779837Y813733D01*
X779862Y813918D01*
X779892Y814103D01*
X779926Y814287D01*
X779965Y814470D01*
X780008Y814652D01*
X780056Y814832D01*
X780108Y815012D01*
X780165Y815190D01*
X780225Y815367D01*
X780291Y815542D01*
X780360Y815716D01*
X780434Y815888D01*
X780512Y816058D01*
X780594Y816226D01*
X780680Y816392D01*
X780770Y816556D01*
X780864Y816717D01*
X780962Y816877D01*
X781064Y817033D01*
X781170Y817188D01*
X781280Y817339D01*
X781393Y817488D01*
X781510Y817634D01*
X781630Y817777D01*
X781754Y817917D01*
X781881Y818054D01*
X782012Y818188D01*
X782146Y818319D01*
X782283Y818446D01*
X782423Y818570D01*
X782566Y818690D01*
X782712Y818807D01*
X782861Y818920D01*
X783012Y819030D01*
X783167Y819136D01*
X783323Y819238D01*
X783483Y819336D01*
X783644Y819430D01*
X783808Y819520D01*
X783974Y819606D01*
X784142Y819688D01*
X784312Y819766D01*
X784484Y819840D01*
X784658Y819909D01*
X784833Y819975D01*
X785010Y820035D01*
X785188Y820092D01*
X785368Y820144D01*
X785548Y820192D01*
X785730Y820235D01*
X785913Y820274D01*
X786097Y820308D01*
X786282Y820338D01*
X786467Y820363D01*
X786653Y820383D01*
X786839Y820399D01*
X787026Y820411D01*
X787213Y820418D01*
X787400Y820420D01*
X787587Y820418D01*
X787774Y820411D01*
X787961Y820399D01*
X788147Y820383D01*
X788333Y820363D01*
X788518Y820338D01*
X788703Y820308D01*
X788887Y820274D01*
X789070Y820235D01*
X789252Y820192D01*
X789432Y820144D01*
X789612Y820092D01*
X789790Y820035D01*
X789967Y819975D01*
X790142Y819909D01*
X790316Y819840D01*
X790488Y819766D01*
X790658Y819688D01*
X790826Y819606D01*
X790992Y819520D01*
X791156Y819430D01*
X791317Y819336D01*
X791477Y819238D01*
X791633Y819136D01*
X791788Y819030D01*
X791939Y818920D01*
X792088Y818807D01*
X792234Y818690D01*
X792377Y818570D01*
X792517Y818446D01*
X792654Y818319D01*
X792788Y818188D01*
X792919Y818054D01*
X793046Y817917D01*
X793170Y817777D01*
X793290Y817634D01*
X793407Y817488D01*
X793520Y817339D01*
X793630Y817188D01*
X793736Y817033D01*
X793838Y816877D01*
X793936Y816717D01*
X794030Y816556D01*
X794120Y816392D01*
X794206Y816226D01*
X794288Y816058D01*
X794366Y815888D01*
X794440Y815716D01*
X794509Y815542D01*
X794575Y815367D01*
X794635Y815190D01*
X794692Y815012D01*
X794744Y814832D01*
X794792Y814652D01*
X794835Y814470D01*
X794874Y814287D01*
X794908Y814103D01*
X794938Y813918D01*
X794963Y813733D01*
X794983Y813547D01*
X794999Y813361D01*
X795011Y813174D01*
X795018Y812987D01*
X795020Y812800D01*
X795018Y812613D01*
X795011Y812426D01*
X794999Y812239D01*
X794983Y812053D01*
X794963Y811867D01*
X794938Y811682D01*
X794908Y811497D01*
X794874Y811313D01*
X794835Y811130D01*
X794792Y810948D01*
X794744Y810768D01*
X794692Y810588D01*
X794635Y810410D01*
X794575Y810233D01*
X794509Y810058D01*
X794440Y809884D01*
X794366Y809712D01*
X794288Y809542D01*
X794206Y809374D01*
X794120Y809208D01*
X794030Y809044D01*
X793936Y808883D01*
X793838Y808723D01*
X793736Y808567D01*
X793630Y808412D01*
X793520Y808261D01*
X793407Y808112D01*
X793290Y807966D01*
X793170Y807823D01*
X793046Y807683D01*
X792919Y807546D01*
X792788Y807412D01*
X792654Y807281D01*
X792517Y807154D01*
X792377Y807030D01*
X792234Y806910D01*
X792088Y806793D01*
X791939Y806680D01*
X791788Y806570D01*
X791633Y806464D01*
X791477Y806362D01*
X791317Y806264D01*
X791156Y806170D01*
X790992Y806080D01*
X790826Y805994D01*
X790658Y805912D01*
X790488Y805834D01*
X790316Y805760D01*
X790142Y805691D01*
X789967Y805625D01*
X789790Y805565D01*
X789612Y805508D01*
X789432Y805456D01*
X789252Y805408D01*
X789070Y805365D01*
X788887Y805326D01*
X788703Y805292D01*
X788518Y805262D01*
X788333Y805237D01*
X788147Y805217D01*
X787961Y805201D01*
X787774Y805189D01*
X787587Y805182D01*
X787400Y805180D01*
X787213Y805182D01*
X787026Y805189D01*
X786839Y805201D01*
X786653Y805217D01*
X786467Y805237D01*
X786282Y805262D01*
X786097Y805292D01*
X785913Y805326D01*
X785730Y805365D01*
X785548Y805408D01*
X785368Y805456D01*
X785188Y805508D01*
X785010Y805565D01*
X784833Y805625D01*
X784658Y805691D01*
X784484Y805760D01*
X784312Y805834D01*
X784142Y805912D01*
X783974Y805994D01*
X783808Y806080D01*
X783644Y806170D01*
X783483Y806264D01*
X783323Y806362D01*
X783167Y806464D01*
X783012Y806570D01*
X782861Y806680D01*
X782712Y806793D01*
X782566Y806910D01*
X782423Y807030D01*
X782283Y807154D01*
X782146Y807281D01*
X782012Y807412D01*
X781881Y807546D01*
X781754Y807683D01*
X781630Y807823D01*
X781510Y807966D01*
X781393Y808112D01*
X781280Y808261D01*
X781170Y808412D01*
X781064Y808567D01*
X780962Y808723D01*
X780864Y808883D01*
X780770Y809044D01*
X780680Y809208D01*
X780594Y809374D01*
X780512Y809542D01*
X780434Y809712D01*
X780360Y809884D01*
X780291Y810058D01*
X780225Y810233D01*
X780165Y810410D01*
X780108Y810588D01*
X780056Y810768D01*
X780008Y810948D01*
X779965Y811130D01*
X779926Y811313D01*
X779892Y811497D01*
X779862Y811682D01*
X779837Y811867D01*
X779817Y812053D01*
X779801Y812239D01*
X779789Y812426D01*
X779782Y812613D01*
X779780Y812800D01*
D13*
X787400Y812800D03*
D12*
X93980Y50800D02*
X93982Y50987D01*
X93989Y51174D01*
X94001Y51361D01*
X94017Y51547D01*
X94037Y51733D01*
X94062Y51918D01*
X94092Y52103D01*
X94126Y52287D01*
X94165Y52470D01*
X94208Y52652D01*
X94256Y52832D01*
X94308Y53012D01*
X94365Y53190D01*
X94425Y53367D01*
X94491Y53542D01*
X94560Y53716D01*
X94634Y53888D01*
X94712Y54058D01*
X94794Y54226D01*
X94880Y54392D01*
X94970Y54556D01*
X95064Y54717D01*
X95162Y54877D01*
X95264Y55033D01*
X95370Y55188D01*
X95480Y55339D01*
X95593Y55488D01*
X95710Y55634D01*
X95830Y55777D01*
X95954Y55917D01*
X96081Y56054D01*
X96212Y56188D01*
X96346Y56319D01*
X96483Y56446D01*
X96623Y56570D01*
X96766Y56690D01*
X96912Y56807D01*
X97061Y56920D01*
X97212Y57030D01*
X97367Y57136D01*
X97523Y57238D01*
X97683Y57336D01*
X97844Y57430D01*
X98008Y57520D01*
X98174Y57606D01*
X98342Y57688D01*
X98512Y57766D01*
X98684Y57840D01*
X98858Y57909D01*
X99033Y57975D01*
X99210Y58035D01*
X99388Y58092D01*
X99568Y58144D01*
X99748Y58192D01*
X99930Y58235D01*
X100113Y58274D01*
X100297Y58308D01*
X100482Y58338D01*
X100667Y58363D01*
X100853Y58383D01*
X101039Y58399D01*
X101226Y58411D01*
X101413Y58418D01*
X101600Y58420D01*
X101787Y58418D01*
X101974Y58411D01*
X102161Y58399D01*
X102347Y58383D01*
X102533Y58363D01*
X102718Y58338D01*
X102903Y58308D01*
X103087Y58274D01*
X103270Y58235D01*
X103452Y58192D01*
X103632Y58144D01*
X103812Y58092D01*
X103990Y58035D01*
X104167Y57975D01*
X104342Y57909D01*
X104516Y57840D01*
X104688Y57766D01*
X104858Y57688D01*
X105026Y57606D01*
X105192Y57520D01*
X105356Y57430D01*
X105517Y57336D01*
X105677Y57238D01*
X105833Y57136D01*
X105988Y57030D01*
X106139Y56920D01*
X106288Y56807D01*
X106434Y56690D01*
X106577Y56570D01*
X106717Y56446D01*
X106854Y56319D01*
X106988Y56188D01*
X107119Y56054D01*
X107246Y55917D01*
X107370Y55777D01*
X107490Y55634D01*
X107607Y55488D01*
X107720Y55339D01*
X107830Y55188D01*
X107936Y55033D01*
X108038Y54877D01*
X108136Y54717D01*
X108230Y54556D01*
X108320Y54392D01*
X108406Y54226D01*
X108488Y54058D01*
X108566Y53888D01*
X108640Y53716D01*
X108709Y53542D01*
X108775Y53367D01*
X108835Y53190D01*
X108892Y53012D01*
X108944Y52832D01*
X108992Y52652D01*
X109035Y52470D01*
X109074Y52287D01*
X109108Y52103D01*
X109138Y51918D01*
X109163Y51733D01*
X109183Y51547D01*
X109199Y51361D01*
X109211Y51174D01*
X109218Y50987D01*
X109220Y50800D01*
X109218Y50613D01*
X109211Y50426D01*
X109199Y50239D01*
X109183Y50053D01*
X109163Y49867D01*
X109138Y49682D01*
X109108Y49497D01*
X109074Y49313D01*
X109035Y49130D01*
X108992Y48948D01*
X108944Y48768D01*
X108892Y48588D01*
X108835Y48410D01*
X108775Y48233D01*
X108709Y48058D01*
X108640Y47884D01*
X108566Y47712D01*
X108488Y47542D01*
X108406Y47374D01*
X108320Y47208D01*
X108230Y47044D01*
X108136Y46883D01*
X108038Y46723D01*
X107936Y46567D01*
X107830Y46412D01*
X107720Y46261D01*
X107607Y46112D01*
X107490Y45966D01*
X107370Y45823D01*
X107246Y45683D01*
X107119Y45546D01*
X106988Y45412D01*
X106854Y45281D01*
X106717Y45154D01*
X106577Y45030D01*
X106434Y44910D01*
X106288Y44793D01*
X106139Y44680D01*
X105988Y44570D01*
X105833Y44464D01*
X105677Y44362D01*
X105517Y44264D01*
X105356Y44170D01*
X105192Y44080D01*
X105026Y43994D01*
X104858Y43912D01*
X104688Y43834D01*
X104516Y43760D01*
X104342Y43691D01*
X104167Y43625D01*
X103990Y43565D01*
X103812Y43508D01*
X103632Y43456D01*
X103452Y43408D01*
X103270Y43365D01*
X103087Y43326D01*
X102903Y43292D01*
X102718Y43262D01*
X102533Y43237D01*
X102347Y43217D01*
X102161Y43201D01*
X101974Y43189D01*
X101787Y43182D01*
X101600Y43180D01*
X101413Y43182D01*
X101226Y43189D01*
X101039Y43201D01*
X100853Y43217D01*
X100667Y43237D01*
X100482Y43262D01*
X100297Y43292D01*
X100113Y43326D01*
X99930Y43365D01*
X99748Y43408D01*
X99568Y43456D01*
X99388Y43508D01*
X99210Y43565D01*
X99033Y43625D01*
X98858Y43691D01*
X98684Y43760D01*
X98512Y43834D01*
X98342Y43912D01*
X98174Y43994D01*
X98008Y44080D01*
X97844Y44170D01*
X97683Y44264D01*
X97523Y44362D01*
X97367Y44464D01*
X97212Y44570D01*
X97061Y44680D01*
X96912Y44793D01*
X96766Y44910D01*
X96623Y45030D01*
X96483Y45154D01*
X96346Y45281D01*
X96212Y45412D01*
X96081Y45546D01*
X95954Y45683D01*
X95830Y45823D01*
X95710Y45966D01*
X95593Y46112D01*
X95480Y46261D01*
X95370Y46412D01*
X95264Y46567D01*
X95162Y46723D01*
X95064Y46883D01*
X94970Y47044D01*
X94880Y47208D01*
X94794Y47374D01*
X94712Y47542D01*
X94634Y47712D01*
X94560Y47884D01*
X94491Y48058D01*
X94425Y48233D01*
X94365Y48410D01*
X94308Y48588D01*
X94256Y48768D01*
X94208Y48948D01*
X94165Y49130D01*
X94126Y49313D01*
X94092Y49497D01*
X94062Y49682D01*
X94037Y49867D01*
X94017Y50053D01*
X94001Y50239D01*
X93989Y50426D01*
X93982Y50613D01*
X93980Y50800D01*
D13*
X101600Y50800D03*
D12*
X157480Y88900D02*
X157482Y89087D01*
X157489Y89274D01*
X157501Y89461D01*
X157517Y89647D01*
X157537Y89833D01*
X157562Y90018D01*
X157592Y90203D01*
X157626Y90387D01*
X157665Y90570D01*
X157708Y90752D01*
X157756Y90932D01*
X157808Y91112D01*
X157865Y91290D01*
X157925Y91467D01*
X157991Y91642D01*
X158060Y91816D01*
X158134Y91988D01*
X158212Y92158D01*
X158294Y92326D01*
X158380Y92492D01*
X158470Y92656D01*
X158564Y92817D01*
X158662Y92977D01*
X158764Y93133D01*
X158870Y93288D01*
X158980Y93439D01*
X159093Y93588D01*
X159210Y93734D01*
X159330Y93877D01*
X159454Y94017D01*
X159581Y94154D01*
X159712Y94288D01*
X159846Y94419D01*
X159983Y94546D01*
X160123Y94670D01*
X160266Y94790D01*
X160412Y94907D01*
X160561Y95020D01*
X160712Y95130D01*
X160867Y95236D01*
X161023Y95338D01*
X161183Y95436D01*
X161344Y95530D01*
X161508Y95620D01*
X161674Y95706D01*
X161842Y95788D01*
X162012Y95866D01*
X162184Y95940D01*
X162358Y96009D01*
X162533Y96075D01*
X162710Y96135D01*
X162888Y96192D01*
X163068Y96244D01*
X163248Y96292D01*
X163430Y96335D01*
X163613Y96374D01*
X163797Y96408D01*
X163982Y96438D01*
X164167Y96463D01*
X164353Y96483D01*
X164539Y96499D01*
X164726Y96511D01*
X164913Y96518D01*
X165100Y96520D01*
X165287Y96518D01*
X165474Y96511D01*
X165661Y96499D01*
X165847Y96483D01*
X166033Y96463D01*
X166218Y96438D01*
X166403Y96408D01*
X166587Y96374D01*
X166770Y96335D01*
X166952Y96292D01*
X167132Y96244D01*
X167312Y96192D01*
X167490Y96135D01*
X167667Y96075D01*
X167842Y96009D01*
X168016Y95940D01*
X168188Y95866D01*
X168358Y95788D01*
X168526Y95706D01*
X168692Y95620D01*
X168856Y95530D01*
X169017Y95436D01*
X169177Y95338D01*
X169333Y95236D01*
X169488Y95130D01*
X169639Y95020D01*
X169788Y94907D01*
X169934Y94790D01*
X170077Y94670D01*
X170217Y94546D01*
X170354Y94419D01*
X170488Y94288D01*
X170619Y94154D01*
X170746Y94017D01*
X170870Y93877D01*
X170990Y93734D01*
X171107Y93588D01*
X171220Y93439D01*
X171330Y93288D01*
X171436Y93133D01*
X171538Y92977D01*
X171636Y92817D01*
X171730Y92656D01*
X171820Y92492D01*
X171906Y92326D01*
X171988Y92158D01*
X172066Y91988D01*
X172140Y91816D01*
X172209Y91642D01*
X172275Y91467D01*
X172335Y91290D01*
X172392Y91112D01*
X172444Y90932D01*
X172492Y90752D01*
X172535Y90570D01*
X172574Y90387D01*
X172608Y90203D01*
X172638Y90018D01*
X172663Y89833D01*
X172683Y89647D01*
X172699Y89461D01*
X172711Y89274D01*
X172718Y89087D01*
X172720Y88900D01*
X172718Y88713D01*
X172711Y88526D01*
X172699Y88339D01*
X172683Y88153D01*
X172663Y87967D01*
X172638Y87782D01*
X172608Y87597D01*
X172574Y87413D01*
X172535Y87230D01*
X172492Y87048D01*
X172444Y86868D01*
X172392Y86688D01*
X172335Y86510D01*
X172275Y86333D01*
X172209Y86158D01*
X172140Y85984D01*
X172066Y85812D01*
X171988Y85642D01*
X171906Y85474D01*
X171820Y85308D01*
X171730Y85144D01*
X171636Y84983D01*
X171538Y84823D01*
X171436Y84667D01*
X171330Y84512D01*
X171220Y84361D01*
X171107Y84212D01*
X170990Y84066D01*
X170870Y83923D01*
X170746Y83783D01*
X170619Y83646D01*
X170488Y83512D01*
X170354Y83381D01*
X170217Y83254D01*
X170077Y83130D01*
X169934Y83010D01*
X169788Y82893D01*
X169639Y82780D01*
X169488Y82670D01*
X169333Y82564D01*
X169177Y82462D01*
X169017Y82364D01*
X168856Y82270D01*
X168692Y82180D01*
X168526Y82094D01*
X168358Y82012D01*
X168188Y81934D01*
X168016Y81860D01*
X167842Y81791D01*
X167667Y81725D01*
X167490Y81665D01*
X167312Y81608D01*
X167132Y81556D01*
X166952Y81508D01*
X166770Y81465D01*
X166587Y81426D01*
X166403Y81392D01*
X166218Y81362D01*
X166033Y81337D01*
X165847Y81317D01*
X165661Y81301D01*
X165474Y81289D01*
X165287Y81282D01*
X165100Y81280D01*
X164913Y81282D01*
X164726Y81289D01*
X164539Y81301D01*
X164353Y81317D01*
X164167Y81337D01*
X163982Y81362D01*
X163797Y81392D01*
X163613Y81426D01*
X163430Y81465D01*
X163248Y81508D01*
X163068Y81556D01*
X162888Y81608D01*
X162710Y81665D01*
X162533Y81725D01*
X162358Y81791D01*
X162184Y81860D01*
X162012Y81934D01*
X161842Y82012D01*
X161674Y82094D01*
X161508Y82180D01*
X161344Y82270D01*
X161183Y82364D01*
X161023Y82462D01*
X160867Y82564D01*
X160712Y82670D01*
X160561Y82780D01*
X160412Y82893D01*
X160266Y83010D01*
X160123Y83130D01*
X159983Y83254D01*
X159846Y83381D01*
X159712Y83512D01*
X159581Y83646D01*
X159454Y83783D01*
X159330Y83923D01*
X159210Y84066D01*
X159093Y84212D01*
X158980Y84361D01*
X158870Y84512D01*
X158764Y84667D01*
X158662Y84823D01*
X158564Y84983D01*
X158470Y85144D01*
X158380Y85308D01*
X158294Y85474D01*
X158212Y85642D01*
X158134Y85812D01*
X158060Y85984D01*
X157991Y86158D01*
X157925Y86333D01*
X157865Y86510D01*
X157808Y86688D01*
X157756Y86868D01*
X157708Y87048D01*
X157665Y87230D01*
X157626Y87413D01*
X157592Y87597D01*
X157562Y87782D01*
X157537Y87967D01*
X157517Y88153D01*
X157501Y88339D01*
X157489Y88526D01*
X157482Y88713D01*
X157480Y88900D01*
D13*
X165100Y88900D03*
D14*
X76200Y177800D03*
D15*
X76200Y203200D03*
X76200Y228600D03*
X76200Y254000D03*
X76200Y279400D03*
X76200Y304800D03*
X76200Y330200D03*
X76200Y355600D03*
X76200Y381000D03*
X76200Y406400D03*
X76200Y431800D03*
X76200Y457200D03*
X76200Y482600D03*
X76200Y508000D03*
X76200Y533400D03*
X76200Y558800D03*
X76200Y584200D03*
X76200Y609600D03*
X76200Y635000D03*
X76200Y660400D03*
D14*
X838200Y177800D03*
D15*
X838200Y203200D03*
X838200Y228600D03*
X838200Y254000D03*
X838200Y279400D03*
X838200Y304800D03*
X838200Y330200D03*
X838200Y355600D03*
X838200Y381000D03*
X838200Y406400D03*
X838200Y431800D03*
X838200Y457200D03*
X838200Y482600D03*
X838200Y508000D03*
X838200Y533400D03*
X838200Y558800D03*
X838200Y584200D03*
X838200Y609600D03*
X838200Y635000D03*
X838200Y660400D03*
D16*
X838200Y704850D03*
X838200Y133350D03*
X76200Y704850D03*
X76200Y133350D03*
D17*
X609600Y711200D03*
D18*
X634600Y711200D03*
X654600Y711200D03*
X679600Y711200D03*
D19*
X578900Y738300D03*
X710300Y738300D03*
D20*
X38100Y850900D03*
X38100Y38100D03*
X863600Y38100D03*
X863600Y850900D03*
D21*
X787000Y139700D03*
X762000Y139700D03*
X737000Y139700D03*
D22*
X812000Y69700D03*
X712000Y69700D03*
D21*
X190100Y152400D03*
X165100Y152400D03*
X140100Y152400D03*
D22*
X215100Y82400D03*
X115100Y82400D03*
D23*
X457200Y68199D03*
X457200Y84201D03*
X495300Y68199D03*
X495300Y84201D03*
D24*
X59690Y774700D03*
X41910Y774700D03*
D25*
X405400Y101200D03*
X405400Y51200D03*
X280400Y51200D03*
X280400Y101200D03*
X672100Y101200D03*
X672100Y51200D03*
X547100Y51200D03*
X547100Y101200D03*
D26*
X447300Y817200D03*
D27*
X421900Y817200D03*
X447300Y791800D03*
X421900Y791800D03*
X447300Y766400D03*
X421900Y766400D03*
X447300Y741000D03*
X421900Y741000D03*
X447300Y715600D03*
X421900Y715600D03*
X447300Y690200D03*
X421900Y690200D03*
X447300Y664800D03*
X421900Y664800D03*
X447300Y639400D03*
X421900Y639400D03*
X447300Y614000D03*
X421900Y614000D03*
X447300Y588600D03*
X421900Y588600D03*
X447300Y563200D03*
X421900Y563200D03*
X447300Y537800D03*
X421900Y537800D03*
X447300Y512400D03*
X421900Y512400D03*
X447300Y487000D03*
X421900Y487000D03*
X447300Y461600D03*
X421900Y461600D03*
X447300Y436200D03*
X421900Y436200D03*
X447300Y410800D03*
X421900Y410800D03*
X447300Y385400D03*
X421900Y385400D03*
D26*
X193300Y817200D03*
D27*
X167900Y817200D03*
X193300Y791800D03*
X167900Y791800D03*
X193300Y766400D03*
X167900Y766400D03*
X193300Y741000D03*
X167900Y741000D03*
X193300Y715600D03*
X167900Y715600D03*
X193300Y690200D03*
X167900Y690200D03*
X193300Y664800D03*
X167900Y664800D03*
X193300Y639400D03*
X167900Y639400D03*
X193300Y614000D03*
X167900Y614000D03*
X193300Y588600D03*
X167900Y588600D03*
X193300Y563200D03*
X167900Y563200D03*
X193300Y537800D03*
X167900Y537800D03*
X193300Y512400D03*
X167900Y512400D03*
X193300Y487000D03*
X167900Y487000D03*
X193300Y461600D03*
X167900Y461600D03*
X193300Y436200D03*
X167900Y436200D03*
X193300Y410800D03*
X167900Y410800D03*
X193300Y385400D03*
X167900Y385400D03*
M02*
