G04 EAGLE Gerber RS-274X export*
G75*
%MOMM*%
%FSLAX34Y34*%
%LPD*%
%INSoldermask Bottom*%
%IPPOS*%
%AMOC8*
5,1,8,0,0,1.08239X$1,22.5*%
G01*
%ADD10R,1.828800X1.828800*%
%ADD11C,1.828800*%
%ADD12C,4.168400*%
%ADD13R,1.440400X1.440400*%
%ADD14C,1.440400*%
%ADD15C,3.372400*%
%ADD16C,4.597400*%
%ADD17C,1.552400*%
%ADD18C,2.652400*%
%ADD19C,2.112400*%
%ADD20R,1.676400X1.676400*%
%ADD21P,1.814519X8X292.500000*%


D10*
X76200Y177800D03*
D11*
X76200Y203200D03*
X76200Y228600D03*
X76200Y254000D03*
X76200Y279400D03*
X76200Y304800D03*
X76200Y330200D03*
X76200Y355600D03*
X76200Y381000D03*
X76200Y406400D03*
X76200Y431800D03*
X76200Y457200D03*
X76200Y482600D03*
X76200Y508000D03*
X76200Y533400D03*
X76200Y558800D03*
X76200Y584200D03*
X76200Y609600D03*
X76200Y635000D03*
X76200Y660400D03*
D10*
X838200Y177800D03*
D11*
X838200Y203200D03*
X838200Y228600D03*
X838200Y254000D03*
X838200Y279400D03*
X838200Y304800D03*
X838200Y330200D03*
X838200Y355600D03*
X838200Y381000D03*
X838200Y406400D03*
X838200Y431800D03*
X838200Y457200D03*
X838200Y482600D03*
X838200Y508000D03*
X838200Y533400D03*
X838200Y558800D03*
X838200Y584200D03*
X838200Y609600D03*
X838200Y635000D03*
X838200Y660400D03*
D12*
X838200Y704850D03*
X838200Y133350D03*
X76200Y704850D03*
X76200Y133350D03*
D13*
X609600Y711200D03*
D14*
X634600Y711200D03*
X654600Y711200D03*
X679600Y711200D03*
D15*
X578900Y738300D03*
X710300Y738300D03*
D16*
X38100Y850900D03*
X38100Y38100D03*
X863600Y38100D03*
X863600Y850900D03*
D17*
X787000Y139700D03*
X762000Y139700D03*
X737000Y139700D03*
D18*
X812000Y69700D03*
X712000Y69700D03*
D17*
X190100Y152400D03*
X165100Y152400D03*
X140100Y152400D03*
D18*
X215100Y82400D03*
X115100Y82400D03*
D19*
X405400Y101200D03*
X405400Y51200D03*
X280400Y51200D03*
X280400Y101200D03*
X672100Y101200D03*
X672100Y51200D03*
X547100Y51200D03*
X547100Y101200D03*
D20*
X447300Y817200D03*
D21*
X421900Y817200D03*
X447300Y791800D03*
X421900Y791800D03*
X447300Y766400D03*
X421900Y766400D03*
X447300Y741000D03*
X421900Y741000D03*
X447300Y715600D03*
X421900Y715600D03*
X447300Y690200D03*
X421900Y690200D03*
X447300Y664800D03*
X421900Y664800D03*
X447300Y639400D03*
X421900Y639400D03*
X447300Y614000D03*
X421900Y614000D03*
X447300Y588600D03*
X421900Y588600D03*
X447300Y563200D03*
X421900Y563200D03*
X447300Y537800D03*
X421900Y537800D03*
X447300Y512400D03*
X421900Y512400D03*
X447300Y487000D03*
X421900Y487000D03*
X447300Y461600D03*
X421900Y461600D03*
X447300Y436200D03*
X421900Y436200D03*
X447300Y410800D03*
X421900Y410800D03*
X447300Y385400D03*
X421900Y385400D03*
D20*
X193300Y817200D03*
D21*
X167900Y817200D03*
X193300Y791800D03*
X167900Y791800D03*
X193300Y766400D03*
X167900Y766400D03*
X193300Y741000D03*
X167900Y741000D03*
X193300Y715600D03*
X167900Y715600D03*
X193300Y690200D03*
X167900Y690200D03*
X193300Y664800D03*
X167900Y664800D03*
X193300Y639400D03*
X167900Y639400D03*
X193300Y614000D03*
X167900Y614000D03*
X193300Y588600D03*
X167900Y588600D03*
X193300Y563200D03*
X167900Y563200D03*
X193300Y537800D03*
X167900Y537800D03*
X193300Y512400D03*
X167900Y512400D03*
X193300Y487000D03*
X167900Y487000D03*
X193300Y461600D03*
X167900Y461600D03*
X193300Y436200D03*
X167900Y436200D03*
X193300Y410800D03*
X167900Y410800D03*
X193300Y385400D03*
X167900Y385400D03*
M02*
